<svg xmlns="http://www.w3.org/2000/svg" viewBox="0 0 115.51 34.7"><defs><style>.cls-1{fill:#fff;}</style></defs><title>Aile group</title><g id="Layer_2" data-name="Layer 2"><g id="Layer_1-2" data-name="Layer 1"><path class="cls-1" d="M3.37.14c0-.09.07-.14.17-.14h.93a.18.18,0,0,1,.18.14L8,9.56a.1.1,0,0,1-.1.14h-1a.17.17,0,0,1-.19-.14L6,7.45H2L1.29,9.56a.19.19,0,0,1-.19.14h-1A.1.1,0,0,1,0,9.56ZM5.54,6.28,4,1.87H4L2.45,6.28Z"/><path class="cls-1" d="M9.53.14A.13.13,0,0,1,9.67,0h1a.13.13,0,0,1,.14.14V9.56a.13.13,0,0,1-.14.14h-1a.13.13,0,0,1-.14-.14Z"/><path class="cls-1" d="M13.2.14A.14.14,0,0,1,13.34,0h1a.13.13,0,0,1,.14.14V8.43a.08.08,0,0,0,.09.08h4.62a.14.14,0,0,1,.14.14v.9a.14.14,0,0,1-.14.14H13.34a.14.14,0,0,1-.14-.14Z"/><path class="cls-1" d="M20.88.14A.13.13,0,0,1,21,0h5.83A.14.14,0,0,1,27,.14V1a.13.13,0,0,1-.14.14H22.23a.08.08,0,0,0-.09.09V4.12a.08.08,0,0,0,.09.09h3.92a.14.14,0,0,1,.14.14v.9a.14.14,0,0,1-.14.14H22.23a.08.08,0,0,0-.09.08v3a.08.08,0,0,0,.09.08h4.62a.14.14,0,0,1,.14.14v.9a.14.14,0,0,1-.14.14H21a.13.13,0,0,1-.14-.14Z"/><path class="cls-1" d="M32.17,11.41a.13.13,0,0,1,0-.2l.58-.58a.13.13,0,0,1,.21,0,2.28,2.28,0,0,0,1.61.68c1.13,0,1.73-.58,1.73-1.84v-.8h0a2,2,0,0,1-1.9.94A2.24,2.24,0,0,1,32.11,8a5.33,5.33,0,0,1-.23-1.8,5.34,5.34,0,0,1,.23-1.8,2.24,2.24,0,0,1,2.29-1.65,2,2,0,0,1,1.9.94h0V3a.13.13,0,0,1,.14-.14h.91a.13.13,0,0,1,.14.14V9.4a2.71,2.71,0,0,1-3,3A3.08,3.08,0,0,1,32.17,11.41Zm4-3.92a4.15,4.15,0,0,0,.16-1.33,4.22,4.22,0,0,0-.16-1.33,1.54,1.54,0,0,0-2.89,0,4.29,4.29,0,0,0-.17,1.33,4.22,4.22,0,0,0,.17,1.33,1.39,1.39,0,0,0,1.44,1A1.41,1.41,0,0,0,36.16,7.49Z"/><path class="cls-1" d="M40,9.7a.13.13,0,0,1-.14-.14V3A.13.13,0,0,1,40,2.87h.91a.13.13,0,0,1,.14.14v.7h0a1.9,1.9,0,0,1,1.81-1,2.11,2.11,0,0,1,1.4.51c.07.07.09.13,0,.2l-.53.7a.13.13,0,0,1-.2,0,1.92,1.92,0,0,0-1.06-.33c-1,0-1.47.81-1.47,2V9.56a.13.13,0,0,1-.14.14Z"/><path class="cls-1" d="M45.27,8A5.14,5.14,0,0,1,45,6.28a5.09,5.09,0,0,1,.23-1.72,2.89,2.89,0,0,1,5.39,0,5.06,5.06,0,0,1,.23,1.72A5.1,5.1,0,0,1,50.66,8a2.89,2.89,0,0,1-5.39,0Zm4.24-.34a4.48,4.48,0,0,0,.16-1.4,4.37,4.37,0,0,0-.16-1.38,1.64,1.64,0,0,0-3.08,0,4.38,4.38,0,0,0-.16,1.38,4.48,4.48,0,0,0,.16,1.4,1.64,1.64,0,0,0,3.08,0Z"/><path class="cls-1" d="M57.11,9.7A.14.14,0,0,1,57,9.56V8.91h0a2.08,2.08,0,0,1-1.87.94,2.3,2.3,0,0,1-2.37-2.58V3a.13.13,0,0,1,.14-.14h.91a.13.13,0,0,1,.14.14V7c0,1.11.5,1.75,1.51,1.75A1.51,1.51,0,0,0,57,7.06V3a.14.14,0,0,1,.14-.14H58a.14.14,0,0,1,.14.14V9.56A.14.14,0,0,1,58,9.7Z"/><path class="cls-1" d="M60.66,12.26a.14.14,0,0,1-.14-.14V3a.13.13,0,0,1,.14-.14h.91a.13.13,0,0,1,.14.14v.64h0a2.07,2.07,0,0,1,1.94-.94A2.25,2.25,0,0,1,66,4.35a5.64,5.64,0,0,1,.24,1.93A5.66,5.66,0,0,1,66,8.21a2.25,2.25,0,0,1-2.35,1.64,2.08,2.08,0,0,1-1.94-1h0v3.22a.13.13,0,0,1-.14.14ZM64.88,7.7A4.72,4.72,0,0,0,65,6.28a4.84,4.84,0,0,0-.16-1.43,1.62,1.62,0,0,0-3,0,4.45,4.45,0,0,0-.16,1.43,4.39,4.39,0,0,0,.16,1.43,1.61,1.61,0,0,0,3,0Z"/><path class="cls-1" d="M5.35,21.12A.13.13,0,0,1,5.22,21l-1.4-4.29h0L2.39,21c0,.08-.06.11-.14.11H1.92c-.08,0-.11,0-.14-.11L.11,15.86c0-.07,0-.11.08-.11H.59c.08,0,.11,0,.15.11l1.37,4.29h0l1.4-4.29c0-.07.06-.11.14-.11H4a.14.14,0,0,1,.13.11l1.42,4.29h0l1.34-4.29c0-.08.07-.11.15-.11h.41c.08,0,.1,0,.08.11L5.84,21a.13.13,0,0,1-.14.11Z"/><path class="cls-1" d="M9,14.32a.11.11,0,0,1-.11-.11v-.63A.1.1,0,0,1,9,13.46h.5a.11.11,0,0,1,.11.11v.63a.11.11,0,0,1-.11.11Zm.06,6.8A.11.11,0,0,1,9,21V15.86a.11.11,0,0,1,.11-.11h.38a.11.11,0,0,1,.11.11V21a.11.11,0,0,1-.11.11Z"/><path class="cls-1" d="M15.25,21.12a.11.11,0,0,1-.11-.11V17.83c0-1.07-.47-1.61-1.41-1.61a1.41,1.41,0,0,0-1.46,1.5V21a.11.11,0,0,1-.11.11h-.38a.11.11,0,0,1-.11-.11V15.86a.11.11,0,0,1,.11-.11h.38a.11.11,0,0,1,.11.11v.64h0a1.69,1.69,0,0,1,1.59-.87,1.79,1.79,0,0,1,1.88,2V21a.11.11,0,0,1-.11.11Z"/><path class="cls-1" d="M21.15,21.12A.11.11,0,0,1,21,21v-.65h0a1.66,1.66,0,0,1-1.63.88,1.73,1.73,0,0,1-1.82-1.28,4.68,4.68,0,0,1-.19-1.51,4.68,4.68,0,0,1,.19-1.52,1.73,1.73,0,0,1,1.82-1.28,1.66,1.66,0,0,1,1.63.88h0V13.57a.11.11,0,0,1,.11-.11h.38a.11.11,0,0,1,.11.11V21a.11.11,0,0,1-.11.11Zm-.26-1.42A3.89,3.89,0,0,0,21,18.44a4,4,0,0,0-.15-1.27,1.32,1.32,0,0,0-1.37-.95,1.33,1.33,0,0,0-1.37.95A4.23,4.23,0,0,0,18,18.44a4.2,4.2,0,0,0,.15,1.26,1.33,1.33,0,0,0,1.37.95A1.32,1.32,0,0,0,20.89,19.7Z"/><path class="cls-1" d="M23.53,19.83a4.43,4.43,0,0,1-.18-1.41,4.42,4.42,0,0,1,.18-1.4,2.14,2.14,0,0,1,4,0,4.42,4.42,0,0,1,.18,1.4,4.43,4.43,0,0,1-.18,1.41,2.14,2.14,0,0,1-4,0ZM27,19.64a3.67,3.67,0,0,0,.15-1.22A3.65,3.65,0,0,0,27,17.22a1.51,1.51,0,0,0-2.85,0A3.65,3.65,0,0,0,24,18.43a3.67,3.67,0,0,0,.15,1.22,1.51,1.51,0,0,0,2.85,0Z"/><path class="cls-1" d="M34.06,21.12a.13.13,0,0,1-.13-.11l-1.4-4.29h0L31.1,21c0,.08-.06.11-.14.11h-.34c-.08,0-.11,0-.13-.11l-1.68-5.14c0-.07,0-.11.08-.11h.41c.08,0,.11,0,.15.11l1.37,4.29h0l1.4-4.29c0-.07.06-.11.14-.11h.33a.14.14,0,0,1,.13.11l1.42,4.29h0l1.34-4.29c0-.08.07-.11.15-.11h.41c.08,0,.1,0,.08.11L34.54,21a.13.13,0,0,1-.13.11Z"/><path class="cls-1" d="M37.18,20.48a.11.11,0,0,1,0-.16l.25-.28a.12.12,0,0,1,.16,0,2.76,2.76,0,0,0,1.74.63c.93,0,1.4-.42,1.4-1s-.24-.83-1.23-.95L39,18.63c-1-.1-1.56-.59-1.56-1.43s.71-1.57,1.89-1.57a3.31,3.31,0,0,1,1.79.52.11.11,0,0,1,0,.16l-.2.27a.11.11,0,0,1-.16,0,3.18,3.18,0,0,0-1.49-.42c-.82,0-1.25.36-1.25,1s.33.81,1.24.9l.54.06c1,.1,1.55.61,1.55,1.44,0,1-.72,1.68-2.06,1.68A3.25,3.25,0,0,1,37.18,20.48Z"/><path class="cls-1" d="M42.93,20.14h.48a.11.11,0,0,1,.11.11v.85a.46.46,0,0,1-.06.25l-.44.87a.14.14,0,0,1-.13.09c-.06,0-.08,0-.08-.1V20.25A.11.11,0,0,1,42.93,20.14Z"/><path class="cls-1" d="M51.32,21.12A.11.11,0,0,1,51.2,21v-.65h0a1.66,1.66,0,0,1-1.63.88,1.73,1.73,0,0,1-1.82-1.28,4.68,4.68,0,0,1-.19-1.51,4.68,4.68,0,0,1,.19-1.52,1.73,1.73,0,0,1,1.82-1.28,1.66,1.66,0,0,1,1.63.88h0V13.57a.11.11,0,0,1,.11-.11h.38a.11.11,0,0,1,.11.11V21a.11.11,0,0,1-.11.11Zm-.26-1.42a3.89,3.89,0,0,0,.15-1.26,4,4,0,0,0-.15-1.27,1.47,1.47,0,0,0-2.75,0,4.23,4.23,0,0,0-.15,1.27,4.2,4.2,0,0,0,.15,1.26,1.47,1.47,0,0,0,2.75,0Z"/><path class="cls-1" d="M53.7,19.83a4.43,4.43,0,0,1-.18-1.41A4.42,4.42,0,0,1,53.7,17a2.14,2.14,0,0,1,4,0,4.42,4.42,0,0,1,.18,1.4,4.43,4.43,0,0,1-.18,1.41,2.14,2.14,0,0,1-4,0Zm3.43-.19a3.67,3.67,0,0,0,.15-1.22,3.65,3.65,0,0,0-.15-1.21,1.51,1.51,0,0,0-2.85,0,3.65,3.65,0,0,0-.15,1.21,3.67,3.67,0,0,0,.15,1.22,1.51,1.51,0,0,0,2.85,0Z"/><path class="cls-1" d="M59.42,19.83a4.47,4.47,0,0,1-.18-1.41,4.45,4.45,0,0,1,.18-1.4,2.14,2.14,0,0,1,4,0,4.42,4.42,0,0,1,.18,1.4,4.43,4.43,0,0,1-.18,1.41,2.14,2.14,0,0,1-4,0Zm3.43-.19A3.67,3.67,0,0,0,63,18.43a3.65,3.65,0,0,0-.15-1.21,1.51,1.51,0,0,0-2.85,0,3.65,3.65,0,0,0-.15,1.21A3.67,3.67,0,0,0,60,19.64a1.51,1.51,0,0,0,2.85,0Z"/><path class="cls-1" d="M65.44,21.12a.11.11,0,0,1-.11-.11V15.86a.11.11,0,0,1,.11-.11h.38a.11.11,0,0,1,.11.11v.69h0a1.44,1.44,0,0,1,1.44-.91,1.67,1.67,0,0,1,1.08.37.09.09,0,0,1,0,.15l-.23.31a.12.12,0,0,1-.17,0,1.56,1.56,0,0,0-.86-.27c-.95,0-1.31.82-1.31,1.81v3a.11.11,0,0,1-.11.11Z"/><path class="cls-1" d="M69.28,20.48a.11.11,0,0,1,0-.16l.25-.28a.12.12,0,0,1,.16,0,2.76,2.76,0,0,0,1.74.63c.93,0,1.4-.42,1.4-1s-.24-.83-1.23-.95l-.54-.06c-1-.1-1.56-.59-1.56-1.43s.71-1.57,1.89-1.57a3.31,3.31,0,0,1,1.79.52.11.11,0,0,1,0,.16l-.2.27a.11.11,0,0,1-.16,0,3.18,3.18,0,0,0-1.49-.42c-.82,0-1.25.36-1.25,1s.33.81,1.24.9l.54.06c1,.1,1.55.61,1.55,1.44,0,1-.72,1.68-2.06,1.68A3.25,3.25,0,0,1,69.28,20.48Z"/><path class="cls-1" d="M75,20.14h.48a.11.11,0,0,1,.11.11v.85a.46.46,0,0,1-.06.25l-.44.87a.14.14,0,0,1-.13.09c-.06,0-.08,0-.08-.1V20.25A.11.11,0,0,1,75,20.14Z"/><path class="cls-1" d="M80.3,21.12a.11.11,0,0,1-.11-.11V16.35a.06.06,0,0,0-.07-.07h-.57a.11.11,0,0,1-.11-.11v-.31a.11.11,0,0,1,.11-.11h.57a.06.06,0,0,0,.07-.07v-.57c0-1.28.41-1.64,1.5-1.64H82a.11.11,0,0,1,.11.11v.36A.11.11,0,0,1,82,14h-.24c-.82,0-1,.17-1,1v.65a.06.06,0,0,0,.07.07H82a.11.11,0,0,1,.11.11v.31a.11.11,0,0,1-.11.11H80.87a.06.06,0,0,0-.07.07V21a.11.11,0,0,1-.11.11Z"/><path class="cls-1" d="M83.9,16.6a.11.11,0,0,1-.17,0l-.19-.28a.11.11,0,0,1,0-.16,2.59,2.59,0,0,1,1.71-.52c1.4,0,2,.46,2,1.78V21a.11.11,0,0,1-.11.11h-.36a.11.11,0,0,1-.11-.11v-.56h0a1.73,1.73,0,0,1-1.67.79c-1.08,0-1.8-.54-1.8-1.59s.73-1.59,2-1.59h1.36a.06.06,0,0,0,.07-.07v-.55c0-.88-.3-1.24-1.4-1.24A2,2,0,0,0,83.9,16.6Zm2.75,2.86v-.82a.06.06,0,0,0-.07-.07H85.3c-1.07,0-1.52.35-1.52,1.06s.47,1,1.33,1S86.65,20.19,86.65,19.46Z"/><path class="cls-1" d="M89.05,17a2.13,2.13,0,0,1,3.82-.38.1.1,0,0,1,0,.15l-.31.2a.1.1,0,0,1-.15,0,1.4,1.4,0,0,0-1.32-.73,1.37,1.37,0,0,0-1.41,1,3.67,3.67,0,0,0-.15,1.2,3.59,3.59,0,0,0,.15,1.19,1.37,1.37,0,0,0,1.41,1,1.4,1.4,0,0,0,1.32-.73.1.1,0,0,1,.15,0l.31.2a.1.1,0,0,1,0,.15,2.13,2.13,0,0,1-3.82-.38,4.74,4.74,0,0,1-.17-1.4A4.83,4.83,0,0,1,89.05,17Z"/><path class="cls-1" d="M94.82,16.6a.11.11,0,0,1-.17,0l-.19-.28a.11.11,0,0,1,0-.16,2.59,2.59,0,0,1,1.71-.52c1.4,0,2,.46,2,1.78V21a.11.11,0,0,1-.11.11h-.36a.11.11,0,0,1-.11-.11v-.56h0a1.73,1.73,0,0,1-1.67.79c-1.08,0-1.8-.54-1.8-1.59s.73-1.59,2-1.59H97.5a.06.06,0,0,0,.07-.07v-.55c0-.88-.3-1.24-1.4-1.24A2,2,0,0,0,94.82,16.6Zm2.75,2.86v-.82a.06.06,0,0,0-.07-.07H96.21c-1.07,0-1.52.35-1.52,1.06s.47,1,1.33,1S97.56,20.19,97.56,19.46Z"/><path class="cls-1" d="M103.57,21.12a.11.11,0,0,1-.11-.11v-.65h0a1.66,1.66,0,0,1-1.63.88A1.73,1.73,0,0,1,100,19.95a4.68,4.68,0,0,1-.19-1.51,4.68,4.68,0,0,1,.19-1.52,1.73,1.73,0,0,1,1.82-1.28,1.66,1.66,0,0,1,1.63.88h0V13.57a.11.11,0,0,1,.11-.11H104a.11.11,0,0,1,.11.11V21a.11.11,0,0,1-.11.11Zm-.26-1.42a3.93,3.93,0,0,0,.15-1.26,4,4,0,0,0-.15-1.27,1.47,1.47,0,0,0-2.75,0,4.23,4.23,0,0,0-.15,1.27,4.2,4.2,0,0,0,.15,1.26,1.47,1.47,0,0,0,2.75,0Z"/><path class="cls-1" d="M105.93,19.81a4.42,4.42,0,0,1-.16-1.38,4.57,4.57,0,0,1,.16-1.4,2.13,2.13,0,0,1,4,0,4.26,4.26,0,0,1,.16,1.43.11.11,0,0,1-.12.11h-3.5s-.07,0-.07.08a2.89,2.89,0,0,0,.11.95,1.48,1.48,0,0,0,1.52,1,1.83,1.83,0,0,0,1.5-.69.1.1,0,0,1,.16,0l.26.24a.1.1,0,0,1,0,.16,2.37,2.37,0,0,1-2,.9A2,2,0,0,1,105.93,19.81Zm3.47-1.76a.06.06,0,0,0,.07-.07,2.53,2.53,0,0,0-.1-.78,1.52,1.52,0,0,0-2.87,0,2.48,2.48,0,0,0-.1.78.06.06,0,0,0,.07.07Z"/><path class="cls-1" d="M111.36,20.48a.11.11,0,0,1,0-.16l.25-.28a.12.12,0,0,1,.16,0,2.76,2.76,0,0,0,1.74.63c.93,0,1.4-.42,1.4-1s-.24-.83-1.23-.95l-.54-.06c-1-.1-1.56-.59-1.56-1.43s.71-1.57,1.89-1.57a3.31,3.31,0,0,1,1.79.52.11.11,0,0,1,0,.16l-.2.27a.11.11,0,0,1-.16,0,3.18,3.18,0,0,0-1.49-.42c-.82,0-1.25.36-1.25,1s.33.81,1.24.9l.54.06c1,.1,1.55.61,1.55,1.44,0,1-.72,1.68-2.06,1.68A3.25,3.25,0,0,1,111.36,20.48Z"/><path class="cls-1" d="M.59,33.92a.11.11,0,0,1,0-.16l.29-.25a.1.1,0,0,1,.16,0,1.72,1.72,0,0,0,1.35.58c1,0,1.55-.48,1.55-1.65v-.79h0a1.59,1.59,0,0,1-1.61.89,1.78,1.78,0,0,1-1.81-1.3,4.74,4.74,0,0,1-.18-1.48,4.73,4.73,0,0,1,.18-1.48A1.79,1.79,0,0,1,2.34,27a1.58,1.58,0,0,1,1.61.89H4v-.66a.11.11,0,0,1,.11-.12h.39a.11.11,0,0,1,.11.12v5.22A2,2,0,0,1,2.39,34.7,2.22,2.22,0,0,1,.59,33.92ZM3.82,31A3.91,3.91,0,0,0,4,29.77a3.9,3.9,0,0,0-.14-1.24,1.31,1.31,0,0,0-1.36-1,1.3,1.3,0,0,0-1.34.95A3.72,3.72,0,0,0,1,29.77,3.65,3.65,0,0,0,1.13,31a1.3,1.3,0,0,0,1.34,1A1.33,1.33,0,0,0,3.82,31Z"/><path class="cls-1" d="M7.79,32.57c-.82,0-1.13-.37-1.13-1.28v-6.4a.11.11,0,0,1,.12-.12h.39a.11.11,0,0,1,.12.12v6.38c0,.54.17.71.58.71h.19a.11.11,0,0,1,.11.12v.36a.11.11,0,0,1-.11.11Z"/><path class="cls-1" d="M10.1,28a.11.11,0,0,1-.17,0l-.19-.28a.11.11,0,0,1,0-.16A2.63,2.63,0,0,1,11.51,27c1.41,0,2,.47,2,1.8v3.64a.11.11,0,0,1-.11.12H13a.11.11,0,0,1-.12-.12v-.57h0a1.75,1.75,0,0,1-1.69.8c-1.1,0-1.83-.55-1.83-1.61s.74-1.61,2.06-1.61h1.38a.06.06,0,0,0,.07-.07v-.56c0-.89-.31-1.26-1.41-1.26A2,2,0,0,0,10.1,28Zm2.78,2.9V30a.06.06,0,0,0-.07-.07h-1.3C10.43,30,10,30.31,10,31s.48,1,1.35,1S12.89,31.6,12.89,30.86Z"/><path class="cls-1" d="M15.1,31.89a.11.11,0,0,1,0-.16l.25-.29a.12.12,0,0,1,.16,0,2.82,2.82,0,0,0,1.77.64c.95,0,1.41-.42,1.41-1s-.24-.84-1.24-1L16.91,30c-1-.1-1.59-.59-1.59-1.45S16,27,17.24,27a3.35,3.35,0,0,1,1.81.52.11.11,0,0,1,0,.16l-.2.27a.11.11,0,0,1-.16,0,3.19,3.19,0,0,0-1.51-.42c-.83,0-1.27.37-1.27,1s.33.82,1.25.91l.55.06c1.06.1,1.57.61,1.57,1.46,0,1-.73,1.7-2.09,1.7A3.29,3.29,0,0,1,15.1,31.89Z"/><path class="cls-1" d="M20.6,31.89a.11.11,0,0,1,0-.16l.25-.29a.12.12,0,0,1,.16,0,2.82,2.82,0,0,0,1.77.64c.95,0,1.41-.42,1.41-1s-.24-.84-1.24-1L22.4,30c-1-.1-1.59-.59-1.59-1.45S21.53,27,22.73,27a3.35,3.35,0,0,1,1.81.52.11.11,0,0,1,0,.16l-.2.27a.11.11,0,0,1-.16,0,3.19,3.19,0,0,0-1.51-.42c-.83,0-1.27.37-1.27,1s.33.82,1.25.91l.55.06c1.06.1,1.57.61,1.57,1.46,0,1-.73,1.7-2.09,1.7A3.29,3.29,0,0,1,20.6,31.89Z"/><path class="cls-1" d="M26.43,31.54h.49a.11.11,0,0,1,.11.11v.85a.45.45,0,0,1-.06.25l-.44.88a.14.14,0,0,1-.14.09c-.06,0-.08,0-.08-.1v-2A.11.11,0,0,1,26.43,31.54Z"/><path class="cls-1" d="M31.92,28a.11.11,0,0,1-.17,0l-.19-.28a.12.12,0,0,1,0-.16A2.63,2.63,0,0,1,33.33,27c1.41,0,2,.47,2,1.8v3.64a.11.11,0,0,1-.12.12h-.36a.11.11,0,0,1-.11-.12v-.57h0a1.75,1.75,0,0,1-1.69.8c-1.1,0-1.83-.55-1.83-1.61s.74-1.61,2.07-1.61h1.38a.06.06,0,0,0,.07-.07v-.56c0-.89-.31-1.26-1.41-1.26A2,2,0,0,0,31.92,28Zm2.78,2.9V30a.06.06,0,0,0-.07-.07h-1.3c-1.08,0-1.54.36-1.54,1.07s.48,1,1.34,1S34.71,31.6,34.71,30.86Z"/><path class="cls-1" d="M38.47,32.57c-.82,0-1.13-.37-1.13-1.28v-6.4a.11.11,0,0,1,.12-.12h.39a.11.11,0,0,1,.12.12v6.38c0,.54.17.71.58.71h.19a.11.11,0,0,1,.11.12v.36a.11.11,0,0,1-.11.11Z"/><path class="cls-1" d="M43.84,32.54a.11.11,0,0,1-.12-.12v-.64h0a1.69,1.69,0,0,1-1.59.87c-1.21,0-1.88-.75-1.88-2.07V27.21a.11.11,0,0,1,.11-.12h.39a.11.11,0,0,1,.11.12v3.22c0,1.1.46,1.63,1.4,1.63a1.42,1.42,0,0,0,1.46-1.52V27.21a.11.11,0,0,1,.12-.12h.39a.11.11,0,0,1,.12.12v5.21a.11.11,0,0,1-.12.12Z"/><path class="cls-1" d="M53.61,32.54a.11.11,0,0,1-.11-.12V29.21c0-1.08-.49-1.63-1.44-1.63a1.42,1.42,0,0,0-1.47,1.52v3.33a.11.11,0,0,1-.12.12h-.39a.11.11,0,0,1-.12-.12V29.21c0-1.08-.48-1.63-1.43-1.63a1.43,1.43,0,0,0-1.48,1.52v3.33a.11.11,0,0,1-.11.12h-.39a.11.11,0,0,1-.11-.12V27.21a.11.11,0,0,1,.11-.12H47a.11.11,0,0,1,.11.12v.65h0A1.71,1.71,0,0,1,48.69,27a1.66,1.66,0,0,1,1.69,1h0a1.85,1.85,0,0,1,1.79-1,1.83,1.83,0,0,1,1.94,2.07v3.36a.11.11,0,0,1-.11.12Z"/><path class="cls-1" d="M56.21,25.65a.11.11,0,0,1-.12-.11v-.64a.11.11,0,0,1,.12-.12h.5a.11.11,0,0,1,.11.12v.64a.11.11,0,0,1-.11.11Zm.06,6.89a.11.11,0,0,1-.11-.12V27.21a.11.11,0,0,1,.11-.12h.39a.11.11,0,0,1,.11.12v5.21a.11.11,0,0,1-.11.12Z"/><path class="cls-1" d="M62.51,32.54a.11.11,0,0,1-.11-.12V29.21c0-1.08-.48-1.63-1.43-1.63a1.43,1.43,0,0,0-1.48,1.52v3.33a.11.11,0,0,1-.11.12H59a.11.11,0,0,1-.11-.12V27.21a.11.11,0,0,1,.11-.12h.39a.11.11,0,0,1,.11.12v.65h0A1.71,1.71,0,0,1,61.11,27,1.81,1.81,0,0,1,63,29.06v3.36a.11.11,0,0,1-.11.12Z"/><path class="cls-1" d="M65.11,25.65a.11.11,0,0,1-.11-.11v-.64a.11.11,0,0,1,.11-.12h.5a.11.11,0,0,1,.12.12v.64a.11.11,0,0,1-.12.11Zm.06,6.89a.11.11,0,0,1-.11-.12V27.21a.11.11,0,0,1,.11-.12h.39a.11.11,0,0,1,.11.12v5.21a.11.11,0,0,1-.11.12Z"/><path class="cls-1" d="M71.27,32.54a.11.11,0,0,1-.11-.12v-.64h0a1.69,1.69,0,0,1-1.58.87c-1.21,0-1.88-.75-1.88-2.07V27.21a.11.11,0,0,1,.11-.12h.39a.11.11,0,0,1,.11.12v3.22c0,1.1.46,1.63,1.4,1.63a1.42,1.42,0,0,0,1.46-1.52V27.21a.11.11,0,0,1,.11-.12h.39a.11.11,0,0,1,.11.12v5.21a.11.11,0,0,1-.11.12Z"/><path class="cls-1" d="M81,32.54a.11.11,0,0,1-.11-.12V29.21c0-1.08-.49-1.63-1.44-1.63A1.42,1.42,0,0,0,78,29.09v3.33a.11.11,0,0,1-.11.12h-.39a.11.11,0,0,1-.11-.12V29.21c0-1.08-.48-1.63-1.43-1.63a1.43,1.43,0,0,0-1.48,1.52v3.33a.11.11,0,0,1-.11.12H74a.11.11,0,0,1-.11-.12V27.21a.11.11,0,0,1,.11-.12h.39a.11.11,0,0,1,.11.12v.65h0A1.71,1.71,0,0,1,76.12,27a1.66,1.66,0,0,1,1.69,1h0a1.85,1.85,0,0,1,1.79-1,1.83,1.83,0,0,1,1.94,2.07v3.36a.11.11,0,0,1-.11.12Z"/><path class="cls-1" d="M83.51,31.54H84a.11.11,0,0,1,.11.11v.85a.45.45,0,0,1-.06.25l-.44.88a.14.14,0,0,1-.14.09c-.06,0-.08,0-.08-.1v-2A.11.11,0,0,1,83.51,31.54Z"/><path class="cls-1" d="M93.28,32.54a.13.13,0,0,1-.14-.12l-1.41-4.34h0l-1.44,4.34c0,.08-.06.12-.14.12H89.8c-.08,0-.11,0-.14-.12L88,27.21c0-.07,0-.12.08-.12h.41c.08,0,.11,0,.15.12L90,31.56h0l1.41-4.35c0-.07.06-.12.14-.12h.33a.15.15,0,0,1,.14.12l1.44,4.35h0l1.36-4.35c0-.08.07-.12.15-.12h.41c.08,0,.1,0,.08.12l-1.7,5.21a.13.13,0,0,1-.14.12Z"/><path class="cls-1" d="M96.79,31.24a5.6,5.6,0,0,1,0-2.84,2.17,2.17,0,0,1,4.07,0,4.43,4.43,0,0,1,.18,1.41,4.46,4.46,0,0,1-.18,1.42,2.17,2.17,0,0,1-4.07,0Zm3.48-.19a3.68,3.68,0,0,0,.15-1.23,3.66,3.66,0,0,0-.15-1.22,1.53,1.53,0,0,0-2.89,0,3.7,3.7,0,0,0-.15,1.22A3.72,3.72,0,0,0,97.38,31a1.53,1.53,0,0,0,2.89,0Z"/><path class="cls-1" d="M102.6,31.24a5.61,5.61,0,0,1,0-2.84,2.17,2.17,0,0,1,4.07,0,4.43,4.43,0,0,1,.18,1.41,4.46,4.46,0,0,1-.18,1.42,2.17,2.17,0,0,1-4.07,0Zm3.48-.19a3.68,3.68,0,0,0,.15-1.23,3.66,3.66,0,0,0-.15-1.22,1.53,1.53,0,0,0-2.89,0,3.7,3.7,0,0,0-.15,1.22,3.72,3.72,0,0,0,.15,1.23,1.53,1.53,0,0,0,2.89,0Z"/><path class="cls-1" d="M112.05,32.54a.11.11,0,0,1-.11-.12v-.66h0a1.68,1.68,0,0,1-1.65.89,1.75,1.75,0,0,1-1.85-1.3,4.73,4.73,0,0,1-.19-1.53,4.77,4.77,0,0,1,.19-1.54,1.75,1.75,0,0,1,1.85-1.3,1.68,1.68,0,0,1,1.65.89h0v-3a.11.11,0,0,1,.11-.12h.39a.11.11,0,0,1,.11.12v7.53a.11.11,0,0,1-.11.12Zm-.26-1.44a4,4,0,0,0,.15-1.28,4,4,0,0,0-.15-1.29,1.49,1.49,0,0,0-2.78,0,4.3,4.3,0,0,0-.15,1.29A4.28,4.28,0,0,0,109,31.1a1.49,1.49,0,0,0,2.78,0Z"/></g></g></svg>