<svg viewBox="0 0 115.51 34.7" xmlns="http://www.w3.org/2000/svg"><g fill="#fff"><path d="m3.37.14c0-.09.07-.14.17-.14h.93a.18.18 0 0 1 .18.14l3.35 9.42a.1.1 0 0 1 -.1.14h-1a.17.17 0 0 1 -.19-.14l-.71-2.11h-4l-.71 2.11a.19.19 0 0 1 -.19.14h-1a.1.1 0 0 1 -.1-.14zm2.17 6.14-1.54-4.41-1.55 4.41z"/><path d="m9.53.14a.13.13 0 0 1 .14-.14h1a.13.13 0 0 1 .14.14v9.42a.13.13 0 0 1 -.14.14h-1a.13.13 0 0 1 -.14-.14z"/><path d="m13.2.14a.14.14 0 0 1 .14-.14h1a.13.13 0 0 1 .14.14v8.29a.08.08 0 0 0 .09.08h4.62a.14.14 0 0 1 .14.14v.9a.14.14 0 0 1 -.14.14h-5.85a.14.14 0 0 1 -.14-.14z"/><path d="m20.88.14a.13.13 0 0 1 .12-.14h5.83a.14.14 0 0 1 .17.14v.86a.13.13 0 0 1 -.14.14h-4.63a.08.08 0 0 0 -.09.09v2.89a.08.08 0 0 0 .09.09h3.92a.14.14 0 0 1 .14.14v.9a.14.14 0 0 1 -.14.14h-3.92a.08.08 0 0 0 -.09.08v3a.08.08 0 0 0 .09.08h4.62a.14.14 0 0 1 .14.14v.9a.14.14 0 0 1 -.14.14h-5.85a.13.13 0 0 1 -.14-.14z"/><path d="m32.17 11.41a.13.13 0 0 1 0-.2l.58-.58a.13.13 0 0 1 .21 0 2.28 2.28 0 0 0 1.61.68c1.13 0 1.73-.58 1.73-1.84v-.8a2 2 0 0 1 -1.9.94 2.24 2.24 0 0 1 -2.29-1.61 5.33 5.33 0 0 1 -.23-1.8 5.34 5.34 0 0 1 .23-1.8 2.24 2.24 0 0 1 2.29-1.65 2 2 0 0 1 1.9.94v-.69a.13.13 0 0 1 .14-.14h.91a.13.13 0 0 1 .14.14v6.4a2.71 2.71 0 0 1 -3 3 3.08 3.08 0 0 1 -2.32-.99zm4-3.92a4.15 4.15 0 0 0 .16-1.33 4.22 4.22 0 0 0 -.16-1.33 1.54 1.54 0 0 0 -2.89 0 4.29 4.29 0 0 0 -.17 1.33 4.22 4.22 0 0 0 .17 1.33 1.39 1.39 0 0 0 1.44 1 1.41 1.41 0 0 0 1.44-1z"/><path d="m40 9.7a.13.13 0 0 1 -.14-.14v-6.56a.13.13 0 0 1 .14-.13h.91a.13.13 0 0 1 .14.14v.7a1.9 1.9 0 0 1 1.81-1 2.11 2.11 0 0 1 1.4.51c.07.07.09.13 0 .2l-.53.7a.13.13 0 0 1 -.2 0 1.92 1.92 0 0 0 -1.06-.33c-1 0-1.47.81-1.47 2v3.77a.13.13 0 0 1 -.14.14z"/><path d="m45.27 8a5.14 5.14 0 0 1 -.27-1.72 5.09 5.09 0 0 1 .23-1.72 2.89 2.89 0 0 1 5.39 0 5.06 5.06 0 0 1 .23 1.72 5.1 5.1 0 0 1 -.19 1.72 2.89 2.89 0 0 1 -5.39 0zm4.24-.34a4.48 4.48 0 0 0 .16-1.4 4.37 4.37 0 0 0 -.16-1.38 1.64 1.64 0 0 0 -3.08 0 4.38 4.38 0 0 0 -.16 1.38 4.48 4.48 0 0 0 .16 1.4 1.64 1.64 0 0 0 3.08 0z"/><path d="m57.11 9.7a.14.14 0 0 1 -.11-.14v-.65a2.08 2.08 0 0 1 -1.87.94 2.3 2.3 0 0 1 -2.37-2.58v-4.27a.13.13 0 0 1 .14-.14h.91a.13.13 0 0 1 .14.14v4c0 1.11.5 1.75 1.51 1.75a1.51 1.51 0 0 0 1.54-1.69v-4.06a.14.14 0 0 1 .14-.14h.86a.14.14 0 0 1 .14.14v6.56a.14.14 0 0 1 -.14.14z"/><path d="m60.66 12.26a.14.14 0 0 1 -.14-.14v-9.12a.13.13 0 0 1 .14-.14h.91a.13.13 0 0 1 .14.14v.64a2.07 2.07 0 0 1 1.94-.94 2.25 2.25 0 0 1 2.35 1.65 5.64 5.64 0 0 1 .24 1.93 5.66 5.66 0 0 1 -.24 1.93 2.25 2.25 0 0 1 -2.35 1.64 2.08 2.08 0 0 1 -1.94-1v3.22a.13.13 0 0 1 -.14.14zm4.22-4.56a4.72 4.72 0 0 0 .12-1.42 4.84 4.84 0 0 0 -.16-1.43 1.62 1.62 0 0 0 -3 0 4.45 4.45 0 0 0 -.16 1.43 4.39 4.39 0 0 0 .16 1.43 1.61 1.61 0 0 0 3 0z"/><path d="m5.35 21.12a.13.13 0 0 1 -.13-.12l-1.4-4.29-1.43 4.29c0 .08-.06.11-.14.11h-.33c-.08 0-.11 0-.14-.11l-1.67-5.14c0-.07 0-.11.08-.11h.4c.08 0 .11 0 .15.11l1.37 4.29 1.4-4.29c0-.07.06-.11.14-.11h.35a.14.14 0 0 1 .13.11l1.42 4.29 1.34-4.29c0-.08.07-.11.15-.11h.41c.08 0 .1 0 .08.11l-1.69 5.14a.13.13 0 0 1 -.14.11z"/><path d="m9 14.32a.11.11 0 0 1 -.11-.11v-.63a.1.1 0 0 1 .11-.12h.5a.11.11 0 0 1 .11.11v.63a.11.11 0 0 1 -.11.11zm.06 6.8a.11.11 0 0 1 -.06-.12v-5.14a.11.11 0 0 1 .11-.11h.38a.11.11 0 0 1 .11.11v5.14a.11.11 0 0 1 -.11.11z"/><path d="m15.25 21.12a.11.11 0 0 1 -.11-.11v-3.18c0-1.07-.47-1.61-1.41-1.61a1.41 1.41 0 0 0 -1.46 1.5v3.28a.11.11 0 0 1 -.11.11h-.38a.11.11 0 0 1 -.11-.11v-5.14a.11.11 0 0 1 .11-.11h.38a.11.11 0 0 1 .11.11v.64a1.69 1.69 0 0 1 1.59-.87 1.79 1.79 0 0 1 1.88 2v3.37a.11.11 0 0 1 -.11.11z"/><path d="m21.15 21.12a.11.11 0 0 1 -.15-.12v-.65a1.66 1.66 0 0 1 -1.63.88 1.73 1.73 0 0 1 -1.82-1.28 4.68 4.68 0 0 1 -.19-1.51 4.68 4.68 0 0 1 .19-1.52 1.73 1.73 0 0 1 1.82-1.28 1.66 1.66 0 0 1 1.63.88v-2.95a.11.11 0 0 1 .11-.11h.38a.11.11 0 0 1 .11.11v7.43a.11.11 0 0 1 -.11.11zm-.26-1.42a3.89 3.89 0 0 0 .11-1.26 4 4 0 0 0 -.15-1.27 1.32 1.32 0 0 0 -1.37-.95 1.33 1.33 0 0 0 -1.37.95 4.23 4.23 0 0 0 -.11 1.27 4.2 4.2 0 0 0 .15 1.26 1.33 1.33 0 0 0 1.37.95 1.32 1.32 0 0 0 1.37-.95z"/><path d="m23.53 19.83a4.43 4.43 0 0 1 -.18-1.41 4.42 4.42 0 0 1 .18-1.4 2.14 2.14 0 0 1 4 0 4.42 4.42 0 0 1 .18 1.4 4.43 4.43 0 0 1 -.18 1.41 2.14 2.14 0 0 1 -4 0zm3.47-.19a3.67 3.67 0 0 0 .15-1.22 3.65 3.65 0 0 0 -.15-1.2 1.51 1.51 0 0 0 -2.85 0 3.65 3.65 0 0 0 -.15 1.21 3.67 3.67 0 0 0 .15 1.22 1.51 1.51 0 0 0 2.85 0z"/><path d="m34.06 21.12a.13.13 0 0 1 -.13-.11l-1.4-4.29-1.43 4.28c0 .08-.06.11-.14.11h-.34c-.08 0-.11 0-.13-.11l-1.68-5.14c0-.07 0-.11.08-.11h.41c.08 0 .11 0 .15.11l1.37 4.29 1.4-4.29c0-.07.06-.11.14-.11h.33a.14.14 0 0 1 .13.11l1.42 4.29 1.34-4.29c0-.08.07-.11.15-.11h.41c.08 0 .1 0 .08.11l-1.68 5.14a.13.13 0 0 1 -.13.11z"/><path d="m37.18 20.48a.11.11 0 0 1 0-.16l.25-.28a.12.12 0 0 1 .16 0 2.76 2.76 0 0 0 1.74.63c.93 0 1.4-.42 1.4-1s-.24-.83-1.23-.95l-.5-.09c-1-.1-1.56-.59-1.56-1.43s.71-1.57 1.89-1.57a3.31 3.31 0 0 1 1.79.52.11.11 0 0 1 0 .16l-.2.27a.11.11 0 0 1 -.16 0 3.18 3.18 0 0 0 -1.49-.42c-.82 0-1.25.36-1.25 1s.33.81 1.24.9l.54.06c1 .1 1.55.61 1.55 1.44 0 1-.72 1.68-2.06 1.68a3.25 3.25 0 0 1 -2.11-.76z"/><path d="m42.93 20.14h.48a.11.11 0 0 1 .11.11v.85a.46.46 0 0 1 -.06.25l-.44.87a.14.14 0 0 1 -.13.09c-.06 0-.08 0-.08-.1v-1.96a.11.11 0 0 1 .12-.11z"/><path d="m51.32 21.12a.11.11 0 0 1 -.12-.12v-.65a1.66 1.66 0 0 1 -1.63.88 1.73 1.73 0 0 1 -1.82-1.28 4.68 4.68 0 0 1 -.19-1.51 4.68 4.68 0 0 1 .19-1.52 1.73 1.73 0 0 1 1.82-1.28 1.66 1.66 0 0 1 1.63.88v-2.95a.11.11 0 0 1 .11-.11h.38a.11.11 0 0 1 .11.11v7.43a.11.11 0 0 1 -.11.11zm-.26-1.42a3.89 3.89 0 0 0 .15-1.26 4 4 0 0 0 -.15-1.27 1.47 1.47 0 0 0 -2.75 0 4.23 4.23 0 0 0 -.15 1.27 4.2 4.2 0 0 0 .15 1.26 1.47 1.47 0 0 0 2.75 0z"/><path d="m53.7 19.83a4.43 4.43 0 0 1 -.18-1.41 4.42 4.42 0 0 1 .18-1.42 2.14 2.14 0 0 1 4 0 4.42 4.42 0 0 1 .18 1.4 4.43 4.43 0 0 1 -.18 1.41 2.14 2.14 0 0 1 -4 0zm3.43-.19a3.67 3.67 0 0 0 .15-1.22 3.65 3.65 0 0 0 -.15-1.21 1.51 1.51 0 0 0 -2.85 0 3.65 3.65 0 0 0 -.15 1.21 3.67 3.67 0 0 0 .15 1.22 1.51 1.51 0 0 0 2.85 0z"/><path d="m59.42 19.83a4.47 4.47 0 0 1 -.18-1.41 4.45 4.45 0 0 1 .18-1.4 2.14 2.14 0 0 1 4 0 4.42 4.42 0 0 1 .18 1.4 4.43 4.43 0 0 1 -.18 1.41 2.14 2.14 0 0 1 -4 0zm3.43-.19a3.67 3.67 0 0 0 .15-1.21 3.65 3.65 0 0 0 -.15-1.21 1.51 1.51 0 0 0 -2.85 0 3.65 3.65 0 0 0 -.15 1.21 3.67 3.67 0 0 0 .15 1.21 1.51 1.51 0 0 0 2.85 0z"/><path d="m65.44 21.12a.11.11 0 0 1 -.11-.11v-5.15a.11.11 0 0 1 .11-.11h.38a.11.11 0 0 1 .11.11v.69a1.44 1.44 0 0 1 1.44-.91 1.67 1.67 0 0 1 1.08.37.09.09 0 0 1 0 .15l-.23.31a.12.12 0 0 1 -.17 0 1.56 1.56 0 0 0 -.86-.27c-.95 0-1.31.82-1.31 1.81v3a.11.11 0 0 1 -.11.11z"/><path d="m69.28 20.48a.11.11 0 0 1 0-.16l.25-.28a.12.12 0 0 1 .16 0 2.76 2.76 0 0 0 1.74.63c.93 0 1.4-.42 1.4-1s-.24-.83-1.23-.95l-.54-.06c-1-.1-1.56-.59-1.56-1.43s.71-1.57 1.89-1.57a3.31 3.31 0 0 1 1.79.52.11.11 0 0 1 0 .16l-.2.27a.11.11 0 0 1 -.16 0 3.18 3.18 0 0 0 -1.49-.42c-.82 0-1.25.36-1.25 1s.33.81 1.24.9l.54.06c1 .1 1.55.61 1.55 1.44 0 1-.72 1.68-2.06 1.68a3.25 3.25 0 0 1 -2.07-.79z"/><path d="m75 20.14h.48a.11.11 0 0 1 .11.11v.85a.46.46 0 0 1 -.06.25l-.44.87a.14.14 0 0 1 -.13.09c-.06 0-.08 0-.08-.1v-1.96a.11.11 0 0 1 .12-.11z"/><path d="m80.3 21.12a.11.11 0 0 1 -.11-.11v-4.66a.06.06 0 0 0 -.07-.07h-.57a.11.11 0 0 1 -.11-.11v-.31a.11.11 0 0 1 .11-.11h.57a.06.06 0 0 0 .07-.07v-.57c0-1.28.41-1.64 1.5-1.64h.31a.11.11 0 0 1 .11.11v.36a.11.11 0 0 1 -.11.06h-.24c-.82 0-1 .17-1 1v.65a.06.06 0 0 0 .07.07h1.17a.11.11 0 0 1 .11.11v.31a.11.11 0 0 1 -.11.11h-1.13a.06.06 0 0 0 -.07.07v4.68a.11.11 0 0 1 -.11.11z"/><path d="m83.9 16.6a.11.11 0 0 1 -.17 0l-.19-.28a.11.11 0 0 1 0-.16 2.59 2.59 0 0 1 1.71-.52c1.4 0 2 .46 2 1.78v3.58a.11.11 0 0 1 -.11.11h-.36a.11.11 0 0 1 -.11-.11v-.56a1.73 1.73 0 0 1 -1.67.79c-1.08 0-1.8-.54-1.8-1.59s.73-1.59 2-1.59h1.36a.06.06 0 0 0 .07-.07v-.55c0-.88-.3-1.24-1.4-1.24a2 2 0 0 0 -1.33.41zm2.75 2.86v-.82a.06.06 0 0 0 -.07-.07h-1.28c-1.07 0-1.52.35-1.52 1.06s.47 1 1.33 1 1.54-.44 1.54-1.17z"/><path d="m89.05 17a2.13 2.13 0 0 1 3.82-.38.1.1 0 0 1 0 .15l-.31.2a.1.1 0 0 1 -.15 0 1.4 1.4 0 0 0 -1.32-.73 1.37 1.37 0 0 0 -1.41 1 3.67 3.67 0 0 0 -.15 1.2 3.59 3.59 0 0 0 .15 1.19 1.37 1.37 0 0 0 1.41 1 1.4 1.4 0 0 0 1.32-.73.1.1 0 0 1 .15 0l.31.2a.1.1 0 0 1 0 .15 2.13 2.13 0 0 1 -3.82-.38 4.74 4.74 0 0 1 -.17-1.4 4.83 4.83 0 0 1 .17-1.47z"/><path d="m94.82 16.6a.11.11 0 0 1 -.17 0l-.19-.28a.11.11 0 0 1 0-.16 2.59 2.59 0 0 1 1.71-.52c1.4 0 2 .46 2 1.78v3.58a.11.11 0 0 1 -.11.11h-.36a.11.11 0 0 1 -.11-.11v-.56a1.73 1.73 0 0 1 -1.67.79c-1.08 0-1.8-.54-1.8-1.59s.73-1.59 2-1.59h1.38a.06.06 0 0 0 .07-.07v-.55c0-.88-.3-1.24-1.4-1.24a2 2 0 0 0 -1.35.41zm2.75 2.86v-.82a.06.06 0 0 0 -.07-.07h-1.29c-1.07 0-1.52.35-1.52 1.06s.47 1 1.33 1 1.54-.44 1.54-1.17z"/><path d="m103.57 21.12a.11.11 0 0 1 -.11-.11v-.65a1.66 1.66 0 0 1 -1.63.88 1.73 1.73 0 0 1 -1.83-1.29 4.68 4.68 0 0 1 -.19-1.51 4.68 4.68 0 0 1 .19-1.52 1.73 1.73 0 0 1 1.82-1.28 1.66 1.66 0 0 1 1.63.88v-2.95a.11.11 0 0 1 .11-.11h.44a.11.11 0 0 1 .11.11v7.43a.11.11 0 0 1 -.11.11zm-.26-1.42a3.93 3.93 0 0 0 .15-1.26 4 4 0 0 0 -.15-1.27 1.47 1.47 0 0 0 -2.75 0 4.23 4.23 0 0 0 -.15 1.27 4.2 4.2 0 0 0 .15 1.26 1.47 1.47 0 0 0 2.75 0z"/><path d="m105.93 19.81a4.42 4.42 0 0 1 -.16-1.38 4.57 4.57 0 0 1 .16-1.4 2.13 2.13 0 0 1 4 0 4.26 4.26 0 0 1 .16 1.43.11.11 0 0 1 -.12.11h-3.5s-.07 0-.07.08a2.89 2.89 0 0 0 .11.95 1.48 1.48 0 0 0 1.52 1 1.83 1.83 0 0 0 1.5-.69.1.1 0 0 1 .16 0l.26.24a.1.1 0 0 1 0 .16 2.37 2.37 0 0 1 -2 .9 2 2 0 0 1 -2.02-1.4zm3.47-1.76a.06.06 0 0 0 .07-.07 2.53 2.53 0 0 0 -.1-.78 1.52 1.52 0 0 0 -2.87 0 2.48 2.48 0 0 0 -.1.78.06.06 0 0 0 .07.07z"/><path d="m111.36 20.48a.11.11 0 0 1 0-.16l.25-.28a.12.12 0 0 1 .16 0 2.76 2.76 0 0 0 1.74.63c.93 0 1.4-.42 1.4-1s-.24-.83-1.23-.95l-.54-.06c-1-.1-1.56-.59-1.56-1.43s.71-1.57 1.89-1.57a3.31 3.31 0 0 1 1.79.52.11.11 0 0 1 0 .16l-.2.27a.11.11 0 0 1 -.16 0 3.18 3.18 0 0 0 -1.49-.42c-.82 0-1.25.36-1.25 1s.33.81 1.24.9l.54.06c1 .1 1.55.61 1.55 1.44 0 1-.72 1.68-2.06 1.68a3.25 3.25 0 0 1 -2.07-.79z"/><path d="m.59 33.92a.11.11 0 0 1 0-.16l.29-.25a.1.1 0 0 1 .16 0 1.72 1.72 0 0 0 1.35.58c1 0 1.55-.48 1.55-1.65v-.79a1.59 1.59 0 0 1 -1.61.89 1.78 1.78 0 0 1 -1.81-1.3 4.74 4.74 0 0 1 -.18-1.48 4.73 4.73 0 0 1 .18-1.48 1.79 1.79 0 0 1 1.82-1.28 1.58 1.58 0 0 1 1.61.89h.05v-.66a.11.11 0 0 1 .11-.12h.39a.11.11 0 0 1 .11.12v5.22a2 2 0 0 1 -2.22 2.25 2.22 2.22 0 0 1 -1.8-.78zm3.23-2.92a3.91 3.91 0 0 0 .18-1.23 3.9 3.9 0 0 0 -.14-1.24 1.31 1.31 0 0 0 -1.36-1 1.3 1.3 0 0 0 -1.34.95 3.72 3.72 0 0 0 -.16 1.29 3.65 3.65 0 0 0 .13 1.23 1.3 1.3 0 0 0 1.34 1 1.33 1.33 0 0 0 1.35-1z"/><path d="m7.79 32.57c-.82 0-1.13-.37-1.13-1.28v-6.4a.11.11 0 0 1 .12-.12h.39a.11.11 0 0 1 .12.12v6.38c0 .54.17.71.58.71h.19a.11.11 0 0 1 .11.12v.36a.11.11 0 0 1 -.11.11z"/><path d="m10.1 28a.11.11 0 0 1 -.17 0l-.19-.28a.11.11 0 0 1 0-.16 2.63 2.63 0 0 1 1.77-.56c1.41 0 2 .47 2 1.8v3.64a.11.11 0 0 1 -.11.12h-.4a.11.11 0 0 1 -.12-.12v-.57a1.75 1.75 0 0 1 -1.69.8c-1.1 0-1.83-.55-1.83-1.61s.74-1.61 2.06-1.61h1.38a.06.06 0 0 0 .07-.07v-.56c0-.89-.31-1.26-1.41-1.26a2 2 0 0 0 -1.36.44zm2.78 2.9v-.9a.06.06 0 0 0 -.07-.07h-1.3c-1.08.07-1.51.38-1.51 1.07s.48 1 1.35 1 1.54-.4 1.54-1.14z"/><path d="m15.1 31.89a.11.11 0 0 1 0-.16l.25-.29a.12.12 0 0 1 .16 0 2.82 2.82 0 0 0 1.77.64c.95 0 1.41-.42 1.41-1s-.24-.84-1.24-1l-.54-.08c-1-.1-1.59-.59-1.59-1.45s.68-1.55 1.92-1.55a3.35 3.35 0 0 1 1.81.52.11.11 0 0 1 0 .16l-.2.27a.11.11 0 0 1 -.16 0 3.19 3.19 0 0 0 -1.51-.42c-.83 0-1.27.37-1.27 1s.33.82 1.25.91l.55.06c1.06.1 1.57.61 1.57 1.46 0 1-.73 1.7-2.09 1.7a3.29 3.29 0 0 1 -2.09-.77z"/><path d="m20.6 31.89a.11.11 0 0 1 0-.16l.25-.29a.12.12 0 0 1 .16 0 2.82 2.82 0 0 0 1.77.64c.95 0 1.41-.42 1.41-1s-.24-.84-1.24-1l-.55-.08c-1-.1-1.59-.59-1.59-1.45s.72-1.55 1.92-1.55a3.35 3.35 0 0 1 1.81.52.11.11 0 0 1 0 .16l-.2.27a.11.11 0 0 1 -.16 0 3.19 3.19 0 0 0 -1.51-.42c-.83 0-1.27.37-1.27 1s.33.82 1.25.91l.55.06c1.06.1 1.57.61 1.57 1.46 0 1-.73 1.7-2.09 1.7a3.29 3.29 0 0 1 -2.08-.77z"/><path d="m26.43 31.54h.49a.11.11 0 0 1 .11.11v.85a.45.45 0 0 1 -.06.25l-.44.88a.14.14 0 0 1 -.14.09c-.06 0-.08 0-.08-.1v-2a.11.11 0 0 1 .12-.08z"/><path d="m31.92 28a.11.11 0 0 1 -.17 0l-.19-.28a.12.12 0 0 1 0-.16 2.63 2.63 0 0 1 1.77-.56c1.41 0 2 .47 2 1.8v3.64a.11.11 0 0 1 -.12.12h-.36a.11.11 0 0 1 -.11-.12v-.57a1.75 1.75 0 0 1 -1.69.8c-1.1 0-1.83-.55-1.83-1.61s.74-1.61 2.07-1.61h1.38a.06.06 0 0 0 .07-.07v-.56c0-.89-.31-1.26-1.41-1.26a2 2 0 0 0 -1.41.44zm2.78 2.9v-.9a.06.06 0 0 0 -.07-.07h-1.3c-1.08 0-1.54.36-1.54 1.07s.48 1 1.34 1 1.58-.4 1.58-1.14z"/><path d="m38.47 32.57c-.82 0-1.13-.37-1.13-1.28v-6.4a.11.11 0 0 1 .12-.12h.39a.11.11 0 0 1 .12.12v6.38c0 .54.17.71.58.71h.19a.11.11 0 0 1 .11.12v.36a.11.11 0 0 1 -.11.11z"/><path d="m43.84 32.54a.11.11 0 0 1 -.12-.12v-.64a1.69 1.69 0 0 1 -1.59.87c-1.21 0-1.88-.75-1.88-2.07v-3.37a.11.11 0 0 1 .11-.12h.39a.11.11 0 0 1 .11.12v3.22c0 1.1.46 1.63 1.4 1.63a1.42 1.42 0 0 0 1.46-1.52v-3.33a.11.11 0 0 1 .12-.12h.39a.11.11 0 0 1 .12.12v5.21a.11.11 0 0 1 -.12.12z"/><path d="m53.61 32.54a.11.11 0 0 1 -.11-.12v-3.21c0-1.08-.49-1.63-1.44-1.63a1.42 1.42 0 0 0 -1.47 1.52v3.33a.11.11 0 0 1 -.12.12h-.39a.11.11 0 0 1 -.12-.12v-3.22c0-1.08-.48-1.63-1.43-1.63a1.43 1.43 0 0 0 -1.48 1.52v3.33a.11.11 0 0 1 -.11.12h-.39a.11.11 0 0 1 -.11-.12v-5.22a.11.11 0 0 1 .11-.12h.45a.11.11 0 0 1 .11.12v.65a1.71 1.71 0 0 1 1.58-.86 1.66 1.66 0 0 1 1.69 1 1.85 1.85 0 0 1 1.79-1 1.83 1.83 0 0 1 1.94 2.07v3.36a.11.11 0 0 1 -.11.12z"/><path d="m56.21 25.65a.11.11 0 0 1 -.12-.11v-.64a.11.11 0 0 1 .12-.12h.5a.11.11 0 0 1 .11.12v.64a.11.11 0 0 1 -.11.11zm.06 6.89a.11.11 0 0 1 -.11-.12v-5.21a.11.11 0 0 1 .11-.12h.39a.11.11 0 0 1 .11.12v5.21a.11.11 0 0 1 -.11.12z"/><path d="m62.51 32.54a.11.11 0 0 1 -.11-.12v-3.21c0-1.08-.48-1.63-1.43-1.63a1.43 1.43 0 0 0 -1.48 1.52v3.33a.11.11 0 0 1 -.11.12h-.38a.11.11 0 0 1 -.11-.12v-5.22a.11.11 0 0 1 .11-.12h.39a.11.11 0 0 1 .11.12v.65a1.71 1.71 0 0 1 1.61-.86 1.81 1.81 0 0 1 1.89 2.06v3.36a.11.11 0 0 1 -.11.12z"/><path d="m65.11 25.65a.11.11 0 0 1 -.11-.11v-.64a.11.11 0 0 1 .11-.12h.5a.11.11 0 0 1 .12.12v.64a.11.11 0 0 1 -.12.11zm.06 6.89a.11.11 0 0 1 -.11-.12v-5.21a.11.11 0 0 1 .11-.12h.39a.11.11 0 0 1 .11.12v5.21a.11.11 0 0 1 -.11.12z"/><path d="m71.27 32.54a.11.11 0 0 1 -.11-.12v-.64a1.69 1.69 0 0 1 -1.58.87c-1.21 0-1.88-.75-1.88-2.07v-3.37a.11.11 0 0 1 .11-.12h.39a.11.11 0 0 1 .11.12v3.22c0 1.1.46 1.63 1.4 1.63a1.42 1.42 0 0 0 1.46-1.52v-3.33a.11.11 0 0 1 .11-.12h.39a.11.11 0 0 1 .11.12v5.21a.11.11 0 0 1 -.11.12z"/><path d="m81 32.54a.11.11 0 0 1 -.11-.12v-3.21c0-1.08-.49-1.63-1.44-1.63a1.42 1.42 0 0 0 -1.45 1.51v3.33a.11.11 0 0 1 -.11.12h-.39a.11.11 0 0 1 -.11-.12v-3.21c0-1.08-.48-1.63-1.43-1.63a1.43 1.43 0 0 0 -1.48 1.52v3.33a.11.11 0 0 1 -.11.12h-.37a.11.11 0 0 1 -.11-.12v-5.22a.11.11 0 0 1 .11-.12h.39a.11.11 0 0 1 .11.12v.65a1.71 1.71 0 0 1 1.62-.86 1.66 1.66 0 0 1 1.69 1 1.85 1.85 0 0 1 1.79-1 1.83 1.83 0 0 1 1.94 2.07v3.36a.11.11 0 0 1 -.11.12z"/><path d="m83.51 31.54h.49a.11.11 0 0 1 .11.11v.85a.45.45 0 0 1 -.06.25l-.44.88a.14.14 0 0 1 -.14.09c-.06 0-.08 0-.08-.1v-2a.11.11 0 0 1 .12-.08z"/><path d="m93.28 32.54a.13.13 0 0 1 -.14-.12l-1.41-4.34-1.44 4.34c0 .08-.06.12-.14.12h-.35c-.08 0-.11 0-.14-.12l-1.66-5.21c0-.07 0-.12.08-.12h.41c.08 0 .11 0 .15.12l1.36 4.35 1.41-4.35c0-.07.06-.12.14-.12h.33a.15.15 0 0 1 .14.12l1.44 4.35 1.36-4.35c0-.08.07-.12.15-.12h.41c.08 0 .1 0 .08.12l-1.7 5.21a.13.13 0 0 1 -.14.12z"/><path d="m96.79 31.24a5.6 5.6 0 0 1 0-2.84 2.17 2.17 0 0 1 4.07 0 4.43 4.43 0 0 1 .18 1.41 4.46 4.46 0 0 1 -.18 1.42 2.17 2.17 0 0 1 -4.07 0zm3.48-.19a3.68 3.68 0 0 0 .15-1.23 3.66 3.66 0 0 0 -.15-1.22 1.53 1.53 0 0 0 -2.89 0 3.7 3.7 0 0 0 -.15 1.22 3.72 3.72 0 0 0 .15 1.18 1.53 1.53 0 0 0 2.89 0z"/><path d="m102.6 31.24a5.61 5.61 0 0 1 0-2.84 2.17 2.17 0 0 1 4.07 0 4.43 4.43 0 0 1 .18 1.41 4.46 4.46 0 0 1 -.18 1.42 2.17 2.17 0 0 1 -4.07 0zm3.48-.19a3.68 3.68 0 0 0 .15-1.23 3.66 3.66 0 0 0 -.15-1.22 1.53 1.53 0 0 0 -2.89 0 3.7 3.7 0 0 0 -.15 1.22 3.72 3.72 0 0 0 .15 1.23 1.53 1.53 0 0 0 2.89 0z"/><path d="m112.05 32.54a.11.11 0 0 1 -.11-.12v-.66a1.68 1.68 0 0 1 -1.65.89 1.75 1.75 0 0 1 -1.85-1.3 4.73 4.73 0 0 1 -.19-1.53 4.77 4.77 0 0 1 .19-1.54 1.75 1.75 0 0 1 1.85-1.3 1.68 1.68 0 0 1 1.65.89v-3a.11.11 0 0 1 .11-.12h.39a.11.11 0 0 1 .11.12v7.53a.11.11 0 0 1 -.11.12zm-.26-1.44a4 4 0 0 0 .15-1.28 4 4 0 0 0 -.15-1.29 1.49 1.49 0 0 0 -2.78 0 4.3 4.3 0 0 0 -.15 1.29 4.28 4.28 0 0 0 .14 1.28 1.49 1.49 0 0 0 2.78 0z"/></g></svg>