<svg viewBox="0 0 98.95 6.88" xmlns="http://www.w3.org/2000/svg"><g fill="#fff"><path d="m2.34.2a.13.13 0 0 1 .12-.1h.36a.12.12 0 0 1 .12.1l2.32 6.49a.07.07 0 0 1 -.07.1h-.39a.11.11 0 0 1 -.13-.1l-.58-1.69h-2.91l-.6 1.69c0 .08-.07.1-.13.1h-.37a.07.07 0 0 1 -.08-.1zm1.56 4.3-1.25-3.5-1.29 3.5z"/><path d="m14 6.1a.1.1 0 0 1 0-.1l.24-.3a.09.09 0 0 1 .14 0 3.21 3.21 0 0 0 1.92.69c1.03-.04 1.7-.58 1.7-1.39 0-.66-.37-1.14-1.6-1.3h-.3c-1.31-.17-1.93-.79-1.93-1.77a1.86 1.86 0 0 1 2.08-1.93 3.35 3.35 0 0 1 1.91.56.09.09 0 0 1 0 .14l-.16.3a.1.1 0 0 1 -.14 0 3 3 0 0 0 -1.63-.47c-1 0-1.52.53-1.52 1.31s.43 1.16 1.57 1.27h.3c1.36.18 2 .81 2 1.8s-.81 1.94-2.36 1.94a3.62 3.62 0 0 1 -2.22-.75z"/><path d="m27.44 6.1a.1.1 0 0 1 0-.14l.24-.3a.09.09 0 0 1 .14 0 3.21 3.21 0 0 0 1.92.69c1.07 0 1.73-.54 1.73-1.37 0-.66-.37-1.14-1.6-1.3h-.31c-1.31-.17-1.93-.79-1.93-1.77a1.86 1.86 0 0 1 2.09-1.91 3.35 3.35 0 0 1 1.91.56.09.09 0 0 1 0 .14l-.2.31a.1.1 0 0 1 -.14 0 3 3 0 0 0 -1.6-.48c-1 0-1.52.53-1.52 1.31s.44 1.16 1.58 1.27h.3c1.36.18 2 .81 2 1.8s-.81 1.94-2.36 1.94a3.62 3.62 0 0 1 -2.25-.75z"/><path d="m41.13.2a.09.09 0 0 1 .1-.1h3.82a.09.09 0 0 1 .1.1v.33a.09.09 0 0 1 -.1.1h-3.3a.05.05 0 0 0 -.06.06v2.38s0 .06.06.06h2.84a.09.09 0 0 1 .1.1v.33a.09.09 0 0 1 -.1.1h-2.84a.05.05 0 0 0 -.06.06v2.48s0 .06.06.06h3.3a.09.09 0 0 1 .1.1v.33a.09.09 0 0 1 -.1.1h-3.82a.09.09 0 0 1 -.1-.1z"/><path d="m54.2.2a.09.09 0 0 1 .1-.1h.37a.15.15 0 0 1 .15.1l2.18 4.8 2.15-4.8a.15.15 0 0 1 .14-.1h.38a.09.09 0 0 1 .1.1v6.49a.09.09 0 0 1 -.1.1h-.36a.09.09 0 0 1 -.1-.1v-5.23l-1.95 4.23a.16.16 0 0 1 -.18.11h-.2a.16.16 0 0 1 -.17-.11l-1.92-4.23v5.23a.09.09 0 0 1 -.1.1h-.39a.09.09 0 0 1 -.1-.1z"/><path d="m69.2.2a.09.09 0 0 1 .1-.1h2.24c1.27 0 1.95.68 1.95 1.73a1.44 1.44 0 0 1 -1 1.5 1.55 1.55 0 0 1 1.14 1.59c0 1.15-.74 1.84-2.06 1.84h-2.28a.09.09 0 0 1 -.1-.1zm2.33 2.92a1.22 1.22 0 0 0 1.4-1.24c0-.77-.49-1.25-1.4-1.25h-1.71a.05.05 0 0 0 -.06.06v2.37s0 .06.06.06zm-1.71 3.13h1.76c1 0 1.45-.51 1.45-1.3s-.5-1.31-1.45-1.31h-1.76a.05.05 0 0 0 -.06.06v2.5s.01.05.06.05z"/><path d="m82.72.2a.09.09 0 0 1 .1-.1h.36a.09.09 0 0 1 .1.1v6s0 .06.06.06h3.3a.09.09 0 0 1 .1.1v.33a.09.09 0 0 1 -.1.1h-3.82a.09.09 0 0 1 -.1-.1z"/><path d="m96.48 6.78a.09.09 0 0 1 -.1-.1v-2.68l-2-3.84a.08.08 0 0 1 .07-.06h.38c.08 0 .11 0 .15.1l1.68 3.19 1.68-3.19c0-.08.07-.1.15-.1h.37a.08.08 0 0 1 .08.11l-2 3.79v2.69a.09.09 0 0 1 -.1.1z"/></g></svg>