<svg viewBox="0 0 132.75 6.88" xmlns="http://www.w3.org/2000/svg"><g fill="#fff"><path d="m0 .2a.09.09 0 0 1 .1-.1h3.82a.09.09 0 0 1 .08.1v.33a.09.09 0 0 1 -.1.1h-3.28a.05.05 0 0 0 -.06.06v2.38a.05.05 0 0 0 .06.06h2.84a.09.09 0 0 1 .1.1v.33a.09.09 0 0 1 -.1.1h-2.84a.05.05 0 0 0 -.06.06v2.48a.05.05 0 0 0 .06.06h3.3a.09.09 0 0 1 .1.1v.33a.09.09 0 0 1 -.1.1h-3.82a.09.09 0 0 1 -.1-.1z"/><path d="m13.07.2a.09.09 0 0 1 .1-.1h.36a.17.17 0 0 1 .17.1l3.3 5.49v-5.49a.09.09 0 0 1 .1-.1h.36a.09.09 0 0 1 .1.1v6.49a.09.09 0 0 1 -.1.1h-.38a.18.18 0 0 1 -.17-.1l-3.3-5.5v5.5a.09.09 0 0 1 -.1.1h-.36a.09.09 0 0 1 -.1-.1z"/><path d="m26.82 3.44a6.14 6.14 0 0 1 .18-1.94 2.1 2.1 0 0 1 2.19-1.5 2.16 2.16 0 0 1 2.09 1.24.09.09 0 0 1 0 .13l-.31.16a.1.1 0 0 1 -.13 0 1.69 1.69 0 0 0 -1.62-1 1.58 1.58 0 0 0 -1.63 1.13 5.71 5.71 0 0 0 -.16 1.78 5.71 5.71 0 0 0 .16 1.78 1.75 1.75 0 0 0 3.26 0 3.92 3.92 0 0 0 .15-1.22.05.05 0 0 0 -.06-.06h-1.55a.09.09 0 0 1 -.1-.1v-.36a.09.09 0 0 1 .1-.1h2a.09.09 0 0 1 .1.1v.4a5.22 5.22 0 0 1 -.18 1.48 2.1 2.1 0 0 1 -2.16 1.51 2.1 2.1 0 0 1 -2.15-1.49 6.15 6.15 0 0 1 -.18-1.94z"/><path d="m40.66.2a.09.09 0 0 1 .1-.1h.36a.09.09 0 0 1 .1.1v6.49a.09.09 0 0 1 -.1.1h-.36a.09.09 0 0 1 -.1-.1z"/><path d="m50.63.2a.09.09 0 0 1 .1-.1h.36a.17.17 0 0 1 .17.1l3.33 5.49v-5.49a.09.09 0 0 1 .1-.1h.36a.09.09 0 0 1 .1.1v6.49a.09.09 0 0 1 -.1.1h-.35a.18.18 0 0 1 -.17-.1l-3.3-5.5v5.5a.09.09 0 0 1 -.1.1h-.36a.09.09 0 0 1 -.1-.1z"/><path d="m64.6.2a.09.09 0 0 1 .1-.1h3.82a.09.09 0 0 1 .1.1v.33a.09.09 0 0 1 -.1.1h-3.3a.05.05 0 0 0 -.06.06v2.38a.05.05 0 0 0 .06.06h2.84a.09.09 0 0 1 .1.1v.33a.09.09 0 0 1 -.1.1h-2.84a.05.05 0 0 0 -.06.06v2.48a.05.05 0 0 0 .06.06h3.3a.09.09 0 0 1 .1.1v.33a.09.09 0 0 1 -.1.1h-3.83a.09.09 0 0 1 -.1-.1z"/><path d="m77.67.2a.09.09 0 0 1 .1-.1h3.82a.09.09 0 0 1 .1.1v.33a.09.09 0 0 1 -.1.1h-3.3a.05.05 0 0 0 -.06.06v2.38a.05.05 0 0 0 .06.06h2.84a.09.09 0 0 1 .1.1v.33a.09.09 0 0 1 -.1.1h-2.84a.05.05 0 0 0 -.06.06v2.48a.05.05 0 0 0 .06.06h3.3a.09.09 0 0 1 .1.1v.33a.09.09 0 0 1 -.1.1h-3.82a.09.09 0 0 1 -.1-.1z"/><path d="m94.7 6.78c-.06 0-.09 0-.12-.09l-1.41-2.9h-1.82a.05.05 0 0 0 -.06.06v2.84a.09.09 0 0 1 -.1.1h-.36a.09.09 0 0 1 -.1-.1v-6.49a.09.09 0 0 1 .1-.1h2.24a1.81 1.81 0 0 1 2 1.85 1.7 1.7 0 0 1 -1.37 1.77l1.46 3v.11zm-.15-4.84c0-.84-.53-1.32-1.48-1.32h-1.72a.05.05 0 0 0 -.06.06v2.53a.05.05 0 0 0 .06.06h1.71c.94 0 1.49-.48 1.49-1.32z"/><path d="m104.33.2a.09.09 0 0 1 .1-.1h.36a.09.09 0 0 1 .1.1v6.49a.09.09 0 0 1 -.1.1h-.36a.09.09 0 0 1 -.1-.1z"/><path d="m114.29.2a.09.09 0 0 1 .1-.1h.36a.17.17 0 0 1 .17.1l3.33 5.49v-5.49a.09.09 0 0 1 .1-.1h.36a.09.09 0 0 1 .1.1v6.49a.09.09 0 0 1 -.1.1h-.38a.18.18 0 0 1 -.17-.1l-3.3-5.5v5.5a.09.09 0 0 1 -.1.1h-.36a.09.09 0 0 1 -.1-.1z"/><path d="m128 3.44a6.15 6.15 0 0 1 .19-1.94 2.1 2.1 0 0 1 2.22-1.5 2.16 2.16 0 0 1 2.09 1.24.09.09 0 0 1 0 .13l-.31.16a.1.1 0 0 1 -.13 0 1.69 1.69 0 0 0 -1.62-1 1.58 1.58 0 0 0 -1.63 1.13 5.7 5.7 0 0 0 -.16 1.78 5.7 5.7 0 0 0 .16 1.78 1.75 1.75 0 0 0 3.26 0 3.93 3.93 0 0 0 .12-1.22.05.05 0 0 0 -.06-.06h-1.51a.09.09 0 0 1 -.1-.1v-.36a.09.09 0 0 1 .1-.1h2a.09.09 0 0 1 .1.1v.4a5.21 5.21 0 0 1 -.18 1.48 2.32 2.32 0 0 1 -4.35 0 6.16 6.16 0 0 1 -.19-1.92z"/></g></svg>