<svg xmlns="http://www.w3.org/2000/svg" viewBox="0 0 132.75 6.88"><defs><style>.cls-1{fill:#fff;}</style></defs><title>engineering</title><g id="Layer_2" data-name="Layer 2"><g id="Layer_1-2" data-name="Layer 1"><path class="cls-1" d="M0,.2A.09.09,0,0,1,.1.1H3.92A.09.09,0,0,1,4,.2V.53a.09.09,0,0,1-.1.1H.62A.05.05,0,0,0,.56.69V3.07a.05.05,0,0,0,.06.06H3.46a.09.09,0,0,1,.1.1v.33a.09.09,0,0,1-.1.1H.62a.05.05,0,0,0-.06.06V6.2a.05.05,0,0,0,.06.06h3.3a.09.09,0,0,1,.1.1v.33a.09.09,0,0,1-.1.1H.1a.09.09,0,0,1-.1-.1Z"/><path class="cls-1" d="M13.07.2a.09.09,0,0,1,.1-.1h.36a.17.17,0,0,1,.17.1L17,5.69h0V.2a.09.09,0,0,1,.1-.1h.36a.09.09,0,0,1,.1.1V6.69a.09.09,0,0,1-.1.1h-.38a.18.18,0,0,1-.17-.1l-3.3-5.5h0v5.5a.09.09,0,0,1-.1.1h-.36a.09.09,0,0,1-.1-.1Z"/><path class="cls-1" d="M26.82,3.44A6.14,6.14,0,0,1,27,1.5,2.1,2.1,0,0,1,29.19,0a2.16,2.16,0,0,1,2.09,1.24.09.09,0,0,1,0,.13l-.31.16a.1.1,0,0,1-.13,0,1.69,1.69,0,0,0-1.62-1,1.58,1.58,0,0,0-1.63,1.13,5.71,5.71,0,0,0-.16,1.78,5.71,5.71,0,0,0,.16,1.78,1.75,1.75,0,0,0,3.26,0A3.92,3.92,0,0,0,31,4a.05.05,0,0,0-.06-.06H29.39a.09.09,0,0,1-.1-.1V3.48a.09.09,0,0,1,.1-.1h2a.09.09,0,0,1,.1.1v.4a5.22,5.22,0,0,1-.18,1.48,2.1,2.1,0,0,1-2.16,1.51A2.1,2.1,0,0,1,27,5.38,6.15,6.15,0,0,1,26.82,3.44Z"/><path class="cls-1" d="M40.66.2a.09.09,0,0,1,.1-.1h.36a.09.09,0,0,1,.1.1V6.69a.09.09,0,0,1-.1.1h-.36a.09.09,0,0,1-.1-.1Z"/><path class="cls-1" d="M50.63.2a.09.09,0,0,1,.1-.1h.36a.17.17,0,0,1,.17.1l3.33,5.49h0V.2a.09.09,0,0,1,.1-.1h.36a.09.09,0,0,1,.1.1V6.69a.09.09,0,0,1-.1.1H54.7a.18.18,0,0,1-.17-.1l-3.3-5.5h0v5.5a.09.09,0,0,1-.1.1h-.36a.09.09,0,0,1-.1-.1Z"/><path class="cls-1" d="M64.6.2a.09.09,0,0,1,.1-.1h3.82a.09.09,0,0,1,.1.1V.53a.09.09,0,0,1-.1.1h-3.3a.05.05,0,0,0-.06.06V3.07a.05.05,0,0,0,.06.06h2.84a.09.09,0,0,1,.1.1v.33a.09.09,0,0,1-.1.1H65.22a.05.05,0,0,0-.06.06V6.2a.05.05,0,0,0,.06.06h3.3a.09.09,0,0,1,.1.1v.33a.09.09,0,0,1-.1.1H64.69a.09.09,0,0,1-.1-.1Z"/><path class="cls-1" d="M77.67.2a.09.09,0,0,1,.1-.1h3.82a.09.09,0,0,1,.1.1V.53a.09.09,0,0,1-.1.1h-3.3a.05.05,0,0,0-.06.06V3.07a.05.05,0,0,0,.06.06h2.84a.09.09,0,0,1,.1.1v.33a.09.09,0,0,1-.1.1H78.29a.05.05,0,0,0-.06.06V6.2a.05.05,0,0,0,.06.06h3.3a.09.09,0,0,1,.1.1v.33a.09.09,0,0,1-.1.1H77.77a.09.09,0,0,1-.1-.1Z"/><path class="cls-1" d="M94.7,6.78c-.06,0-.09,0-.12-.09l-1.41-2.9H91.35a.05.05,0,0,0-.06.06V6.69a.09.09,0,0,1-.1.1h-.36a.09.09,0,0,1-.1-.1V.2a.09.09,0,0,1,.1-.1h2.24a1.81,1.81,0,0,1,2,1.85,1.7,1.7,0,0,1-1.37,1.77l1.46,3c0,.06,0,.11,0,.11Zm-.15-4.84c0-.84-.53-1.32-1.48-1.32H91.35a.05.05,0,0,0-.06.06V3.21a.05.05,0,0,0,.06.06h1.71C94,3.27,94.55,2.79,94.55,1.95Z"/><path class="cls-1" d="M104.33.2a.09.09,0,0,1,.1-.1h.36a.09.09,0,0,1,.1.1V6.69a.09.09,0,0,1-.1.1h-.36a.09.09,0,0,1-.1-.1Z"/><path class="cls-1" d="M114.29.2a.09.09,0,0,1,.1-.1h.36a.17.17,0,0,1,.17.1l3.33,5.49h0V.2a.09.09,0,0,1,.1-.1h.36a.09.09,0,0,1,.1.1V6.69a.09.09,0,0,1-.1.1h-.38a.18.18,0,0,1-.17-.1l-3.3-5.5h0v5.5a.09.09,0,0,1-.1.1h-.36a.09.09,0,0,1-.1-.1Z"/><path class="cls-1" d="M128,3.44a6.15,6.15,0,0,1,.19-1.94A2.1,2.1,0,0,1,130.41,0a2.16,2.16,0,0,1,2.09,1.24.09.09,0,0,1,0,.13l-.31.16a.1.1,0,0,1-.13,0,1.69,1.69,0,0,0-1.62-1,1.58,1.58,0,0,0-1.63,1.13,5.7,5.7,0,0,0-.16,1.78,5.7,5.7,0,0,0,.16,1.78,1.75,1.75,0,0,0,3.26,0A3.93,3.93,0,0,0,132.19,4a.05.05,0,0,0-.06-.06h-1.51a.09.09,0,0,1-.1-.1V3.48a.09.09,0,0,1,.1-.1h2a.09.09,0,0,1,.1.1v.4a5.21,5.21,0,0,1-.18,1.48,2.32,2.32,0,0,1-4.35,0A6.16,6.16,0,0,1,128,3.44Z"/></g></g></svg>