<svg viewBox="0 0 116.11 34.83" xmlns="http://www.w3.org/2000/svg"><g fill="#fff"><path d="m.52.3a.13.13 0 0 1 .14-.14h.93a.22.22 0 0 1 .23.14l2.89 6.53 2.88-6.53a.22.22 0 0 1 .23-.14h.93a.13.13 0 0 1 .14.14v9.41a.14.14 0 0 1 -.14.14h-.9a.13.13 0 0 1 -.14-.14v-6.71l-2.46 5.3a.24.24 0 0 1 -.25.17h-.57a.25.25 0 0 1 -.27-.17l-2.41-5.3v6.71a.14.14 0 0 1 -.14.14h-.95a.13.13 0 0 1 -.14-.14z"/><path d="m11.3.3a.13.13 0 0 1 .14-.14h3.44c2 0 2.92 1 2.92 2.55a2.09 2.09 0 0 1 -1.3 2.11 2.24 2.24 0 0 1 1.5 2.27c0 1.81-1.14 2.77-3.17 2.77h-3.39a.13.13 0 0 1 -.14-.14zm3.55 4a1.5 1.5 0 0 0 1.7-1.51 1.5 1.5 0 0 0 -1.7-1.53h-2.2a.08.08 0 0 0 -.09.09v2.92a.08.08 0 0 0 .09.08zm-2.2 4.4h2.27c1.16 0 1.78-.63 1.78-1.6a1.56 1.56 0 0 0 -1.78-1.6h-2.27a.08.08 0 0 0 -.09.09v3a.08.08 0 0 0 .09.11z"/><path d="m23.35.3a.13.13 0 0 1 .14-.14h3.44c2 0 2.92 1 2.92 2.55a2.09 2.09 0 0 1 -1.3 2.11 2.24 2.24 0 0 1 1.45 2.27c0 1.81-1.14 2.77-3.17 2.77h-3.34a.13.13 0 0 1 -.14-.14zm3.55 4a1.5 1.5 0 0 0 1.7-1.51 1.5 1.5 0 0 0 -1.7-1.53h-2.2a.08.08 0 0 0 -.09.09v2.92a.08.08 0 0 0 .09.08zm-2.2 4.4h2.3c1.16 0 1.78-.63 1.78-1.6a1.56 1.56 0 0 0 -1.78-1.6h-2.3a.08.08 0 0 0 -.09.09v3a.08.08 0 0 0 .09.11z"/><path d="m32 .3a.13.13 0 0 1 .14-.14h5.83a.13.13 0 0 1 .14.14v.9a.13.13 0 0 1 -.14.14h-4.65a.08.08 0 0 0 -.09.09v2.85a.08.08 0 0 0 .09.09h3.92a.14.14 0 0 1 .14.14v.9a.14.14 0 0 1 -.14.14h-3.92a.08.08 0 0 0 -.09.09v3a.08.08 0 0 0 .09.08h4.62a.14.14 0 0 1 .14.14v.9a.13.13 0 0 1 -.14.14h-5.83a.13.13 0 0 1 -.11-.19z"/><path d="m42.14 9.85a.13.13 0 0 1 -.14-.14v-8.28a.08.08 0 0 0 -.09-.09h-2.65a.13.13 0 0 1 -.14-.14v-.9a.13.13 0 0 1 .14-.14h6.74a.13.13 0 0 1 .14.14v.9a.13.13 0 0 1 -.14.14h-2.64a.08.08 0 0 0 -.09.09v8.28a.13.13 0 0 1 -.14.14z"/><path d="m47.24 7.74a8.32 8.32 0 0 1 -.24-2.74 8.33 8.33 0 0 1 .26-2.74 3.54 3.54 0 0 1 6.6 0 8.33 8.33 0 0 1 .24 2.74 8.32 8.32 0 0 1 -.26 2.74 3.54 3.54 0 0 1 -6.6 0zm5.36-.36a8.37 8.37 0 0 0 .22-2.38 8.34 8.34 0 0 0 -.21-2.38 2.19 2.19 0 0 0 -4.12 0 8.25 8.25 0 0 0 -.22 2.38 8.29 8.29 0 0 0 .21 2.38 2.19 2.19 0 0 0 4.12 0z"/><path d="m56.16.3a.13.13 0 0 1 .14-.14h.91a.23.23 0 0 1 .24.14l4.39 7.27h.06v-7.27a.13.13 0 0 1 .14-.14h.96a.13.13 0 0 1 .14.14v9.41a.13.13 0 0 1 -.14.14h-1a.24.24 0 0 1 -.24-.14l-4.37-7.24v7.24a.14.14 0 0 1 -.14.14h-.9a.13.13 0 0 1 -.14-.14z"/><path d="m65 8.8a.15.15 0 0 1 0-.21l.63-.74a.13.13 0 0 1 .2 0 4.46 4.46 0 0 0 2.71 1c1.34 0 2.14-.67 2.14-1.65 0-.83-.47-1.38-2-1.58l-.49-.07c-1.88-.26-2.85-1.16-2.85-2.68-.01-1.76 1.23-2.87 3.15-2.87a5.16 5.16 0 0 1 3 .9.13.13 0 0 1 0 .2l-.49.78a.14.14 0 0 1 -.2 0 4.29 4.29 0 0 0 -2.34-.73c-1.18 0-1.84.64-1.84 1.57s.54 1.35 2 1.55l.47.07c1.91.3 2.91 1.16 2.91 2.75s-1.23 2.91-3.56 2.91a5.33 5.33 0 0 1 -3.44-1.2z"/><path d="m77.19 11.57a.13.13 0 0 1 0-.2l.59-.58a.13.13 0 0 1 .21 0 2.28 2.28 0 0 0 1.61.68c1.13 0 1.72-.59 1.72-1.84v-.8a2 2 0 0 1 -1.89.94 2.24 2.24 0 0 1 -2.3-1.65 5.37 5.37 0 0 1 -.23-1.8 5.36 5.36 0 0 1 .23-1.8 2.24 2.24 0 0 1 2.3-1.65 2 2 0 0 1 1.89.94v-.64a.14.14 0 0 1 .16-.17h.91a.13.13 0 0 1 .14.14v6.41a2.71 2.71 0 0 1 -3 3 3.09 3.09 0 0 1 -2.34-.98zm4-3.92a4.2 4.2 0 0 0 .16-1.33 4.25 4.25 0 0 0 -.17-1.32 1.54 1.54 0 0 0 -2.89 0 4.24 4.24 0 0 0 -.17 1.33 4.19 4.19 0 0 0 .17 1.33 1.39 1.39 0 0 0 1.44 1 1.41 1.41 0 0 0 1.45-1.02z"/><path d="m85 9.85a.13.13 0 0 1 -.14-.14v-6.54a.13.13 0 0 1 .14-.17h.91a.14.14 0 0 1 .14.14v.7a1.9 1.9 0 0 1 1.81-1 2.11 2.11 0 0 1 1.4.51c.07.07.08.13 0 .2l-.53.7a.13.13 0 0 1 -.2 0 1.93 1.93 0 0 0 -.98-.25c-1 0-1.47.81-1.47 2v3.71a.14.14 0 0 1 -.14.14z"/><path d="m90.29 8.17a5.08 5.08 0 0 1 -.23-1.74 5 5 0 0 1 .23-1.72 2.89 2.89 0 0 1 5.39 0 5.1 5.1 0 0 1 .23 1.72 5.15 5.15 0 0 1 -.23 1.74 2.89 2.89 0 0 1 -5.39 0zm4.23-.34a4.44 4.44 0 0 0 .16-1.4 4.34 4.34 0 0 0 -.15-1.43 1.64 1.64 0 0 0 -3.08 0 4.34 4.34 0 0 0 -.16 1.38 4.44 4.44 0 0 0 .16 1.4 1.64 1.64 0 0 0 3.08 0z"/><path d="m102.14 9.85a.13.13 0 0 1 -.14-.14v-.64a2.08 2.08 0 0 1 -1.87.94 2.3 2.3 0 0 1 -2.37-2.58v-4.26a.14.14 0 0 1 .13-.17h.91a.13.13 0 0 1 .14.14v4c0 1.11.5 1.75 1.51 1.75a1.52 1.52 0 0 0 1.55-1.67v-4.05a.13.13 0 0 1 .14-.14h.86a.13.13 0 0 1 .14.14v6.54a.13.13 0 0 1 -.14.14z"/><path d="m105.68 12.42a.14.14 0 0 1 -.14-.14v-9.11a.13.13 0 0 1 .14-.14h.91a.14.14 0 0 1 .14.14v.64a2.07 2.07 0 0 1 1.94-.94 2.26 2.26 0 0 1 2.33 1.64 5.67 5.67 0 0 1 .24 1.93 5.71 5.71 0 0 1 -.24 1.93 2.26 2.26 0 0 1 -2.31 1.63 2.07 2.07 0 0 1 -1.94-1v3.22a.14.14 0 0 1 -.14.14zm4.22-4.56a4.79 4.79 0 0 0 .16-1.43 4.92 4.92 0 0 0 -.16-1.43 1.62 1.62 0 0 0 -3 0 4.42 4.42 0 0 0 -.16 1.43 4.36 4.36 0 0 0 .16 1.43 1.61 1.61 0 0 0 3 0z"/><path d="m.47 23.3a.11.11 0 0 1 -.11-.11v-7.19a.11.11 0 0 1 .11-.11h.39a.11.11 0 0 1 .14.11v.65a1.66 1.66 0 0 1 1.63-.88 1.73 1.73 0 0 1 1.83 1.28 5 5 0 0 1 .19 1.52 5 5 0 0 1 -.19 1.51 1.73 1.73 0 0 1 -1.83 1.28 1.66 1.66 0 0 1 -1.63-.85v2.68a.11.11 0 0 1 -.11.11zm3.39-3.45a4.29 4.29 0 0 0 .14-1.26 4.31 4.31 0 0 0 -.14-1.27 1.33 1.33 0 0 0 -1.37-.95 1.32 1.32 0 0 0 -1.37.95 4 4 0 0 0 -.12 1.27 3.92 3.92 0 0 0 .15 1.26 1.32 1.32 0 0 0 1.37.95 1.33 1.33 0 0 0 1.34-.95z"/><path d="m6.44 21.27a.11.11 0 0 1 -.11-.11v-5.16a.11.11 0 0 1 .11-.11h.38a.11.11 0 0 1 .11.11v.69h.07a1.44 1.44 0 0 1 1.44-.91 1.67 1.67 0 0 1 1.08.37.09.09 0 0 1 0 .15l-.22.31c0 .06-.1.06-.17 0a1.55 1.55 0 0 0 -.86-.27c-.95 0-1.31.82-1.31 1.81v3a.11.11 0 0 1 -.11.11z"/><path d="m10.38 20a4.45 4.45 0 0 1 -.16-1.38 4.6 4.6 0 0 1 .16-1.4 2 2 0 0 1 2-1.4 2 2 0 0 1 2 1.4 4.26 4.26 0 0 1 .16 1.43.11.11 0 0 1 -.12.11h-3.5s-.07 0-.07.08a2.9 2.9 0 0 0 .11.95 1.48 1.48 0 0 0 1.52 1 1.83 1.83 0 0 0 1.5-.69.1.1 0 0 1 .16 0l.26.24a.1.1 0 0 1 0 .16 2.37 2.37 0 0 1 -2 .9 2 2 0 0 1 -2.02-1.4zm3.47-1.76a.06.06 0 0 0 .07-.07 2.52 2.52 0 0 0 -.1-.78 1.41 1.41 0 0 0 -1.44-1 1.4 1.4 0 0 0 -1.43 1 2.52 2.52 0 0 0 -.1.78.06.06 0 0 0 .07.07z"/><path d="m16.52 21.27a.11.11 0 0 1 -.11-.11v-4.65a.06.06 0 0 0 -.07-.07h-.57a.11.11 0 0 1 -.11-.11v-.33a.11.11 0 0 1 .11-.11h.57a.06.06 0 0 0 .07-.07v-.57c0-1.28.41-1.65 1.5-1.65h.31a.11.11 0 0 1 .11.11v.36a.11.11 0 0 1 -.11.11h-.22c-.82 0-1 .17-1 1v.65a.06.06 0 0 0 .07.07h1.14a.11.11 0 0 1 .11.11v.31a.11.11 0 0 1 -.11.11h-1.13a.06.06 0 0 0 -.07.07v4.65a.11.11 0 0 1 -.11.11z"/><path d="m20.12 16.76a.11.11 0 0 1 -.17 0l-.19-.28a.11.11 0 0 1 0-.16 2.59 2.59 0 0 1 1.71-.52c1.4 0 2 .46 2 1.78v3.59a.11.11 0 0 1 -.11.11h-.36a.11.11 0 0 1 -.11-.11v-.57a1.73 1.73 0 0 1 -1.67.79c-1.08 0-1.8-.54-1.8-1.59s.73-1.59 2-1.59h1.38a.06.06 0 0 0 .07-.07v-.55c0-.88-.3-1.24-1.4-1.24a2 2 0 0 0 -1.35.41zm2.75 2.86v-.82a.06.06 0 0 0 -.07-.07h-1.29c-1.07 0-1.52.35-1.52 1.06s.47 1 1.33 1 1.54-.44 1.54-1.17z"/><path d="m26.08 20.51v.65a.11.11 0 0 1 -.11.11h-.38a.11.11 0 0 1 -.11-.11v-7.43a.11.11 0 0 1 .11-.11h.41a.11.11 0 0 1 .11.11v2.94a1.66 1.66 0 0 1 1.63-.88 1.73 1.73 0 0 1 1.82 1.28 5 5 0 0 1 .19 1.52 5 5 0 0 1 -.19 1.51 1.73 1.73 0 0 1 -1.82 1.28 1.66 1.66 0 0 1 -1.66-.87zm2.92-.66a4.2 4.2 0 0 0 .15-1.26 4.23 4.23 0 0 0 -.15-1.27 1.47 1.47 0 0 0 -2.75 0 4 4 0 0 0 -.15 1.27 3.91 3.91 0 0 0 .15 1.26 1.47 1.47 0 0 0 2.75 0z"/><path d="m31.54 21.27a.11.11 0 0 1 -.11-.11v-5.16a.11.11 0 0 1 .11-.11h.38a.11.11 0 0 1 .08.11v.69a1.44 1.44 0 0 1 1.44-.91 1.67 1.67 0 0 1 1.08.37.09.09 0 0 1 0 .15l-.22.31c0 .06-.1.06-.17 0a1.55 1.55 0 0 0 -.86-.27c-.95 0-1.31.82-1.31 1.81v3a.11.11 0 0 1 -.11.11z"/><path d="m35.94 14.47a.11.11 0 0 1 -.11-.11v-.63a.11.11 0 0 1 .11-.11h.49a.11.11 0 0 1 .11.11v.63a.11.11 0 0 1 -.11.11zm.06 6.8a.11.11 0 0 1 -.11-.11v-5.16a.11.11 0 0 1 .11-.1h.38a.11.11 0 0 1 .11.11v5.14a.11.11 0 0 1 -.11.11z"/><path d="m38.37 17.19a2.13 2.13 0 0 1 3.82-.38.1.1 0 0 1 0 .15l-.32.2a.1.1 0 0 1 -.15 0 1.4 1.4 0 0 0 -1.32-.73 1.37 1.37 0 0 0 -1.41 1 3.67 3.67 0 0 0 -.15 1.2 3.59 3.59 0 0 0 .16 1.16 1.37 1.37 0 0 0 1.41 1 1.4 1.4 0 0 0 1.32-.73.1.1 0 0 1 .15 0l.32.2a.1.1 0 0 1 0 .15 2.13 2.13 0 0 1 -3.83-.41 4.65 4.65 0 0 1 -.17-1.4 4.74 4.74 0 0 1 .17-1.41z"/><path d="m44.13 16.76a.11.11 0 0 1 -.17 0l-.19-.28a.11.11 0 0 1 0-.16 2.59 2.59 0 0 1 1.71-.52c1.4 0 2 .46 2 1.78v3.59a.11.11 0 0 1 -.11.11h-.37a.11.11 0 0 1 -.11-.11v-.57a1.73 1.73 0 0 1 -1.67.79c-1.08 0-1.8-.54-1.8-1.59s.73-1.59 2-1.59h1.36a.06.06 0 0 0 .07-.07v-.55c0-.88-.3-1.24-1.4-1.24a2 2 0 0 0 -1.32.41zm2.75 2.86v-.82a.06.06 0 0 0 -.07-.07h-1.28c-1.07 0-1.52.35-1.52 1.06s.47 1 1.33 1 1.54-.44 1.54-1.17z"/><path d="m51 21.31c-1 0-1.4-.39-1.4-1.45v-3.35a.06.06 0 0 0 -.07-.07h-.53a.11.11 0 0 1 -.11-.11v-.33a.11.11 0 0 1 .11-.1h.56a.06.06 0 0 0 .07-.07v-1.54a.11.11 0 0 1 .11-.11h.38a.11.11 0 0 1 .11.11v1.54a.06.06 0 0 0 .07.07h1a.11.11 0 0 1 .11.11v.31a.11.11 0 0 1 -.11.11h-1a.06.06 0 0 0 -.07.07v3.31c0 .72.25.9.87.9h.21a.11.11 0 0 1 .11.11v.36a.11.11 0 0 1 -.11.11z"/><path d="m52.77 20a4.45 4.45 0 0 1 -.16-1.38 4.6 4.6 0 0 1 .16-1.4 2.13 2.13 0 0 1 4 0 4.26 4.26 0 0 1 .16 1.43.11.11 0 0 1 -.12.11h-3.51s-.07 0-.07.08a2.9 2.9 0 0 0 .11.95 1.48 1.48 0 0 0 1.52 1 1.83 1.83 0 0 0 1.5-.69.1.1 0 0 1 .16 0l.26.24a.1.1 0 0 1 0 .16 2.37 2.37 0 0 1 -2 .9 2 2 0 0 1 -2.01-1.4zm3.47-1.76a.06.06 0 0 0 .07-.07 2.52 2.52 0 0 0 -.1-.78 1.53 1.53 0 0 0 -2.87 0 2.52 2.52 0 0 0 -.1.78.06.06 0 0 0 .07.07z"/><path d="m62 21.27a.11.11 0 0 1 -.11-.11v-.65a1.66 1.66 0 0 1 -1.63.88 1.73 1.73 0 0 1 -1.82-1.28 4.66 4.66 0 0 1 -.19-1.51 4.68 4.68 0 0 1 .19-1.52 1.73 1.73 0 0 1 1.82-1.28 1.66 1.66 0 0 1 1.63.88v-2.95a.11.11 0 0 1 .11-.11h.38a.11.11 0 0 1 .11.11v7.43a.11.11 0 0 1 -.11.11zm-.26-1.42a3.91 3.91 0 0 0 .15-1.26 4 4 0 0 0 -.15-1.27 1.47 1.47 0 0 0 -2.75 0 4.23 4.23 0 0 0 -.15 1.27 4.2 4.2 0 0 0 .16 1.26 1.47 1.47 0 0 0 2.75 0z"/><path d="m66.81 13.62a.14.14 0 0 1 .15-.11h.34a.08.08 0 0 1 .08.11l-2.49 7.66a.13.13 0 0 1 -.15.11h-.34a.08.08 0 0 1 -.08-.11z"/><path d="m69.28 21.27a.11.11 0 0 1 -.11-.11v-5.16a.11.11 0 0 1 .11-.11h.38a.11.11 0 0 1 .11.11v.69a1.44 1.44 0 0 1 1.44-.91 1.67 1.67 0 0 1 1.08.37.09.09 0 0 1 0 .15l-.22.31a.12.12 0 0 1 -.17 0 1.55 1.55 0 0 0 -.86-.27c-.95 0-1.31.82-1.31 1.81v3a.11.11 0 0 1 -.11.11z"/><path d="m73.21 20a4.45 4.45 0 0 1 -.16-1.38 4.6 4.6 0 0 1 .16-1.4 2.13 2.13 0 0 1 4 0 4.26 4.26 0 0 1 .16 1.43.11.11 0 0 1 -.12.11h-3.5s-.07 0-.07.08a2.9 2.9 0 0 0 .11.95 1.48 1.48 0 0 0 1.52 1 1.83 1.83 0 0 0 1.5-.69.1.1 0 0 1 .16 0l.26.24a.1.1 0 0 1 0 .16 2.37 2.37 0 0 1 -2 .9 2 2 0 0 1 -2.02-1.4zm3.47-1.76a.06.06 0 0 0 .07-.07 2.52 2.52 0 0 0 -.1-.78 1.53 1.53 0 0 0 -2.87 0 2.52 2.52 0 0 0 -.1.78.06.06 0 0 0 .07.07z"/><path d="m79.49 16.76a.11.11 0 0 1 -.17 0l-.19-.28a.11.11 0 0 1 0-.16 2.59 2.59 0 0 1 1.71-.52c1.4 0 2 .46 2 1.78v3.59a.11.11 0 0 1 -.11.11h-.36a.11.11 0 0 1 -.11-.11v-.57a1.73 1.73 0 0 1 -1.67.79c-1.08 0-1.8-.54-1.8-1.59s.73-1.59 2-1.59h1.36a.06.06 0 0 0 .07-.07v-.55c0-.88-.3-1.24-1.4-1.24a2 2 0 0 0 -1.33.41zm2.75 2.86v-.82a.06.06 0 0 0 -.07-.07h-1.28c-1.07 0-1.52.35-1.52 1.06s.47 1 1.33 1 1.54-.44 1.54-1.17z"/><path d="m88.24 21.27a.11.11 0 0 1 -.11-.11v-.65a1.66 1.66 0 0 1 -1.63.88 1.73 1.73 0 0 1 -1.82-1.28 4.66 4.66 0 0 1 -.19-1.51 4.68 4.68 0 0 1 .19-1.52 1.73 1.73 0 0 1 1.82-1.28 1.66 1.66 0 0 1 1.63.88v-2.95a.11.11 0 0 1 .11-.11h.38a.11.11 0 0 1 .11.11v7.43a.11.11 0 0 1 -.11.11zm-.24-1.42a3.92 3.92 0 0 0 .15-1.26 4 4 0 0 0 -.15-1.27 1.47 1.47 0 0 0 -2.75 0 4.23 4.23 0 0 0 -.15 1.27 4.2 4.2 0 0 0 .15 1.26 1.47 1.47 0 0 0 2.75 0z"/><path d="m90.69 23.3a.11.11 0 0 1 -.11-.11v-.36a.11.11 0 0 1 .11-.11h.2c.46 0 .71-.19 1-1l.21-.55-2-5.14c0-.07 0-.11.08-.11h.43c.08 0 .11 0 .15.11l1.63 4.31 1.61-4.34a.13.13 0 0 1 .13-.11h.43a.08.08 0 0 1 .08.11l-2.2 5.78c-.44 1.22-.82 1.52-1.52 1.52z"/><path d="m95.42 18.45v-.35a.11.11 0 0 1 .11-.11h2.88a.11.11 0 0 1 .11.11v.35a.1.1 0 0 1 -.11.11h-2.88a.1.1 0 0 1 -.11-.11z"/><path d="m107.18 21.27a.11.11 0 0 1 -.11-.11v-3.16c0-1.07-.48-1.61-1.42-1.61a1.4 1.4 0 0 0 -1.45 1.5v3.29a.11.11 0 0 1 -.11.11h-.38a.11.11 0 0 1 -.11-.11v-3.18c0-1.07-.47-1.61-1.41-1.61a1.41 1.41 0 0 0 -1.46 1.5v3.29a.11.11 0 0 1 -.11.11h-.38a.11.11 0 0 1 -.11-.11v-5.18a.11.11 0 0 1 .11-.11h.38a.11.11 0 0 1 .11.11v.64a1.69 1.69 0 0 1 1.59-.87 1.64 1.64 0 0 1 1.67 1 1.84 1.84 0 0 1 1.77-1 1.8 1.8 0 0 1 1.91 2v3.32a.11.11 0 0 1 -.11.11z"/><path d="m109.72 14.47a.11.11 0 0 1 -.11-.11v-.63a.11.11 0 0 1 .11-.11h.49a.11.11 0 0 1 .11.11v.63a.11.11 0 0 1 -.11.11zm.06 6.8a.11.11 0 0 1 -.11-.11v-5.16a.11.11 0 0 1 .11-.11h.38a.11.11 0 0 1 .11.11v5.14a.11.11 0 0 1 -.11.11z"/><path d="m115.56 21.27a.16.16 0 0 1 -.16-.09l-1.48-2.18-1.5 2.18a.15.15 0 0 1 -.16.09h-.45c-.08 0-.1-.06-.07-.11l1.83-2.7-1.65-2.46c0-.06 0-.11.07-.11h.46a.17.17 0 0 1 .16.09l1.31 1.94 1.32-1.92a.17.17 0 0 1 .16-.09h.45c.08 0 .1.06.07.11l-1.67 2.44 1.85 2.7c0 .06 0 .11-.07.11z"/><path d="m.17 28.61a2 2 0 0 1 2-1.4 2 2 0 0 1 1.81 1 .1.1 0 0 1 0 .15l-.31.2a.1.1 0 0 1 -.15 0 1.4 1.4 0 0 0 -1.32-.73 1.38 1.38 0 0 0 -1.41 1 3.68 3.68 0 0 0 -.17 1.17 3.61 3.61 0 0 0 .14 1.19 1.38 1.38 0 0 0 1.41 1 1.4 1.4 0 0 0 1.32-.73.1.1 0 0 1 .15 0l.31.2a.1.1 0 0 1 0 .15 2 2 0 0 1 -1.81 1 2 2 0 0 1 -2-1.4 4.74 4.74 0 0 1 -.14-1.41 4.83 4.83 0 0 1 .17-1.39z"/><path d="m5.46 31.41a5.55 5.55 0 0 1 0-2.81 2 2 0 0 1 2-1.4 2 2 0 0 1 2 1.4 5.55 5.55 0 0 1 0 2.81 2 2 0 0 1 -2 1.4 2 2 0 0 1 -2-1.4zm3.43-.19a3.67 3.67 0 0 0 .11-1.22 3.64 3.64 0 0 0 -.1-1.2 1.42 1.42 0 0 0 -1.43-1 1.41 1.41 0 0 0 -1.47 1 3.64 3.64 0 0 0 -.1 1.2 3.66 3.66 0 0 0 .1 1.22 1.41 1.41 0 0 0 1.42 1 1.42 1.42 0 0 0 1.48-1z"/><path d="m15 32.69a.11.11 0 0 1 -.11-.11v-3.18c0-1.07-.47-1.61-1.41-1.61a1.41 1.41 0 0 0 -1.48 1.5v3.29a.11.11 0 0 1 -.11.11h-.38a.11.11 0 0 1 -.11-.11v-5.14a.11.11 0 0 1 .11-.11h.38a.11.11 0 0 1 .11.11v.64a1.69 1.69 0 0 1 1.59-.87 1.79 1.79 0 0 1 1.88 2v3.32a.11.11 0 0 1 -.11.11z"/><path d="m17.26 28.61a2 2 0 0 1 2-1.4 2 2 0 0 1 1.81 1 .1.1 0 0 1 0 .15l-.32.2a.1.1 0 0 1 -.15 0 1.4 1.4 0 0 0 -1.32-.73 1.37 1.37 0 0 0 -1.41 1 3.68 3.68 0 0 0 -.15 1.2 3.6 3.6 0 0 0 .15 1.19 1.37 1.37 0 0 0 1.41 1 1.4 1.4 0 0 0 1.32-.73.1.1 0 0 1 .15 0l.32.2a.1.1 0 0 1 0 .15 2 2 0 0 1 -1.81 1 2 2 0 0 1 -2-1.4 4.65 4.65 0 0 1 -.17-1.4 4.74 4.74 0 0 1 .17-1.43z"/><path d="m22.85 32.69a.11.11 0 0 1 -.11-.11v-5.14a.11.11 0 0 1 .11-.11h.38a.11.11 0 0 1 .11.11v.69a1.44 1.44 0 0 1 1.44-.91 1.67 1.67 0 0 1 1.08.37.09.09 0 0 1 0 .15l-.22.31a.12.12 0 0 1 -.17 0 1.55 1.55 0 0 0 -.86-.27c-.95 0-1.31.82-1.31 1.81v3a.11.11 0 0 1 -.11.11z"/><path d="m26.78 31.39a4.45 4.45 0 0 1 -.15-1.39 4.6 4.6 0 0 1 .16-1.4 2.13 2.13 0 0 1 4 0 4.26 4.26 0 0 1 .15 1.4.11.11 0 0 1 -.12.11h-3.5s-.07 0-.07.08a2.9 2.9 0 0 0 .11.95 1.48 1.48 0 0 0 1.52 1 1.83 1.83 0 0 0 1.5-.69.1.1 0 0 1 .16 0l.26.24a.1.1 0 0 1 0 .16 2.37 2.37 0 0 1 -2 .9 2 2 0 0 1 -2.02-1.36zm3.47-1.76a.06.06 0 0 0 .07-.07 2.53 2.53 0 0 0 -.1-.78 1.53 1.53 0 0 0 -2.87 0 2.53 2.53 0 0 0 -.1.78.06.06 0 0 0 .07.07z"/><path d="m34.17 32.73c-1 0-1.4-.39-1.4-1.45v-3.35a.06.06 0 0 0 -.07-.07h-.56a.11.11 0 0 1 -.11-.11v-.31a.11.11 0 0 1 .11-.11h.56a.06.06 0 0 0 .07-.07v-1.55a.11.11 0 0 1 .11-.11h.38a.11.11 0 0 1 .11.11v1.54a.06.06 0 0 0 .07.07h1a.11.11 0 0 1 .11.11v.31a.11.11 0 0 1 -.11.11h-1a.06.06 0 0 0 -.07.07v3.31c0 .72.25.9.87.9h.21a.11.11 0 0 1 .11.11v.36a.11.11 0 0 1 -.11.11z"/><path d="m35.93 31.39a4.45 4.45 0 0 1 -.16-1.39 4.6 4.6 0 0 1 .16-1.4 2.13 2.13 0 0 1 4 0 4.26 4.26 0 0 1 .15 1.4.11.11 0 0 1 -.12.11h-3.5s-.07 0-.07.08a2.9 2.9 0 0 0 .11.95 1.48 1.48 0 0 0 1.52 1 1.83 1.83 0 0 0 1.5-.69.1.1 0 0 1 .16 0l.26.24a.1.1 0 0 1 0 .16 2.37 2.37 0 0 1 -2 .9 2 2 0 0 1 -2.01-1.36zm3.47-1.76a.06.06 0 0 0 .07-.07 2.53 2.53 0 0 0 -.1-.78 1.53 1.53 0 0 0 -2.87 0 2.53 2.53 0 0 0 -.1.78.06.06 0 0 0 .07.07z"/><path d="m41.69 31.71h.49a.11.11 0 0 1 .11.11v.85a.45.45 0 0 1 -.06.25l-.44.87a.14.14 0 0 1 -.14.09c-.06 0-.08 0-.08-.1v-1.95a.11.11 0 0 1 .12-.12z"/><path d="m47.1 28.18a.11.11 0 0 1 -.17 0l-.19-.28a.11.11 0 0 1 0-.16 2.59 2.59 0 0 1 1.71-.52c1.4 0 2 .46 2 1.78v3.59a.11.11 0 0 1 -.11.11h-.34a.11.11 0 0 1 -.11-.11v-.59a1.73 1.73 0 0 1 -1.67.79c-1.08 0-1.8-.54-1.8-1.59s.73-1.59 2-1.59h1.36a.06.06 0 0 0 .07-.07v-.54c0-.88-.3-1.24-1.4-1.24a2 2 0 0 0 -1.35.42zm2.75 2.82v-.82a.06.06 0 0 0 -.07-.07h-1.28c-1.07 0-1.52.35-1.52 1.06s.47 1 1.33 1 1.54-.4 1.54-1.17z"/><path d="m52.32 34.05a.11.11 0 0 1 0-.16l.28-.25a.1.1 0 0 1 .16 0 1.7 1.7 0 0 0 1.33.57c1 0 1.53-.47 1.53-1.63v-.78a1.56 1.56 0 0 1 -1.59.88 1.75 1.75 0 0 1 -1.79-1.28 4.61 4.61 0 0 1 -.17-1.4 4.63 4.63 0 0 1 .18-1.46 1.76 1.76 0 0 1 1.75-1.33 1.57 1.57 0 0 1 1.59.88v-.65a.11.11 0 0 1 .11-.11h.38a.11.11 0 0 1 .11.11v5.16a2 2 0 0 1 -2.15 2.24 2.2 2.2 0 0 1 -1.72-.79zm3.18-2.86a3.9 3.9 0 0 0 .14-1.19 3.88 3.88 0 0 0 -.13-1.23 1.41 1.41 0 0 0 -2.66 0 3.67 3.67 0 0 0 -.16 1.23 3.6 3.6 0 0 0 .16 1.23 1.28 1.28 0 0 0 1.32.94 1.31 1.31 0 0 0 1.34-.97z"/><path d="m58.19 34.05a.11.11 0 0 1 0-.16l.28-.25a.1.1 0 0 1 .16 0 1.7 1.7 0 0 0 1.33.57c1 0 1.53-.47 1.53-1.63v-.78a1.56 1.56 0 0 1 -1.59.88 1.75 1.75 0 0 1 -1.79-1.28 4.61 4.61 0 0 1 -.17-1.4 4.62 4.62 0 0 1 .18-1.46 1.76 1.76 0 0 1 1.79-1.29 1.57 1.57 0 0 1 1.59.88v-.65a.11.11 0 0 1 .11-.11h.39a.11.11 0 0 1 .11.11v5.16a2 2 0 0 1 -2.11 2.19 2.2 2.2 0 0 1 -1.81-.78zm3.18-2.86a3.89 3.89 0 0 0 .14-1.19 3.87 3.87 0 0 0 -.13-1.23 1.29 1.29 0 0 0 -1.38-.97 1.28 1.28 0 0 0 -1.32.93 3.67 3.67 0 0 0 -.12 1.27 3.6 3.6 0 0 0 .16 1.23 1.28 1.28 0 0 0 1.32.94 1.31 1.31 0 0 0 1.33-.97z"/><path d="m64.3 32.69a.11.11 0 0 1 -.11-.11v-5.14a.11.11 0 0 1 .11-.11h.38a.11.11 0 0 1 .11.11v.69a1.44 1.44 0 0 1 1.44-.91 1.67 1.67 0 0 1 1.08.37.09.09 0 0 1 0 .15l-.22.31a.12.12 0 0 1 -.17 0 1.55 1.55 0 0 0 -.85-.27c-.95 0-1.31.82-1.31 1.81v3a.11.11 0 0 1 -.11.11z"/><path d="m68.23 31.39a4.45 4.45 0 0 1 -.16-1.39 4.6 4.6 0 0 1 .16-1.4 2.13 2.13 0 0 1 4 0 4.26 4.26 0 0 1 .16 1.4.11.11 0 0 1 -.12.11h-3.5s-.07 0-.07.08a2.9 2.9 0 0 0 .11.95 1.48 1.48 0 0 0 1.52 1 1.83 1.83 0 0 0 1.5-.69.1.1 0 0 1 .16 0l.26.24a.1.1 0 0 1 0 .16 2.37 2.37 0 0 1 -2 .9 2 2 0 0 1 -2.02-1.36zm3.47-1.76a.06.06 0 0 0 .07-.07 2.53 2.53 0 0 0 -.1-.78 1.53 1.53 0 0 0 -2.87 0 2.53 2.53 0 0 0 -.1.78.06.06 0 0 0 .07.07z"/><path d="m74 34.05a.11.11 0 0 1 0-.16l.28-.25a.1.1 0 0 1 .16 0 1.7 1.7 0 0 0 1.33.57c1 0 1.53-.47 1.53-1.63v-.78a1.56 1.56 0 0 1 -1.59.88 1.75 1.75 0 0 1 -1.79-1.28 4.61 4.61 0 0 1 -.21-1.4 4.63 4.63 0 0 1 .18-1.46 1.76 1.76 0 0 1 1.79-1.29 1.57 1.57 0 0 1 1.59.88v-.65a.11.11 0 0 1 .11-.11h.38a.11.11 0 0 1 .11.11v5.16a2 2 0 0 1 -2.15 2.24 2.2 2.2 0 0 1 -1.72-.83zm3.18-2.86a3.9 3.9 0 0 0 .09-1.19 3.88 3.88 0 0 0 -.13-1.23 1.29 1.29 0 0 0 -1.34-.95 1.28 1.28 0 0 0 -1.32.93 3.67 3.67 0 0 0 -.16 1.25 3.6 3.6 0 0 0 .16 1.23 1.28 1.28 0 0 0 1.32.94 1.31 1.31 0 0 0 1.34-.97z"/><path d="m80.37 28.18a.11.11 0 0 1 -.17 0l-.2-.3a.11.11 0 0 1 0-.16 2.59 2.59 0 0 1 1.71-.52c1.4 0 2 .46 2 1.78v3.59a.11.11 0 0 1 -.11.11h-.36a.11.11 0 0 1 -.11-.11v-.57a1.73 1.73 0 0 1 -1.67.79c-1.08 0-1.8-.54-1.8-1.59s.73-1.59 2-1.59h1.36a.06.06 0 0 0 .07-.07v-.54c0-.88-.3-1.24-1.4-1.24a2 2 0 0 0 -1.32.42zm2.75 2.82v-.82a.06.06 0 0 0 -.07-.07h-1.28c-1.07 0-1.52.35-1.52 1.06s.47 1 1.33 1 1.54-.4 1.54-1.17z"/><path d="m87.26 32.73c-1 0-1.4-.39-1.4-1.45v-3.35a.06.06 0 0 0 -.07-.07h-.56a.11.11 0 0 1 -.11-.11v-.31a.11.11 0 0 1 .11-.11h.56a.06.06 0 0 0 .07-.07v-1.55a.11.11 0 0 1 .14-.11h.38a.11.11 0 0 1 .11.11v1.54a.06.06 0 0 0 .07.07h1a.11.11 0 0 1 .11.11v.31a.11.11 0 0 1 -.11.11h-1a.06.06 0 0 0 -.07.07v3.31c0 .72.25.9.87.9h.21a.11.11 0 0 1 .11.11v.36a.11.11 0 0 1 -.11.11z"/><path d="m89 31.39a4.45 4.45 0 0 1 -.15-1.39 4.6 4.6 0 0 1 .16-1.4 2.13 2.13 0 0 1 4 0 4.26 4.26 0 0 1 .15 1.4.11.11 0 0 1 -.12.11h-3.5s-.07 0-.07.08a2.9 2.9 0 0 0 .11.95 1.48 1.48 0 0 0 1.52 1 1.83 1.83 0 0 0 1.5-.69.1.1 0 0 1 .16 0l.26.24a.1.1 0 0 1 0 .16 2.37 2.37 0 0 1 -2 .9 2 2 0 0 1 -2.02-1.36zm3.47-1.76a.06.06 0 0 0 .07-.07 2.53 2.53 0 0 0 -.1-.78 1.53 1.53 0 0 0 -2.87 0 2.52 2.52 0 0 0 -.1.78.06.06 0 0 0 .07.07z"/><path d="m94.44 32.05a.11.11 0 0 1 0-.16l.25-.28a.12.12 0 0 1 .16 0 2.75 2.75 0 0 0 1.74.63c.93 0 1.4-.42 1.4-1s-.24-.83-1.23-.95l-.54-.06c-1-.1-1.56-.59-1.56-1.43s.71-1.57 1.89-1.57a3.31 3.31 0 0 1 1.79.52.11.11 0 0 1 0 .16l-.2.27a.11.11 0 0 1 -.16 0 3.18 3.18 0 0 0 -1.49-.42c-.82 0-1.25.36-1.25 1s.33.81 1.24.9l.54.06c1 .1 1.55.61 1.55 1.44 0 1-.72 1.68-2.06 1.68a3.25 3.25 0 0 1 -2.07-.79z"/></g></svg>