<svg xmlns="http://www.w3.org/2000/svg" viewBox="0 0 116.11 34.83"><defs><style>.cls-1{fill:#fff;}</style></defs><title>MB Betons Group</title><g id="Layer_2" data-name="Layer 2"><g id="Layer_1-2" data-name="Layer 1"><path class="cls-1" d="M.52.3A.13.13,0,0,1,.66.16h.93A.22.22,0,0,1,1.82.3L4.71,6.83h0L7.59.3A.22.22,0,0,1,7.82.16h.93A.13.13,0,0,1,8.89.3V9.71a.14.14,0,0,1-.14.14h-.9a.13.13,0,0,1-.14-.14V3h0L5.25,8.3A.24.24,0,0,1,5,8.47H4.43a.25.25,0,0,1-.27-.17L1.75,3h0V9.71a.14.14,0,0,1-.14.14H.66a.13.13,0,0,1-.14-.14Z"/><path class="cls-1" d="M11.3.3a.13.13,0,0,1,.14-.14h3.44c2,0,2.92,1,2.92,2.55a2.09,2.09,0,0,1-1.3,2.11v0A2.24,2.24,0,0,1,18,7.09c0,1.81-1.14,2.77-3.17,2.77H11.44a.13.13,0,0,1-.14-.14Zm3.55,4a1.5,1.5,0,0,0,1.7-1.51,1.5,1.5,0,0,0-1.7-1.53h-2.2a.08.08,0,0,0-.09.09V4.27a.08.08,0,0,0,.09.08ZM12.65,8.7h2.27c1.16,0,1.78-.63,1.78-1.6a1.56,1.56,0,0,0-1.78-1.6H12.65a.08.08,0,0,0-.09.09v3A.08.08,0,0,0,12.65,8.7Z"/><path class="cls-1" d="M23.35.3a.13.13,0,0,1,.14-.14h3.44c2,0,2.92,1,2.92,2.55a2.09,2.09,0,0,1-1.3,2.11v0A2.24,2.24,0,0,1,30,7.09c0,1.81-1.14,2.77-3.17,2.77H23.49a.13.13,0,0,1-.14-.14Zm3.55,4a1.5,1.5,0,0,0,1.7-1.51,1.5,1.5,0,0,0-1.7-1.53H24.7a.08.08,0,0,0-.09.09V4.27a.08.08,0,0,0,.09.08ZM24.7,8.7H27c1.16,0,1.78-.63,1.78-1.6A1.56,1.56,0,0,0,27,5.5H24.7a.08.08,0,0,0-.09.09v3A.08.08,0,0,0,24.7,8.7Z"/><path class="cls-1" d="M32,.3a.13.13,0,0,1,.14-.14h5.83a.13.13,0,0,1,.14.14v.9a.13.13,0,0,1-.14.14H33.32a.08.08,0,0,0-.09.09V4.28a.08.08,0,0,0,.09.09h3.92a.14.14,0,0,1,.14.14v.9a.14.14,0,0,1-.14.14H33.32a.08.08,0,0,0-.09.09v3a.08.08,0,0,0,.09.08h4.62a.14.14,0,0,1,.14.14v.9a.13.13,0,0,1-.14.14H32.11A.13.13,0,0,1,32,9.71Z"/><path class="cls-1" d="M42.14,9.85A.13.13,0,0,1,42,9.71V1.43a.08.08,0,0,0-.09-.09H39.26a.13.13,0,0,1-.14-.14V.3a.13.13,0,0,1,.14-.14H46a.13.13,0,0,1,.14.14v.9a.13.13,0,0,1-.14.14H43.36a.08.08,0,0,0-.09.09V9.71a.13.13,0,0,1-.14.14Z"/><path class="cls-1" d="M47.24,7.74A8.32,8.32,0,0,1,47,5a8.33,8.33,0,0,1,.26-2.74,3.54,3.54,0,0,1,6.6,0A8.33,8.33,0,0,1,54.1,5a8.32,8.32,0,0,1-.26,2.74,3.54,3.54,0,0,1-6.6,0Zm5.36-.36A8.37,8.37,0,0,0,52.82,5a8.34,8.34,0,0,0-.21-2.38,2.19,2.19,0,0,0-4.12,0A8.25,8.25,0,0,0,48.27,5a8.29,8.29,0,0,0,.21,2.38,2.19,2.19,0,0,0,4.12,0Z"/><path class="cls-1" d="M56.16.3a.13.13,0,0,1,.14-.14h.91a.23.23,0,0,1,.24.14l4.39,7.27h.06V.3a.13.13,0,0,1,.14-.14H63a.13.13,0,0,1,.14.14V9.71a.13.13,0,0,1-.14.14H62a.24.24,0,0,1-.24-.14L57.39,2.47h0V9.71a.14.14,0,0,1-.14.14h-.9a.13.13,0,0,1-.14-.14Z"/><path class="cls-1" d="M65,8.8a.15.15,0,0,1,0-.21l.63-.74a.13.13,0,0,1,.2,0,4.46,4.46,0,0,0,2.71,1c1.34,0,2.14-.67,2.14-1.65,0-.83-.47-1.38-2-1.58l-.49-.07c-1.88-.26-2.85-1.16-2.85-2.68C65.33,1.11,66.57,0,68.49,0a5.16,5.16,0,0,1,3,.9.13.13,0,0,1,0,.2L71,1.88a.14.14,0,0,1-.2,0,4.29,4.29,0,0,0-2.34-.73c-1.18,0-1.84.64-1.84,1.57s.54,1.35,2,1.55l.47.07C71,4.64,72,5.5,72,7.09S70.77,10,68.44,10A5.33,5.33,0,0,1,65,8.8Z"/><path class="cls-1" d="M77.19,11.57a.13.13,0,0,1,0-.2l.59-.58a.13.13,0,0,1,.21,0,2.28,2.28,0,0,0,1.61.68c1.13,0,1.72-.59,1.72-1.84v-.8h0a2,2,0,0,1-1.89.94,2.24,2.24,0,0,1-2.3-1.65,5.37,5.37,0,0,1-.23-1.8,5.36,5.36,0,0,1,.23-1.8,2.24,2.24,0,0,1,2.3-1.65,2,2,0,0,1,1.89.94h0V3.17A.14.14,0,0,1,81.48,3h.91a.13.13,0,0,1,.14.14V9.55a2.71,2.71,0,0,1-3,3A3.09,3.09,0,0,1,77.19,11.57Zm4-3.92a4.2,4.2,0,0,0,.16-1.33A4.25,4.25,0,0,0,81.18,5a1.54,1.54,0,0,0-2.89,0,4.24,4.24,0,0,0-.17,1.33,4.19,4.19,0,0,0,.17,1.33,1.39,1.39,0,0,0,1.44,1A1.41,1.41,0,0,0,81.18,7.64Z"/><path class="cls-1" d="M85,9.85a.13.13,0,0,1-.14-.14V3.17A.13.13,0,0,1,85,3h.91a.14.14,0,0,1,.14.14v.7h0a1.9,1.9,0,0,1,1.81-1,2.11,2.11,0,0,1,1.4.51c.07.07.08.13,0,.2l-.53.7a.13.13,0,0,1-.2,0A1.93,1.93,0,0,0,87.55,4c-1,0-1.47.81-1.47,2V9.71a.14.14,0,0,1-.14.14Z"/><path class="cls-1" d="M90.29,8.17a5.08,5.08,0,0,1-.23-1.74,5,5,0,0,1,.23-1.72,2.89,2.89,0,0,1,5.39,0,5.1,5.1,0,0,1,.23,1.72,5.15,5.15,0,0,1-.23,1.74,2.89,2.89,0,0,1-5.39,0Zm4.23-.34a4.44,4.44,0,0,0,.16-1.4A4.34,4.34,0,0,0,94.53,5a1.64,1.64,0,0,0-3.08,0,4.34,4.34,0,0,0-.16,1.38,4.44,4.44,0,0,0,.16,1.4,1.64,1.64,0,0,0,3.08,0Z"/><path class="cls-1" d="M102.14,9.85a.13.13,0,0,1-.14-.14V9.07h0a2.08,2.08,0,0,1-1.87.94,2.3,2.3,0,0,1-2.37-2.58V3.17A.14.14,0,0,1,97.89,3h.91a.13.13,0,0,1,.14.14v4c0,1.11.5,1.75,1.51,1.75A1.52,1.52,0,0,0,102,7.22V3.17a.13.13,0,0,1,.14-.14H103a.13.13,0,0,1,.14.14V9.71a.13.13,0,0,1-.14.14Z"/><path class="cls-1" d="M105.68,12.42a.14.14,0,0,1-.14-.14V3.17a.13.13,0,0,1,.14-.14h.91a.14.14,0,0,1,.14.14v.64h0a2.07,2.07,0,0,1,1.94-.94A2.26,2.26,0,0,1,111,4.51a5.67,5.67,0,0,1,.24,1.93A5.71,5.71,0,0,1,111,8.37,2.26,2.26,0,0,1,108.69,10a2.07,2.07,0,0,1-1.94-1h0v3.22a.14.14,0,0,1-.14.14Zm4.22-4.56a4.79,4.79,0,0,0,.16-1.43A4.92,4.92,0,0,0,109.9,5a1.62,1.62,0,0,0-3,0,4.42,4.42,0,0,0-.16,1.43,4.36,4.36,0,0,0,.16,1.43,1.61,1.61,0,0,0,3,0Z"/><path class="cls-1" d="M.47,23.3a.11.11,0,0,1-.11-.11V16a.11.11,0,0,1,.11-.11H.86A.11.11,0,0,1,1,16v.65H1a1.66,1.66,0,0,1,1.63-.88,1.73,1.73,0,0,1,1.83,1.28,5,5,0,0,1,.19,1.52,5,5,0,0,1-.19,1.51,1.73,1.73,0,0,1-1.83,1.28A1.66,1.66,0,0,1,1,20.51H1v2.68a.11.11,0,0,1-.11.11Zm3.39-3.45A4.29,4.29,0,0,0,4,18.59a4.31,4.31,0,0,0-.14-1.27,1.33,1.33,0,0,0-1.37-.95,1.32,1.32,0,0,0-1.37.95A4,4,0,0,0,1,18.59a3.92,3.92,0,0,0,.15,1.26,1.32,1.32,0,0,0,1.37.95A1.33,1.33,0,0,0,3.86,19.85Z"/><path class="cls-1" d="M6.44,21.27a.11.11,0,0,1-.11-.11V16a.11.11,0,0,1,.11-.11h.38a.11.11,0,0,1,.11.11v.69H7a1.44,1.44,0,0,1,1.44-.91,1.67,1.67,0,0,1,1.08.37.09.09,0,0,1,0,.15l-.22.31c0,.06-.1.06-.17,0a1.55,1.55,0,0,0-.86-.27c-.95,0-1.31.82-1.31,1.81v3a.11.11,0,0,1-.11.11Z"/><path class="cls-1" d="M10.38,20a4.45,4.45,0,0,1-.16-1.38,4.6,4.6,0,0,1,.16-1.4,2,2,0,0,1,2-1.4,2,2,0,0,1,2,1.4,4.26,4.26,0,0,1,.16,1.43.11.11,0,0,1-.12.11h-3.5s-.07,0-.07.08a2.9,2.9,0,0,0,.11.95,1.48,1.48,0,0,0,1.52,1,1.83,1.83,0,0,0,1.5-.69.1.1,0,0,1,.16,0l.26.24a.1.1,0,0,1,0,.16,2.37,2.37,0,0,1-2,.9A2,2,0,0,1,10.38,20Zm3.47-1.76a.06.06,0,0,0,.07-.07,2.52,2.52,0,0,0-.1-.78,1.41,1.41,0,0,0-1.44-1,1.4,1.4,0,0,0-1.43,1,2.52,2.52,0,0,0-.1.78.06.06,0,0,0,.07.07Z"/><path class="cls-1" d="M16.52,21.27a.11.11,0,0,1-.11-.11V16.51a.06.06,0,0,0-.07-.07h-.57a.11.11,0,0,1-.11-.11V16a.11.11,0,0,1,.11-.11h.57a.06.06,0,0,0,.07-.07v-.57c0-1.28.41-1.65,1.5-1.65h.31a.11.11,0,0,1,.11.11v.36a.11.11,0,0,1-.11.11H18c-.82,0-1,.17-1,1v.65a.06.06,0,0,0,.07.07h1.14a.11.11,0,0,1,.11.11v.31a.11.11,0,0,1-.11.11H17.08a.06.06,0,0,0-.07.07v4.65a.11.11,0,0,1-.11.11Z"/><path class="cls-1" d="M20.12,16.76a.11.11,0,0,1-.17,0l-.19-.28a.11.11,0,0,1,0-.16,2.59,2.59,0,0,1,1.71-.52c1.4,0,2,.46,2,1.78v3.59a.11.11,0,0,1-.11.11H23a.11.11,0,0,1-.11-.11V20.6h0a1.73,1.73,0,0,1-1.67.79c-1.08,0-1.8-.54-1.8-1.59s.73-1.59,2-1.59H22.8a.06.06,0,0,0,.07-.07v-.55c0-.88-.3-1.24-1.4-1.24A2,2,0,0,0,20.12,16.76Zm2.75,2.86V18.8a.06.06,0,0,0-.07-.07H21.51c-1.07,0-1.52.35-1.52,1.06s.47,1,1.33,1S22.86,20.35,22.86,19.62Z"/><path class="cls-1" d="M26.08,20.51h0v.65a.11.11,0,0,1-.11.11h-.38a.11.11,0,0,1-.11-.11V13.73a.11.11,0,0,1,.11-.11H26a.11.11,0,0,1,.11.11v2.94h0a1.66,1.66,0,0,1,1.63-.88,1.73,1.73,0,0,1,1.82,1.28,5,5,0,0,1,.19,1.52,5,5,0,0,1-.19,1.51,1.73,1.73,0,0,1-1.82,1.28A1.66,1.66,0,0,1,26.08,20.51ZM29,19.85a4.2,4.2,0,0,0,.15-1.26A4.23,4.23,0,0,0,29,17.32a1.47,1.47,0,0,0-2.75,0,4,4,0,0,0-.15,1.27,3.91,3.91,0,0,0,.15,1.26,1.47,1.47,0,0,0,2.75,0Z"/><path class="cls-1" d="M31.54,21.27a.11.11,0,0,1-.11-.11V16a.11.11,0,0,1,.11-.11h.38A.11.11,0,0,1,32,16v.69h0a1.44,1.44,0,0,1,1.44-.91,1.67,1.67,0,0,1,1.08.37.09.09,0,0,1,0,.15l-.22.31c0,.06-.1.06-.17,0a1.55,1.55,0,0,0-.86-.27c-.95,0-1.31.82-1.31,1.81v3a.11.11,0,0,1-.11.11Z"/><path class="cls-1" d="M35.94,14.47a.11.11,0,0,1-.11-.11v-.63a.11.11,0,0,1,.11-.11h.49a.11.11,0,0,1,.11.11v.63a.11.11,0,0,1-.11.11Zm.06,6.8a.11.11,0,0,1-.11-.11V16A.11.11,0,0,1,36,15.9h.38a.11.11,0,0,1,.11.11v5.14a.11.11,0,0,1-.11.11Z"/><path class="cls-1" d="M38.37,17.19a2.13,2.13,0,0,1,3.82-.38.1.1,0,0,1,0,.15l-.32.2a.1.1,0,0,1-.15,0,1.4,1.4,0,0,0-1.32-.73,1.37,1.37,0,0,0-1.41,1,3.67,3.67,0,0,0-.15,1.2A3.59,3.59,0,0,0,39,19.79a1.37,1.37,0,0,0,1.41,1,1.4,1.4,0,0,0,1.32-.73.1.1,0,0,1,.15,0l.32.2a.1.1,0,0,1,0,.15A2.13,2.13,0,0,1,38.37,20a4.65,4.65,0,0,1-.17-1.4A4.74,4.74,0,0,1,38.37,17.19Z"/><path class="cls-1" d="M44.13,16.76a.11.11,0,0,1-.17,0l-.19-.28a.11.11,0,0,1,0-.16,2.59,2.59,0,0,1,1.71-.52c1.4,0,2,.46,2,1.78v3.59a.11.11,0,0,1-.11.11H47a.11.11,0,0,1-.11-.11V20.6h0a1.73,1.73,0,0,1-1.67.79c-1.08,0-1.8-.54-1.8-1.59s.73-1.59,2-1.59h1.36a.06.06,0,0,0,.07-.07v-.55c0-.88-.3-1.24-1.4-1.24A2,2,0,0,0,44.13,16.76Zm2.75,2.86V18.8a.06.06,0,0,0-.07-.07H45.53c-1.07,0-1.52.35-1.52,1.06s.47,1,1.33,1S46.88,20.35,46.88,19.62Z"/><path class="cls-1" d="M51,21.31c-1,0-1.4-.39-1.4-1.45V16.51a.06.06,0,0,0-.07-.07H49a.11.11,0,0,1-.11-.11V16A.11.11,0,0,1,49,15.9h.56a.06.06,0,0,0,.07-.07V14.29a.11.11,0,0,1,.11-.11h.38a.11.11,0,0,1,.11.11v1.54a.06.06,0,0,0,.07.07h1a.11.11,0,0,1,.11.11v.31a.11.11,0,0,1-.11.11h-1a.06.06,0,0,0-.07.07v3.31c0,.72.25.9.87.9h.21a.11.11,0,0,1,.11.11v.36a.11.11,0,0,1-.11.11Z"/><path class="cls-1" d="M52.77,20a4.45,4.45,0,0,1-.16-1.38,4.6,4.6,0,0,1,.16-1.4,2.13,2.13,0,0,1,4,0,4.26,4.26,0,0,1,.16,1.43.11.11,0,0,1-.12.11H53.3s-.07,0-.07.08a2.9,2.9,0,0,0,.11.95,1.48,1.48,0,0,0,1.52,1,1.83,1.83,0,0,0,1.5-.69.1.1,0,0,1,.16,0l.26.24a.1.1,0,0,1,0,.16,2.37,2.37,0,0,1-2,.9A2,2,0,0,1,52.77,20Zm3.47-1.76a.06.06,0,0,0,.07-.07,2.52,2.52,0,0,0-.1-.78,1.53,1.53,0,0,0-2.87,0,2.52,2.52,0,0,0-.1.78.06.06,0,0,0,.07.07Z"/><path class="cls-1" d="M62,21.27a.11.11,0,0,1-.11-.11v-.65h0a1.66,1.66,0,0,1-1.63.88,1.73,1.73,0,0,1-1.82-1.28,4.66,4.66,0,0,1-.19-1.51,4.68,4.68,0,0,1,.19-1.52,1.73,1.73,0,0,1,1.82-1.28,1.66,1.66,0,0,1,1.63.88h0V13.73a.11.11,0,0,1,.11-.11h.38a.11.11,0,0,1,.11.11v7.43a.11.11,0,0,1-.11.11Zm-.26-1.42a3.91,3.91,0,0,0,.15-1.26,4,4,0,0,0-.15-1.27,1.47,1.47,0,0,0-2.75,0,4.23,4.23,0,0,0-.15,1.27A4.2,4.2,0,0,0,59,19.85a1.47,1.47,0,0,0,2.75,0Z"/><path class="cls-1" d="M66.81,13.62a.14.14,0,0,1,.15-.11h.34a.08.08,0,0,1,.08.11l-2.49,7.66a.13.13,0,0,1-.15.11H64.4a.08.08,0,0,1-.08-.11Z"/><path class="cls-1" d="M69.28,21.27a.11.11,0,0,1-.11-.11V16a.11.11,0,0,1,.11-.11h.38a.11.11,0,0,1,.11.11v.69h0a1.44,1.44,0,0,1,1.44-.91,1.67,1.67,0,0,1,1.08.37.09.09,0,0,1,0,.15l-.22.31a.12.12,0,0,1-.17,0,1.55,1.55,0,0,0-.86-.27c-.95,0-1.31.82-1.31,1.81v3a.11.11,0,0,1-.11.11Z"/><path class="cls-1" d="M73.21,20a4.45,4.45,0,0,1-.16-1.38,4.6,4.6,0,0,1,.16-1.4,2.13,2.13,0,0,1,4,0,4.26,4.26,0,0,1,.16,1.43.11.11,0,0,1-.12.11h-3.5s-.07,0-.07.08a2.9,2.9,0,0,0,.11.95,1.48,1.48,0,0,0,1.52,1,1.83,1.83,0,0,0,1.5-.69.1.1,0,0,1,.16,0l.26.24a.1.1,0,0,1,0,.16,2.37,2.37,0,0,1-2,.9A2,2,0,0,1,73.21,20Zm3.47-1.76a.06.06,0,0,0,.07-.07,2.52,2.52,0,0,0-.1-.78,1.53,1.53,0,0,0-2.87,0,2.52,2.52,0,0,0-.1.78.06.06,0,0,0,.07.07Z"/><path class="cls-1" d="M79.49,16.76a.11.11,0,0,1-.17,0l-.19-.28a.11.11,0,0,1,0-.16,2.59,2.59,0,0,1,1.71-.52c1.4,0,2,.46,2,1.78v3.59a.11.11,0,0,1-.11.11h-.36a.11.11,0,0,1-.11-.11V20.6h0a1.73,1.73,0,0,1-1.67.79c-1.08,0-1.8-.54-1.8-1.59s.73-1.59,2-1.59h1.36a.06.06,0,0,0,.07-.07v-.55c0-.88-.3-1.24-1.4-1.24A2,2,0,0,0,79.49,16.76Zm2.75,2.86V18.8a.06.06,0,0,0-.07-.07H80.89c-1.07,0-1.52.35-1.52,1.06s.47,1,1.33,1S82.24,20.35,82.24,19.62Z"/><path class="cls-1" d="M88.24,21.27a.11.11,0,0,1-.11-.11v-.65h0a1.66,1.66,0,0,1-1.63.88,1.73,1.73,0,0,1-1.82-1.28,4.66,4.66,0,0,1-.19-1.51,4.68,4.68,0,0,1,.19-1.52,1.73,1.73,0,0,1,1.82-1.28,1.66,1.66,0,0,1,1.63.88h0V13.73a.11.11,0,0,1,.11-.11h.38a.11.11,0,0,1,.11.11v7.43a.11.11,0,0,1-.11.11ZM88,19.85a3.92,3.92,0,0,0,.15-1.26A4,4,0,0,0,88,17.32a1.47,1.47,0,0,0-2.75,0,4.23,4.23,0,0,0-.15,1.27,4.2,4.2,0,0,0,.15,1.26,1.47,1.47,0,0,0,2.75,0Z"/><path class="cls-1" d="M90.69,23.3a.11.11,0,0,1-.11-.11v-.36a.11.11,0,0,1,.11-.11h.2c.46,0,.71-.19,1-1l.21-.55-2-5.14c0-.07,0-.11.08-.11h.43c.08,0,.11,0,.15.11l1.63,4.31h0L94,16a.13.13,0,0,1,.13-.11h.43a.08.08,0,0,1,.08.11l-2.2,5.78C92,23,91.62,23.3,90.92,23.3Z"/><path class="cls-1" d="M95.42,18.45V18.1a.11.11,0,0,1,.11-.11h2.88a.11.11,0,0,1,.11.11v.35a.1.1,0,0,1-.11.11H95.53A.1.1,0,0,1,95.42,18.45Z"/><path class="cls-1" d="M107.18,21.27a.11.11,0,0,1-.11-.11V18c0-1.07-.48-1.61-1.42-1.61a1.4,1.4,0,0,0-1.45,1.5v3.29a.11.11,0,0,1-.11.11h-.38a.11.11,0,0,1-.11-.11V18c0-1.07-.47-1.61-1.41-1.61a1.41,1.41,0,0,0-1.46,1.5v3.29a.11.11,0,0,1-.11.11h-.38a.11.11,0,0,1-.11-.11V16a.11.11,0,0,1,.11-.11h.38a.11.11,0,0,1,.11.11v.64h0a1.69,1.69,0,0,1,1.59-.87,1.64,1.64,0,0,1,1.67,1h0a1.84,1.84,0,0,1,1.77-1,1.8,1.8,0,0,1,1.91,2v3.32a.11.11,0,0,1-.11.11Z"/><path class="cls-1" d="M109.72,14.47a.11.11,0,0,1-.11-.11v-.63a.11.11,0,0,1,.11-.11h.49a.11.11,0,0,1,.11.11v.63a.11.11,0,0,1-.11.11Zm.06,6.8a.11.11,0,0,1-.11-.11V16a.11.11,0,0,1,.11-.11h.38a.11.11,0,0,1,.11.11v5.14a.11.11,0,0,1-.11.11Z"/><path class="cls-1" d="M115.56,21.27a.16.16,0,0,1-.16-.09L113.92,19h0l-1.5,2.18a.15.15,0,0,1-.16.09h-.45c-.08,0-.1-.06-.07-.11l1.83-2.7L111.92,16c0-.06,0-.11.07-.11h.46a.17.17,0,0,1,.16.09l1.31,1.94h0L115.24,16a.17.17,0,0,1,.16-.09h.45c.08,0,.1.06.07.11l-1.67,2.44,1.85,2.7c0,.06,0,.11-.07.11Z"/><path class="cls-1" d="M.17,28.61a2,2,0,0,1,2-1.4,2,2,0,0,1,1.81,1,.1.1,0,0,1,0,.15l-.31.2a.1.1,0,0,1-.15,0,1.4,1.4,0,0,0-1.32-.73,1.38,1.38,0,0,0-1.41,1A3.68,3.68,0,0,0,.62,30a3.61,3.61,0,0,0,.14,1.19,1.38,1.38,0,0,0,1.41,1,1.4,1.4,0,0,0,1.32-.73.1.1,0,0,1,.15,0l.31.2a.1.1,0,0,1,0,.15,2,2,0,0,1-1.81,1,2,2,0,0,1-2-1.4A4.74,4.74,0,0,1,0,30,4.83,4.83,0,0,1,.17,28.61Z"/><path class="cls-1" d="M5.46,31.41a5.55,5.55,0,0,1,0-2.81,2,2,0,0,1,2-1.4,2,2,0,0,1,2,1.4,5.55,5.55,0,0,1,0,2.81,2,2,0,0,1-2,1.4A2,2,0,0,1,5.46,31.41Zm3.43-.19A3.67,3.67,0,0,0,9,30,3.64,3.64,0,0,0,8.9,28.8a1.42,1.42,0,0,0-1.43-1A1.41,1.41,0,0,0,6,28.8,3.64,3.64,0,0,0,5.9,30,3.66,3.66,0,0,0,6,31.22a1.41,1.41,0,0,0,1.42,1A1.42,1.42,0,0,0,8.9,31.22Z"/><path class="cls-1" d="M15,32.69a.11.11,0,0,1-.11-.11V29.4c0-1.07-.47-1.61-1.41-1.61A1.41,1.41,0,0,0,12,29.29v3.29a.11.11,0,0,1-.11.11h-.38a.11.11,0,0,1-.11-.11V27.44a.11.11,0,0,1,.11-.11h.38a.11.11,0,0,1,.11.11v.64h0a1.69,1.69,0,0,1,1.59-.87,1.79,1.79,0,0,1,1.88,2v3.32a.11.11,0,0,1-.11.11Z"/><path class="cls-1" d="M17.26,28.61a2,2,0,0,1,2-1.4,2,2,0,0,1,1.81,1,.1.1,0,0,1,0,.15l-.32.2a.1.1,0,0,1-.15,0,1.4,1.4,0,0,0-1.32-.73,1.37,1.37,0,0,0-1.41,1,3.68,3.68,0,0,0-.15,1.2,3.6,3.6,0,0,0,.15,1.19,1.37,1.37,0,0,0,1.41,1,1.4,1.4,0,0,0,1.32-.73.1.1,0,0,1,.15,0l.32.2a.1.1,0,0,1,0,.15,2,2,0,0,1-1.81,1,2,2,0,0,1-2-1.4,4.65,4.65,0,0,1-.17-1.4A4.74,4.74,0,0,1,17.26,28.61Z"/><path class="cls-1" d="M22.85,32.69a.11.11,0,0,1-.11-.11V27.44a.11.11,0,0,1,.11-.11h.38a.11.11,0,0,1,.11.11v.69h0a1.44,1.44,0,0,1,1.44-.91,1.67,1.67,0,0,1,1.08.37.09.09,0,0,1,0,.15l-.22.31a.12.12,0,0,1-.17,0,1.55,1.55,0,0,0-.86-.27c-.95,0-1.31.82-1.31,1.81v3a.11.11,0,0,1-.11.11Z"/><path class="cls-1" d="M26.78,31.39A4.45,4.45,0,0,1,26.63,30a4.6,4.6,0,0,1,.16-1.4,2.13,2.13,0,0,1,4,0A4.26,4.26,0,0,1,30.94,30a.11.11,0,0,1-.12.11h-3.5s-.07,0-.07.08a2.9,2.9,0,0,0,.11.95,1.48,1.48,0,0,0,1.52,1,1.83,1.83,0,0,0,1.5-.69.1.1,0,0,1,.16,0l.26.24a.1.1,0,0,1,0,.16,2.37,2.37,0,0,1-2,.9A2,2,0,0,1,26.78,31.39Zm3.47-1.76a.06.06,0,0,0,.07-.07,2.53,2.53,0,0,0-.1-.78,1.53,1.53,0,0,0-2.87,0,2.53,2.53,0,0,0-.1.78.06.06,0,0,0,.07.07Z"/><path class="cls-1" d="M34.17,32.73c-1,0-1.4-.39-1.4-1.45V27.93a.06.06,0,0,0-.07-.07h-.56a.11.11,0,0,1-.11-.11v-.31a.11.11,0,0,1,.11-.11h.56a.06.06,0,0,0,.07-.07V25.71a.11.11,0,0,1,.11-.11h.38a.11.11,0,0,1,.11.11v1.54a.06.06,0,0,0,.07.07h1a.11.11,0,0,1,.11.11v.31a.11.11,0,0,1-.11.11h-1a.06.06,0,0,0-.07.07v3.31c0,.72.25.9.87.9h.21a.11.11,0,0,1,.11.11v.36a.11.11,0,0,1-.11.11Z"/><path class="cls-1" d="M35.93,31.39A4.45,4.45,0,0,1,35.77,30a4.6,4.6,0,0,1,.16-1.4,2.13,2.13,0,0,1,4,0A4.26,4.26,0,0,1,40.08,30a.11.11,0,0,1-.12.11h-3.5s-.07,0-.07.08a2.9,2.9,0,0,0,.11.95,1.48,1.48,0,0,0,1.52,1,1.83,1.83,0,0,0,1.5-.69.1.1,0,0,1,.16,0l.26.24a.1.1,0,0,1,0,.16,2.37,2.37,0,0,1-2,.9A2,2,0,0,1,35.93,31.39Zm3.47-1.76a.06.06,0,0,0,.07-.07,2.53,2.53,0,0,0-.1-.78,1.53,1.53,0,0,0-2.87,0,2.53,2.53,0,0,0-.1.78.06.06,0,0,0,.07.07Z"/><path class="cls-1" d="M41.69,31.71h.49a.11.11,0,0,1,.11.11v.85a.45.45,0,0,1-.06.25l-.44.87a.14.14,0,0,1-.14.09c-.06,0-.08,0-.08-.1V31.83A.11.11,0,0,1,41.69,31.71Z"/><path class="cls-1" d="M47.1,28.18a.11.11,0,0,1-.17,0l-.19-.28a.11.11,0,0,1,0-.16,2.59,2.59,0,0,1,1.71-.52c1.4,0,2,.46,2,1.78v3.59a.11.11,0,0,1-.11.11H50a.11.11,0,0,1-.11-.11V32h0a1.73,1.73,0,0,1-1.67.79c-1.08,0-1.8-.54-1.8-1.59s.73-1.59,2-1.59h1.36a.06.06,0,0,0,.07-.07V29c0-.88-.3-1.24-1.4-1.24A2,2,0,0,0,47.1,28.18ZM49.85,31v-.82a.06.06,0,0,0-.07-.07H48.5c-1.07,0-1.52.35-1.52,1.06s.47,1,1.33,1S49.85,31.77,49.85,31Z"/><path class="cls-1" d="M52.32,34.05a.11.11,0,0,1,0-.16l.28-.25a.1.1,0,0,1,.16,0,1.7,1.7,0,0,0,1.33.57c1,0,1.53-.47,1.53-1.63v-.78h0a1.56,1.56,0,0,1-1.59.88,1.75,1.75,0,0,1-1.79-1.28A4.61,4.61,0,0,1,52.07,30a4.63,4.63,0,0,1,.18-1.46A1.76,1.76,0,0,1,54,27.21a1.57,1.57,0,0,1,1.59.88h0v-.65a.11.11,0,0,1,.11-.11h.38a.11.11,0,0,1,.11.11v5.16a2,2,0,0,1-2.15,2.24A2.2,2.2,0,0,1,52.32,34.05Zm3.18-2.86A3.9,3.9,0,0,0,55.64,30a3.88,3.88,0,0,0-.13-1.23,1.41,1.41,0,0,0-2.66,0A3.67,3.67,0,0,0,52.69,30a3.6,3.6,0,0,0,.16,1.23,1.28,1.28,0,0,0,1.32.94A1.31,1.31,0,0,0,55.51,31.2Z"/><path class="cls-1" d="M58.19,34.05a.11.11,0,0,1,0-.16l.28-.25a.1.1,0,0,1,.16,0,1.7,1.7,0,0,0,1.33.57c1,0,1.53-.47,1.53-1.63v-.78h0a1.56,1.56,0,0,1-1.59.88,1.75,1.75,0,0,1-1.79-1.28A4.61,4.61,0,0,1,57.94,30a4.62,4.62,0,0,1,.18-1.46,1.76,1.76,0,0,1,1.79-1.29,1.57,1.57,0,0,1,1.59.88h0v-.65a.11.11,0,0,1,.11-.11H62a.11.11,0,0,1,.11.11v5.16A2,2,0,0,1,60,34.83,2.2,2.2,0,0,1,58.19,34.05Zm3.18-2.86A3.89,3.89,0,0,0,61.51,30a3.87,3.87,0,0,0-.13-1.23A1.29,1.29,0,0,0,60,27.8a1.28,1.28,0,0,0-1.32.93A3.67,3.67,0,0,0,58.56,30a3.6,3.6,0,0,0,.16,1.23,1.28,1.28,0,0,0,1.32.94A1.31,1.31,0,0,0,61.37,31.2Z"/><path class="cls-1" d="M64.3,32.69a.11.11,0,0,1-.11-.11V27.44a.11.11,0,0,1,.11-.11h.38a.11.11,0,0,1,.11.11v.69h0a1.44,1.44,0,0,1,1.44-.91,1.67,1.67,0,0,1,1.08.37.09.09,0,0,1,0,.15l-.22.31a.12.12,0,0,1-.17,0,1.55,1.55,0,0,0-.85-.27c-.95,0-1.31.82-1.31,1.81v3a.11.11,0,0,1-.11.11Z"/><path class="cls-1" d="M68.23,31.39A4.45,4.45,0,0,1,68.07,30a4.6,4.6,0,0,1,.16-1.4,2.13,2.13,0,0,1,4,0A4.26,4.26,0,0,1,72.39,30a.11.11,0,0,1-.12.11h-3.5s-.07,0-.07.08a2.9,2.9,0,0,0,.11.95,1.48,1.48,0,0,0,1.52,1,1.83,1.83,0,0,0,1.5-.69.1.1,0,0,1,.16,0l.26.24a.1.1,0,0,1,0,.16,2.37,2.37,0,0,1-2,.9A2,2,0,0,1,68.23,31.39Zm3.47-1.76a.06.06,0,0,0,.07-.07,2.53,2.53,0,0,0-.1-.78,1.53,1.53,0,0,0-2.87,0,2.53,2.53,0,0,0-.1.78.06.06,0,0,0,.07.07Z"/><path class="cls-1" d="M74,34.05a.11.11,0,0,1,0-.16l.28-.25a.1.1,0,0,1,.16,0,1.7,1.7,0,0,0,1.33.57c1,0,1.53-.47,1.53-1.63v-.78h0a1.56,1.56,0,0,1-1.59.88,1.75,1.75,0,0,1-1.79-1.28A4.61,4.61,0,0,1,73.71,30a4.63,4.63,0,0,1,.18-1.46,1.76,1.76,0,0,1,1.79-1.29,1.57,1.57,0,0,1,1.59.88h0v-.65a.11.11,0,0,1,.11-.11h.38a.11.11,0,0,1,.11.11v5.16a2,2,0,0,1-2.15,2.24A2.2,2.2,0,0,1,74,34.05Zm3.18-2.86A3.9,3.9,0,0,0,77.27,30a3.88,3.88,0,0,0-.13-1.23,1.29,1.29,0,0,0-1.34-.95,1.28,1.28,0,0,0-1.32.93A3.67,3.67,0,0,0,74.32,30a3.6,3.6,0,0,0,.16,1.23,1.28,1.28,0,0,0,1.32.94A1.31,1.31,0,0,0,77.14,31.2Z"/><path class="cls-1" d="M80.37,28.18a.11.11,0,0,1-.17,0L80,27.88a.11.11,0,0,1,0-.16,2.59,2.59,0,0,1,1.71-.52c1.4,0,2,.46,2,1.78v3.59a.11.11,0,0,1-.11.11h-.36a.11.11,0,0,1-.11-.11V32h0a1.73,1.73,0,0,1-1.67.79c-1.08,0-1.8-.54-1.8-1.59s.73-1.59,2-1.59h1.36a.06.06,0,0,0,.07-.07V29c0-.88-.3-1.24-1.4-1.24A2,2,0,0,0,80.37,28.18ZM83.12,31v-.82a.06.06,0,0,0-.07-.07H81.77c-1.07,0-1.52.35-1.52,1.06s.47,1,1.33,1S83.12,31.77,83.12,31Z"/><path class="cls-1" d="M87.26,32.73c-1,0-1.4-.39-1.4-1.45V27.93a.06.06,0,0,0-.07-.07h-.56a.11.11,0,0,1-.11-.11v-.31a.11.11,0,0,1,.11-.11h.56a.06.06,0,0,0,.07-.07V25.71A.11.11,0,0,1,86,25.6h.38a.11.11,0,0,1,.11.11v1.54a.06.06,0,0,0,.07.07h1a.11.11,0,0,1,.11.11v.31a.11.11,0,0,1-.11.11h-1a.06.06,0,0,0-.07.07v3.31c0,.72.25.9.87.9h.21a.11.11,0,0,1,.11.11v.36a.11.11,0,0,1-.11.11Z"/><path class="cls-1" d="M89,31.39A4.45,4.45,0,0,1,88.85,30a4.6,4.6,0,0,1,.16-1.4,2.13,2.13,0,0,1,4,0A4.26,4.26,0,0,1,93.16,30a.11.11,0,0,1-.12.11h-3.5s-.07,0-.07.08a2.9,2.9,0,0,0,.11.95,1.48,1.48,0,0,0,1.52,1,1.83,1.83,0,0,0,1.5-.69.1.1,0,0,1,.16,0l.26.24a.1.1,0,0,1,0,.16,2.37,2.37,0,0,1-2,.9A2,2,0,0,1,89,31.39Zm3.47-1.76a.06.06,0,0,0,.07-.07,2.53,2.53,0,0,0-.1-.78,1.53,1.53,0,0,0-2.87,0,2.52,2.52,0,0,0-.1.78.06.06,0,0,0,.07.07Z"/><path class="cls-1" d="M94.44,32.05a.11.11,0,0,1,0-.16l.25-.28a.12.12,0,0,1,.16,0,2.75,2.75,0,0,0,1.74.63c.93,0,1.4-.42,1.4-1s-.24-.83-1.23-.95l-.54-.06c-1-.1-1.56-.59-1.56-1.43s.71-1.57,1.89-1.57a3.31,3.31,0,0,1,1.79.52.11.11,0,0,1,0,.16l-.2.27a.11.11,0,0,1-.16,0,3.18,3.18,0,0,0-1.49-.42c-.82,0-1.25.36-1.25,1s.33.81,1.24.9l.54.06c1,.1,1.55.61,1.55,1.44,0,1-.72,1.68-2.06,1.68A3.25,3.25,0,0,1,94.44,32.05Z"/></g></g></svg>