<svg viewBox="0 0 109.22 37.06" xmlns="http://www.w3.org/2000/svg"><g fill="#fff"><path d="m6.23 12.19c-.1 0-.14 0-.18-.14l-1.94-4h-2.11a.08.08 0 0 0 -.09.09v3.88a.13.13 0 0 1 -.14.14h-1a.13.13 0 0 1 -.14-.14v-9.38a.14.14 0 0 1 .12-.14h3.51a2.77 2.77 0 0 1 3 2.8 2.64 2.64 0 0 1 -1.87 2.63l2.07 4.07a.1.1 0 0 1 -.09.17zm-.23-6.9c0-1-.67-1.61-1.8-1.61h-2.2a.08.08 0 0 0 -.09.09v3.05a.08.08 0 0 0 .09.08h2.23c1.13 0 1.77-.6 1.77-1.61z"/><path d="m9.42 2.64a.14.14 0 0 1 .14-.14h1a.13.13 0 0 1 .14.14v5l4.12-5.06a.24.24 0 0 1 .18-.08h1.17c.09 0 .13.09.06.17l-3 3.64 3.33 5.69c.06.08 0 .16-.09.16h-1.13a.2.2 0 0 1 -.2-.13l-2.73-4.74-1.72 2.08v2.68a.13.13 0 0 1 -.14.14h-1a.14.14 0 0 1 -.14-.14z"/><path d="m21.64 2.64a.14.14 0 0 1 .14-.14h.93a.22.22 0 0 1 .23.14l2.89 6.53 2.84-6.53a.22.22 0 0 1 .23-.14h.93a.14.14 0 0 1 .14.14v9.41a.13.13 0 0 1 -.14.14h-.83a.14.14 0 0 1 -.14-.14v-6.74l-2.41 5.33a.25.25 0 0 1 -.26.17h-.57a.25.25 0 0 1 -.27-.17l-2.49-5.33v6.75a.13.13 0 0 1 -.14.14h-.9a.13.13 0 0 1 -.14-.14z"/><path d="m32.41 2.64a.14.14 0 0 1 .14-.14h5.83a.14.14 0 0 1 .14.14v.9a.13.13 0 0 1 -.14.14h-4.61a.08.08 0 0 0 -.09.09v2.85a.08.08 0 0 0 .09.09h3.92a.13.13 0 0 1 .14.14v.9a.13.13 0 0 1 -.14.14h-3.92a.08.08 0 0 0 -.09.08v3a.08.08 0 0 0 .09.08h4.62a.14.14 0 0 1 .14.14v.9a.14.14 0 0 1 -.14.14h-5.83a.14.14 0 0 1 -.14-.14z"/><path d="m42.59 12.19a.14.14 0 0 1 -.14-.14v-8.28a.08.08 0 0 0 -.09-.09h-2.65a.13.13 0 0 1 -.14-.14v-.9a.14.14 0 0 1 .14-.14h6.74a.14.14 0 0 1 .14.14v.9a.13.13 0 0 1 -.14.14h-2.65a.08.08 0 0 0 -.09.09v8.29a.14.14 0 0 1 -.14.14z"/><path d="m49.6 2.64c0-.09.07-.14.17-.14h.93a.18.18 0 0 1 .18.14l3.32 9.41a.1.1 0 0 1 -.1.14h-1a.17.17 0 0 1 -.19-.14l-.74-2.11h-3.91l-.74 2.11a.19.19 0 0 1 -.19.14h-1a.1.1 0 0 1 -.1-.14zm-1.21-1.71a.13.13 0 0 1 -.14-.14v-.65a.14.14 0 0 1 .14-.14h3.61a.14.14 0 0 1 .14.14v.65a.13.13 0 0 1 -.14.14zm3.38 7.84-1.53-4.41-1.57 4.41z"/><path d="m55.75 2.64a.14.14 0 0 1 .14-.14h1a.13.13 0 0 1 .14.14v8.29a.08.08 0 0 0 .09.08h4.62a.14.14 0 0 1 .14.14v.9a.14.14 0 0 1 -.14.14h-5.84a.14.14 0 0 1 -.14-.14z"/><path d="m63 11.14a.15.15 0 0 1 0-.21l.63-.74a.13.13 0 0 1 .2 0 4.46 4.46 0 0 0 2.71 1c1.34 0 2.14-.67 2.14-1.65 0-.83-.47-1.38-2-1.58l-.49-.07c-1.88-.26-2.85-1.16-2.85-2.68 0-1.73 1.24-2.84 3.17-2.84a5.15 5.15 0 0 1 3 .9.13.13 0 0 1 0 .2l-.48.79a.14.14 0 0 1 -.2 0 4.29 4.29 0 0 0 -2.34-.73c-1.18 0-1.84.64-1.84 1.57s.54 1.35 2 1.55l.47.07c1.88.28 2.79 1.12 2.79 2.71s-1.2 2.92-3.54 2.92a5.33 5.33 0 0 1 -3.37-1.21z"/><path d="m75.12 13.9a.13.13 0 0 1 0-.2l.58-.58a.13.13 0 0 1 .21 0 2.28 2.28 0 0 0 1.61.68c1.13 0 1.73-.58 1.73-1.84v-.8a2 2 0 0 1 -1.9.94 2.24 2.24 0 0 1 -2.3-1.65 5.37 5.37 0 0 1 -.23-1.8 5.38 5.38 0 0 1 .23-1.8 2.24 2.24 0 0 1 2.3-1.65 2 2 0 0 1 1.9.94v-.64a.13.13 0 0 1 .14-.14h.91a.13.13 0 0 1 .14.14v6.39a2.71 2.71 0 0 1 -3 3 3.08 3.08 0 0 1 -2.32-.99zm4-3.92a4.16 4.16 0 0 0 .16-1.33 4.22 4.22 0 0 0 -.16-1.33 1.54 1.54 0 0 0 -2.89 0 4.29 4.29 0 0 0 -.17 1.33 4.23 4.23 0 0 0 .16 1.35 1.39 1.39 0 0 0 1.44 1 1.41 1.41 0 0 0 1.46-1z"/><path d="m83 12.19a.13.13 0 0 1 -.14-.14v-6.55a.13.13 0 0 1 .14-.14h.91a.13.13 0 0 1 .09.14v.7a1.9 1.9 0 0 1 1.81-1 2.11 2.11 0 0 1 1.4.51c.07.07.09.13 0 .2l-.53.7a.13.13 0 0 1 -.2 0 1.93 1.93 0 0 0 -1.06-.33c-1 0-1.47.81-1.47 2v3.74a.13.13 0 0 1 -.14.14z"/><path d="m88.23 10.51a5.13 5.13 0 0 1 -.23-1.74 5.09 5.09 0 0 1 .23-1.77 2.89 2.89 0 0 1 5.39 0 5.06 5.06 0 0 1 .23 1.72 5.1 5.1 0 0 1 -.23 1.74 2.89 2.89 0 0 1 -5.39 0zm4.24-.34a4.49 4.49 0 0 0 .16-1.4 4.38 4.38 0 0 0 -.16-1.38 1.64 1.64 0 0 0 -3.08 0 4.38 4.38 0 0 0 -.16 1.38 4.49 4.49 0 0 0 .16 1.4 1.64 1.64 0 0 0 3.08 0z"/><path d="m100.07 12.19a.14.14 0 0 1 -.14-.14v-.64a2.08 2.08 0 0 1 -1.87.94 2.3 2.3 0 0 1 -2.37-2.58v-4.27a.13.13 0 0 1 .14-.14h.91a.13.13 0 0 1 .14.14v4c0 1.11.5 1.75 1.51 1.75a1.52 1.52 0 0 0 1.54-1.68v-4.07a.14.14 0 0 1 .14-.14h.93a.14.14 0 0 1 .14.14v6.55a.14.14 0 0 1 -.14.14z"/><path d="m103.62 14.76a.14.14 0 0 1 -.14-.14v-9.12a.13.13 0 0 1 .14-.14h.91a.13.13 0 0 1 .14.14v.64a2.07 2.07 0 0 1 1.94-.94 2.25 2.25 0 0 1 2.39 1.64 5.64 5.64 0 0 1 .24 1.93 5.66 5.66 0 0 1 -.24 1.94 2.25 2.25 0 0 1 -2.35 1.64 2.08 2.08 0 0 1 -1.94-1v3.22a.13.13 0 0 1 -.14.14zm4.22-4.56a4.71 4.71 0 0 0 .16-1.43 4.83 4.83 0 0 0 -.16-1.43 1.62 1.62 0 0 0 -3 0 4.45 4.45 0 0 0 -.16 1.43 4.39 4.39 0 0 0 .16 1.43 1.61 1.61 0 0 0 3 0z"/><path d="m0 23a.11.11 0 0 1 0-.16l.25-.28a.12.12 0 0 1 .16 0 2.76 2.76 0 0 0 1.74.63c.93 0 1.4-.42 1.4-1s-.24-.83-1.23-.95l-.54-.06c-.97-.18-1.53-.64-1.53-1.48s.75-1.57 1.89-1.57a3.31 3.31 0 0 1 1.79.52.11.11 0 0 1 0 .16l-.2.27a.11.11 0 0 1 -.16 0 3.18 3.18 0 0 0 -1.49-.42c-.82 0-1.25.36-1.25 1s.33.81 1.24.9l.54.06c1 .1 1.55.61 1.55 1.44 0 1-.72 1.68-2.06 1.68a3.25 3.25 0 0 1 -2.1-.74z"/><path d="m7.4 23.65c-1 0-1.4-.39-1.4-1.45v-3.35a.06.06 0 0 0 -.07-.07h-.56a.11.11 0 0 1 -.11-.11v-.31a.11.11 0 0 1 .11-.11h.56a.06.06 0 0 0 .07-.07v-1.55a.11.11 0 0 1 .11-.11h.39a.11.11 0 0 1 .11.11v1.54a.06.06 0 0 0 .07.07h1a.11.11 0 0 1 .11.11v.31a.11.11 0 0 1 -.11.11h-1a.06.06 0 0 0 -.07.07v3.31c0 .72.25.9.87.9h.21a.11.11 0 0 1 .11.11v.36a.11.11 0 0 1 -.11.11z"/><path d="m9.15 22.31a4.41 4.41 0 0 1 -.15-1.39 4.56 4.56 0 0 1 .16-1.4 2 2 0 0 1 2-1.4 2 2 0 0 1 2 1.4 4.26 4.26 0 0 1 .15 1.48.11.11 0 0 1 -.12.11h-3.51a.07.07 0 0 0 -.07.08 2.9 2.9 0 0 0 .11.95 1.48 1.48 0 0 0 1.52 1 1.83 1.83 0 0 0 1.5-.69.1.1 0 0 1 .16 0l.26.24a.1.1 0 0 1 0 .16 2.37 2.37 0 0 1 -2 .9 2 2 0 0 1 -2.01-1.44zm3.47-1.76a.06.06 0 0 0 .07-.07 2.53 2.53 0 0 0 -.1-.78 1.4 1.4 0 0 0 -1.44-1 1.4 1.4 0 0 0 -1.43 1 2.53 2.53 0 0 0 -.1.78.06.06 0 0 0 .07.07z"/><path d="m14.8 22.31a4.42 4.42 0 0 1 -.16-1.38 4.57 4.57 0 0 1 .16-1.4 2 2 0 0 1 2-1.4 2 2 0 0 1 2 1.4 4.26 4.26 0 0 1 .2 1.47.11.11 0 0 1 -.12.11h-3.5a.07.07 0 0 0 -.07.08 2.9 2.9 0 0 0 .11.95 1.48 1.48 0 0 0 1.52 1 1.83 1.83 0 0 0 1.5-.69.1.1 0 0 1 .16 0l.26.24a.1.1 0 0 1 0 .16 2.37 2.37 0 0 1 -2 .9 2 2 0 0 1 -2.06-1.44zm3.47-1.76a.06.06 0 0 0 .07-.07 2.53 2.53 0 0 0 -.1-.78 1.4 1.4 0 0 0 -1.44-1 1.4 1.4 0 0 0 -1.43 1 2.49 2.49 0 0 0 -.1.78.06.06 0 0 0 .07.07z"/><path d="m21.75 23.65c-.81 0-1.11-.37-1.11-1.26v-6.32a.11.11 0 0 1 .11-.11h.38a.1.1 0 0 1 .11.11v6.29c0 .53.17.7.58.7h.18a.11.11 0 0 1 .11.11v.36a.11.11 0 0 1 -.11.11z"/><path d="m25.94 23a.11.11 0 0 1 0-.16l.25-.28a.12.12 0 0 1 .16 0 2.76 2.76 0 0 0 1.74.63c.93 0 1.4-.42 1.4-1s-.24-.83-1.23-.95l-.54-.06c-1-.1-1.56-.59-1.56-1.43s.71-1.57 1.89-1.57a3.31 3.31 0 0 1 1.79.52.11.11 0 0 1 0 .16l-.2.27a.11.11 0 0 1 -.16 0 3.18 3.18 0 0 0 -1.48-.44c-.82 0-1.25.36-1.25 1s.33.81 1.24.9l.54.06c1 .1 1.55.61 1.55 1.44 0 1-.72 1.68-2.06 1.68a3.25 3.25 0 0 1 -2.08-.77z"/><path d="m33.31 23.65c-1 0-1.4-.39-1.4-1.45v-3.35a.06.06 0 0 0 -.07-.07h-.56a.11.11 0 0 1 -.11-.11v-.31a.11.11 0 0 1 .11-.11h.56a.06.06 0 0 0 .07-.07v-1.55a.11.11 0 0 1 .11-.11h.38a.11.11 0 0 1 .11.11v1.54a.06.06 0 0 0 .07.07h1a.11.11 0 0 1 .11.11v.31a.11.11 0 0 1 -.11.11h-1a.06.06 0 0 0 -.07.07v3.31c0 .72.25.9.87.9h.21a.11.11 0 0 1 .11.11v.36a.11.11 0 0 1 -.11.11z"/><path d="m35.37 23.61a.11.11 0 0 1 -.11-.11v-5.14a.11.11 0 0 1 .11-.11h.38a.11.11 0 0 1 .11.11v.64a1.44 1.44 0 0 1 1.44-.91 1.67 1.67 0 0 1 1.08.37.09.09 0 0 1 0 .15l-.18.39a.12.12 0 0 1 -.2 0 1.56 1.56 0 0 0 -.86-.27c-.95 0-1.31.82-1.31 1.81v3a.11.11 0 0 1 -.11.11z"/><path d="m43.17 23.61a.11.11 0 0 1 -.11-.11v-.63a1.67 1.67 0 0 1 -1.57.85c-1.19 0-1.86-.74-1.86-2v-3.36a.11.11 0 0 1 .11-.11h.38a.11.11 0 0 1 .11.11v3.17c0 1.08.45 1.61 1.38 1.61a1.4 1.4 0 0 0 1.44-1.5v-3.28a.11.11 0 0 1 .11-.11h.38a.11.11 0 0 1 .11.11v5.14a.11.11 0 0 1 -.11.11z"/><path d="m45.54 19.52a2.13 2.13 0 0 1 3.82-.38.1.1 0 0 1 0 .15l-.31.2a.1.1 0 0 1 -.15 0 1.4 1.4 0 0 0 -1.32-.73 1.37 1.37 0 0 0 -1.41 1 3.68 3.68 0 0 0 -.15 1.2 3.6 3.6 0 0 0 .15 1.19 1.37 1.37 0 0 0 1.41 1 1.4 1.4 0 0 0 1.32-.73.1.1 0 0 1 .15 0l.31.2a.1.1 0 0 1 0 .15 2.13 2.13 0 0 1 -3.82-.38 4.75 4.75 0 0 1 -.17-1.4 4.84 4.84 0 0 1 .17-1.47z"/><path d="m52.56 23.65c-1 0-1.4-.39-1.4-1.45v-3.35a.06.06 0 0 0 -.07-.07h-.56a.11.11 0 0 1 -.11-.11v-.31a.11.11 0 0 1 .11-.11h.56a.06.06 0 0 0 .07-.07v-1.55a.11.11 0 0 1 .11-.11h.38a.11.11 0 0 1 .11.11v1.54a.06.06 0 0 0 .07.07h1a.11.11 0 0 1 .11.11v.31a.11.11 0 0 1 -.11.11h-1a.06.06 0 0 0 -.07.07v3.31c0 .72.25.9.87.9h.21a.11.11 0 0 1 .11.11v.36a.11.11 0 0 1 -.11.11z"/><path d="m58 23.61a.11.11 0 0 1 -.11-.11v-.63a1.67 1.67 0 0 1 -1.56.85c-1.19 0-1.86-.74-1.86-2v-3.36a.11.11 0 0 1 .11-.11h.38a.11.11 0 0 1 .11.11v3.17c0 1.08.45 1.61 1.38 1.61a1.4 1.4 0 0 0 1.44-1.5v-3.28a.11.11 0 0 1 .11-.11h.38a.11.11 0 0 1 .11.11v5.14a.11.11 0 0 1 -.11.11z"/><path d="m60.64 23.61a.11.11 0 0 1 -.11-.11v-5.14a.11.11 0 0 1 .11-.11h.36a.11.11 0 0 1 .11.11v.64a1.44 1.44 0 0 1 1.44-.91 1.67 1.67 0 0 1 1.08.37.09.09 0 0 1 0 .15l-.23.31a.12.12 0 0 1 -.17 0 1.56 1.56 0 0 0 -.86-.27c-.94 0-1.31.82-1.31 1.81v3a.11.11 0 0 1 -.11.11z"/><path d="m64.58 22.31a4.41 4.41 0 0 1 -.16-1.38 4.56 4.56 0 0 1 .16-1.4 2.13 2.13 0 0 1 4 0 4.26 4.26 0 0 1 .15 1.47.11.11 0 0 1 -.12.11h-3.5a.07.07 0 0 0 -.07.08 2.9 2.9 0 0 0 .11.95 1.48 1.48 0 0 0 1.52 1 1.83 1.83 0 0 0 1.5-.69.1.1 0 0 1 .16 0l.26.24a.1.1 0 0 1 0 .16 2.37 2.37 0 0 1 -2 .9 2 2 0 0 1 -2.01-1.44zm3.42-1.76a.06.06 0 0 0 .07-.07 2.53 2.53 0 0 0 -.1-.78 1.52 1.52 0 0 0 -2.87 0 2.53 2.53 0 0 0 -.1.78.06.06 0 0 0 .07.07z"/><path d="m70 23a.11.11 0 0 1 0-.16l.25-.28a.12.12 0 0 1 .16 0 2.76 2.76 0 0 0 1.74.63c.93 0 1.4-.42 1.4-1s-.24-.83-1.23-.95l-.54-.06c-1-.1-1.56-.59-1.56-1.43s.71-1.57 1.89-1.57a3.31 3.31 0 0 1 1.79.52.11.11 0 0 1 0 .16l-.2.27a.11.11 0 0 1 -.16 0 3.18 3.18 0 0 0 -1.49-.42c-.82 0-1.25.36-1.25 1s.33.81 1.24.9l.54.06c1 .1 1.55.61 1.55 1.44 0 1-.72 1.68-2.06 1.68a3.25 3.25 0 0 1 -2.07-.79z"/><path d="m7.52 35a.11.11 0 0 1 -.11-.11v-3.15c0-1.07-.48-1.61-1.42-1.61a1.4 1.4 0 0 0 -1.45 1.5v3.29a.11.11 0 0 1 -.11.11h-.43a.11.11 0 0 1 -.11-.11v-3.18c0-1.07-.47-1.61-1.41-1.61a1.41 1.41 0 0 0 -1.46 1.5v3.29a.11.11 0 0 1 -.07.08h-.39a.11.11 0 0 1 -.11-.11v-5.12a.11.11 0 0 1 .11-.11h.39a.11.11 0 0 1 .11.11v.64a1.69 1.69 0 0 1 1.59-.87 1.64 1.64 0 0 1 1.67 1 1.84 1.84 0 0 1 1.77-1 1.8 1.8 0 0 1 1.91 2.06v3.32a.11.11 0 0 1 -.1.08z"/><path d="m10.44 30.52a.11.11 0 0 1 -.17 0l-.19-.28a.11.11 0 0 1 0-.16 2.59 2.59 0 0 1 1.71-.52c1.4 0 2 .46 2 1.78v3.59a.11.11 0 0 1 -.11.11h-.36a.11.11 0 0 1 -.11-.11v-.56a1.73 1.73 0 0 1 -1.67.79c-1.08 0-1.8-.54-1.8-1.59s.73-1.59 2-1.59h1.36a.06.06 0 0 0 .07-.07v-.55c0-.88-.3-1.24-1.4-1.24a2 2 0 0 0 -1.33.4zm2.75 2.86v-.82a.06.06 0 0 0 -.07-.07h-1.29c-1.07 0-1.52.35-1.52 1.06s.47 1 1.33 1 1.54-.44 1.54-1.17z"/><path d="m15.58 30.94a2 2 0 0 1 2-1.4 2 2 0 0 1 1.81 1 .1.1 0 0 1 0 .15l-.31.2a.1.1 0 0 1 -.15 0 1.4 1.4 0 0 0 -1.32-.73 1.37 1.37 0 0 0 -1.41 1 3.67 3.67 0 0 0 -.15 1.2 3.6 3.6 0 0 0 .15 1.19 1.37 1.37 0 0 0 1.41 1 1.4 1.4 0 0 0 1.32-.73.1.1 0 0 1 .15 0l.31.2a.1.1 0 0 1 0 .15 2 2 0 0 1 -1.81 1 2 2 0 0 1 -2-1.4 4.75 4.75 0 0 1 -.17-1.4 4.84 4.84 0 0 1 .17-1.43z"/><path d="m24.65 35a.11.11 0 0 1 -.11-.11v-3.15c0-1.07-.47-1.61-1.41-1.61a1.41 1.41 0 0 0 -1.46 1.5v3.29a.11.11 0 0 1 -.11.11h-.38a.11.11 0 0 1 -.11-.11v-7.43a.11.11 0 0 1 .11-.11h.38a.11.11 0 0 1 .11.11v2.93a1.69 1.69 0 0 1 1.59-.87 1.79 1.79 0 0 1 1.88 2v3.32a.11.11 0 0 1 -.14.13z"/><path d="m27.2 28.23a.11.11 0 0 1 -.11-.11v-.63a.11.11 0 0 1 .11-.11h.5a.11.11 0 0 1 .11.11v.63a.11.11 0 0 1 -.11.11zm.06 6.8a.11.11 0 0 1 -.11-.11v-5.15a.11.11 0 0 1 .11-.11h.38a.11.11 0 0 1 .11.11v5.14a.11.11 0 0 1 -.11.11z"/><path d="m33.41 35a.11.11 0 0 1 -.11-.11v-3.15c0-1.07-.47-1.61-1.41-1.61a1.41 1.41 0 0 0 -1.46 1.5v3.29a.11.11 0 0 1 -.11.11h-.38a.11.11 0 0 1 -.11-.11v-5.15a.11.11 0 0 1 .11-.11h.38a.11.11 0 0 1 .11.11v.64a1.69 1.69 0 0 1 1.57-.86 1.79 1.79 0 0 1 1.88 2v3.32a.11.11 0 0 1 -.11.11z"/><path d="m35.7 33.73a4.42 4.42 0 0 1 -.16-1.38 4.57 4.57 0 0 1 .16-1.4 2.13 2.13 0 0 1 4 0 4.26 4.26 0 0 1 .16 1.43.11.11 0 0 1 -.12.11h-3.5a.07.07 0 0 0 -.07.08 2.89 2.89 0 0 0 .11.95 1.48 1.48 0 0 0 1.52 1 1.83 1.83 0 0 0 1.5-.69.1.1 0 0 1 .16 0l.26.24a.1.1 0 0 1 0 .16 2.37 2.37 0 0 1 -2 .9 2 2 0 0 1 -2.02-1.4zm3.47-1.73a.06.06 0 0 0 .07-.07 2.52 2.52 0 0 0 -.1-.78 1.52 1.52 0 0 0 -2.87 0 2.48 2.48 0 0 0 -.1.78.06.06 0 0 0 .07.07z"/><path d="m41.66 35a.11.11 0 0 1 -.11-.11v-5.12a.11.11 0 0 1 .11-.11h.34a.11.11 0 0 1 .11.11v.69a1.44 1.44 0 0 1 1.44-.91 1.67 1.67 0 0 1 1.08.37.09.09 0 0 1 0 .15l-.23.31c0 .06-.1.06-.17 0a1.56 1.56 0 0 0 -.86-.27c-.95 0-1.31.82-1.31 1.81v3a.11.11 0 0 1 -.06.08z"/><path d="m45.89 37.06a.11.11 0 0 1 -.11-.11v-.36a.11.11 0 0 1 .11-.11h.2c.46 0 .71-.19 1-1l.21-.55-2-5.14c0-.07 0-.11.08-.11h.43c.08 0 .11 0 .15.11l1.63 4.31 1.59-4.31a.13.13 0 0 1 .13-.11h.43a.08.08 0 0 1 .08.11l-2.2 5.78c-.46 1.24-.84 1.51-1.54 1.51z"/><path d="m53.6 34.39a.11.11 0 0 1 0-.16l.25-.28a.12.12 0 0 1 .15.05 2.76 2.76 0 0 0 1.74.63c.93 0 1.4-.42 1.4-1s-.24-.83-1.23-.94l-.54-.06c-1-.1-1.56-.59-1.56-1.43s.71-1.57 1.89-1.57a3.31 3.31 0 0 1 1.79.52.11.11 0 0 1 0 .16l-.2.27a.11.11 0 0 1 -.16 0 3.18 3.18 0 0 0 -1.49-.42c-.82 0-1.25.36-1.25 1s.33.81 1.24.9l.54.06c1 .1 1.55.61 1.55 1.44 0 1-.72 1.68-2.06 1.68a3.25 3.25 0 0 1 -2.06-.85z"/><path d="m59.25 33.75a5.55 5.55 0 0 1 0-2.8 2.14 2.14 0 0 1 4 0 5.55 5.55 0 0 1 0 2.8 2.14 2.14 0 0 1 -4 0zm3.43-.19a3.67 3.67 0 0 0 .15-1.22 3.64 3.64 0 0 0 -.15-1.21 1.51 1.51 0 0 0 -2.85 0 3.64 3.64 0 0 0 -.15 1.21 3.67 3.67 0 0 0 .15 1.22 1.51 1.51 0 0 0 2.85 0z"/><path d="m66.25 35.07c-.81 0-1.11-.37-1.11-1.26v-6.32a.11.11 0 0 1 .11-.11h.38a.11.11 0 0 1 .11.11v6.29c0 .53.17.7.57.7h.19a.11.11 0 0 1 .11.11v.41a.11.11 0 0 1 -.11.11z"/><path d="m71.55 35a.11.11 0 0 1 -.11-.11v-.63a1.67 1.67 0 0 1 -1.56.86c-1.19 0-1.86-.74-1.86-2v-3.35a.11.11 0 0 1 .11-.11h.38a.11.11 0 0 1 .11.11v3.17c0 1.08.45 1.61 1.38 1.61a1.4 1.4 0 0 0 1.44-1.5v-3.28a.11.11 0 0 1 .11-.11h.38a.11.11 0 0 1 .11.11v5.14a.11.11 0 0 1 -.11.11z"/><path d="m75.65 35.07c-1 0-1.4-.39-1.4-1.45v-3.35a.06.06 0 0 0 -.07-.07h-.56a.11.11 0 0 1 -.11-.11v-.31a.11.11 0 0 1 .11-.11h.56a.06.06 0 0 0 .07-.07v-1.55a.11.11 0 0 1 .11-.11h.38a.11.11 0 0 1 .11.11v1.54a.06.06 0 0 0 .07.07h1a.11.11 0 0 1 .11.11v.31a.11.11 0 0 1 -.11.11h-1a.06.06 0 0 0 -.07.07v3.31c0 .72.25.9.87.9h.21a.11.11 0 0 1 .11.11v.42a.11.11 0 0 1 -.11.11z"/><path d="m77.67 28.23a.11.11 0 0 1 -.11-.11v-.63a.11.11 0 0 1 .11-.11h.5a.11.11 0 0 1 .11.11v.63a.11.11 0 0 1 -.11.11zm.06 6.8a.11.11 0 0 1 -.11-.11v-5.15a.11.11 0 0 1 .11-.11h.38a.11.11 0 0 1 .11.11v5.14a.11.11 0 0 1 -.11.11z"/><path d="m80.11 33.75a5.55 5.55 0 0 1 0-2.8 2.14 2.14 0 0 1 4 0 5.55 5.55 0 0 1 0 2.8 2.14 2.14 0 0 1 -4 0zm3.43-.19a3.67 3.67 0 0 0 .15-1.22 3.65 3.65 0 0 0 -.15-1.21 1.51 1.51 0 0 0 -2.85 0 3.64 3.64 0 0 0 -.15 1.21 3.66 3.66 0 0 0 .15 1.22 1.51 1.51 0 0 0 2.85 0z"/><path d="m89.6 35a.11.11 0 0 1 -.11-.11v-3.15c0-1.07-.47-1.61-1.41-1.61a1.41 1.41 0 0 0 -1.46 1.5v3.29a.11.11 0 0 1 -.11.11h-.38a.11.11 0 0 1 -.11-.11v-5.15a.11.11 0 0 1 .11-.11h.38a.11.11 0 0 1 .11.11v.64a1.69 1.69 0 0 1 1.59-.87 1.79 1.79 0 0 1 1.88 2v3.32a.11.11 0 0 1 -.09.14z"/><path d="m91.68 34.39a.11.11 0 0 1 0-.16l.25-.28a.12.12 0 0 1 .16 0 2.76 2.76 0 0 0 1.74.63c.93 0 1.4-.42 1.4-1s-.23-.87-1.23-.98l-.54-.06c-1-.1-1.56-.59-1.56-1.43s.71-1.57 1.89-1.57a3.31 3.31 0 0 1 1.79.52.11.11 0 0 1 0 .16l-.2.27a.11.11 0 0 1 -.16 0 3.18 3.18 0 0 0 -1.49-.42c-.82 0-1.25.36-1.25 1s.33.81 1.24.9l.54.06c1 .1 1.55.61 1.55 1.44 0 1-.72 1.68-2.06 1.68a3.25 3.25 0 0 1 -2.07-.76z"/></g></svg>