<svg viewBox="0 0 60.41 23" xmlns="http://www.w3.org/2000/svg"><g opacity=".8"><circle cx="11.5" cy="11.5" fill="#fff" opacity=".2" r="11.5"/><circle cx="11.5" cy="11.5" fill="#242a30" r="8.9"/><circle cx="5.67" cy="4.91" fill="#242a30" r="1.38"/><circle cx="17.33" cy="4.91" fill="#242a30" r="1.38"/><path d="m4.29 5.85v9.3a2 2 0 0 0 2 2h3.6l-1-2.76h-1.89v-4.39h3.39v4.1h2.12s0-4.14 0-4.14h3.49v4.47h-1.9l-1.1 2.75h3.68a2 2 0 0 0 2-2v-9.33z" fill="#fff"/><path d="m18.71 7.37-2.76-1.52v-.94h2.76z" fill="#242a30"/><path d="m7 13.3h-.82v1.7h2v-.61a1.12 1.12 0 0 1 -1.18-1.09z" fill="#fff"/><path d="m7.05 5.85-2.76 1.52v-2.46h2.76z" fill="#242a30"/><g fill="#fff"><path d="m7 11.08h-.82v-1.73h2v.65a1.12 1.12 0 0 0 -1.18 1.08z"/><path d="m10.44 11.08h.87v-1.73h-2v.65a1.12 1.12 0 0 1 1.13 1.08z"/><path d="m12.57 11.08h-.87v-1.73h2v.65a1.12 1.12 0 0 0 -1.13 1.08z"/><path d="m16 11.08h.87v-1.73h-2v.65a1.12 1.12 0 0 1 1.13 1.08z"/><path d="m16 13.3h.87v1.7h-2v-.61a1.12 1.12 0 0 0 1.13-1.09z"/><path d="m26.28 17.35v-4h2a2.26 2.26 0 0 0 .57 1.65 1.73 1.73 0 0 0 1.23.52 1.23 1.23 0 0 0 .91-.38 1.21 1.21 0 0 0 .37-.88 1.23 1.23 0 0 0 -.36-.91 5.16 5.16 0 0 0 -1.33-.84 10.25 10.25 0 0 1 -2.76-1.73 2.79 2.79 0 0 1 -.73-2 3 3 0 0 1 1-2.38 3.21 3.21 0 0 1 2.18-.84 2.49 2.49 0 0 1 2.13 1.04v-1h2v3.59h-2a2 2 0 0 0 -.57-1.28 1.57 1.57 0 0 0 -1.11-.45 1.31 1.31 0 0 0 -.83.26.83.83 0 0 0 -.34.68 1 1 0 0 0 .28.69 5.53 5.53 0 0 0 1.63.92 13.61 13.61 0 0 1 2 1 3.38 3.38 0 0 1 1.1 1.22 3.57 3.57 0 0 1 .4 1.73 3.27 3.27 0 0 1 -1 2.61 3.54 3.54 0 0 1 -2.39.88 2.77 2.77 0 0 1 -2.38-1.14v1z"/><path d="m34.45 17.35v-1.98h1.4v-7.76h-1.4v-1.98h10.33v3.71h-2.24v-1.73h-3.63v2.7h2.93v1.98h-2.93v3.08h3.63v-1.75h2.24v3.73z"/><path d="m60.41 7.61v-1.98h-5.11l-2.24 6.86-2.24-6.86h-5.12v1.98h1.09v7.76h-1.09v1.98h4.31v-1.98h-1.11v-7.76h.02l3.2 9.74h.94.93l3.2-9.74h.02v7.76h-1.11v1.98h4.31v-1.98h-1.09v-7.76z"/></g></g></svg>