<svg xmlns="http://www.w3.org/2000/svg" viewBox="0 0 60.41 23"><defs><style>.cls-1{opacity:0.8;}.cls-2,.cls-4{fill:#fff;}.cls-2{opacity:0.2;}.cls-3{fill:#242a30;}</style></defs><title>sem-logo</title><g id="Layer_2" data-name="Layer 2"><g id="Layer_1-2" data-name="Layer 1"><g class="cls-1"><circle class="cls-2" cx="11.5" cy="11.5" r="11.5"/><circle class="cls-3" cx="11.5" cy="11.5" r="8.9"/><circle class="cls-3" cx="5.67" cy="4.91" r="1.38"/><circle class="cls-3" cx="17.33" cy="4.91" r="1.38"/><path class="cls-4" d="M4.29,5.85v9.3a2,2,0,0,0,2,2H9.89l-1-2.76H7V10h3.39V14.1h2.12s0-4.14,0-4.14H16v4.47H14.1L13,17.18h3.68a2,2,0,0,0,2-2V5.85Z"/><polygon class="cls-3" points="18.71 7.37 15.95 5.85 15.95 4.91 18.71 4.91 18.71 7.37"/><path class="cls-4" d="M7,13.3H6.18V15h2v-.61A1.12,1.12,0,0,1,7,13.3Z"/><polygon class="cls-3" points="7.05 5.85 4.29 7.37 4.29 4.91 7.05 4.91 7.05 5.85"/><path class="cls-4" d="M7,11.08H6.18V9.35h2V10A1.12,1.12,0,0,0,7,11.08Z"/><path class="cls-4" d="M10.44,11.08h.87V9.35h-2V10A1.12,1.12,0,0,1,10.44,11.08Z"/><path class="cls-4" d="M12.57,11.08H11.7V9.35h2V10A1.12,1.12,0,0,0,12.57,11.08Z"/><path class="cls-4" d="M16,11.08h.87V9.35h-2V10A1.12,1.12,0,0,1,16,11.08Z"/><path class="cls-4" d="M16,13.3h.87V15h-2v-.61A1.12,1.12,0,0,0,16,13.3Z"/><path class="cls-4" d="M26.28,17.35v-4h2A2.26,2.26,0,0,0,28.85,15a1.73,1.73,0,0,0,1.23.52,1.23,1.23,0,0,0,.91-.38,1.21,1.21,0,0,0,.37-.88,1.23,1.23,0,0,0-.36-.91,5.16,5.16,0,0,0-1.33-.84,10.25,10.25,0,0,1-2.76-1.73,2.79,2.79,0,0,1-.73-2,3,3,0,0,1,1-2.38,3.21,3.21,0,0,1,2.18-.84A2.49,2.49,0,0,1,31.49,6.6v-1h2V9.19h-2a2,2,0,0,0-.57-1.28,1.57,1.57,0,0,0-1.11-.45,1.31,1.31,0,0,0-.83.26.83.83,0,0,0-.34.68,1,1,0,0,0,.28.69,5.53,5.53,0,0,0,1.63.92,13.61,13.61,0,0,1,2,1,3.38,3.38,0,0,1,1.1,1.22,3.57,3.57,0,0,1,.4,1.73,3.27,3.27,0,0,1-1,2.61,3.54,3.54,0,0,1-2.39.88,2.77,2.77,0,0,1-2.38-1.14v1Z"/><polygon class="cls-4" points="34.45 17.35 34.45 15.37 35.85 15.37 35.85 7.61 34.45 7.61 34.45 5.63 44.78 5.63 44.78 9.34 42.54 9.34 42.54 7.61 38.91 7.61 38.91 10.31 41.84 10.31 41.84 12.29 38.91 12.29 38.91 15.37 42.54 15.37 42.54 13.62 44.78 13.62 44.78 17.35 34.45 17.35"/><polygon class="cls-4" points="60.41 7.61 60.41 5.63 55.3 5.63 53.06 12.49 50.82 5.63 45.7 5.63 45.7 7.61 46.79 7.61 46.79 15.37 45.7 15.37 45.7 17.35 50.01 17.35 50.01 15.37 48.9 15.37 48.9 7.61 48.92 7.61 52.12 17.35 53.06 17.35 53.99 17.35 57.19 7.61 57.21 7.61 57.21 15.37 56.1 15.37 56.1 17.35 60.41 17.35 60.41 15.37 59.32 15.37 59.32 7.61 60.41 7.61"/></g></g></g></svg>