<svg xmlns="http://www.w3.org/2000/svg" viewBox="0 0 80.82 6.88"><defs><style>.cls-1{fill:#fff;}</style></defs><title>service</title><g id="Layer_2" data-name="Layer 2"><g id="Layer_1-2" data-name="Layer 1"><path class="cls-1" d="M0,6.1A.1.1,0,0,1,0,6l.24-.3a.09.09,0,0,1,.14,0,3.21,3.21,0,0,0,1.92.69C3.39,6.35,4,5.81,4,5c0-.66-.37-1.14-1.6-1.3l-.3,0C.83,3.48.21,2.85.21,1.88A1.86,1.86,0,0,1,2.32,0,3.35,3.35,0,0,1,4.22.56a.09.09,0,0,1,0,.14L4,1a.1.1,0,0,1-.14,0A3,3,0,0,0,2.29.53c-1,0-1.52.53-1.52,1.31S1.2,3,2.34,3.11l.3,0c1.36.18,2,.81,2,1.8S3.8,6.88,2.25,6.88A3.62,3.62,0,0,1,0,6.1Z"/><path class="cls-1" d="M13.73.2a.09.09,0,0,1,.1-.1h3.82a.09.09,0,0,1,.1.1V.53a.09.09,0,0,1-.1.1h-3.3a.05.05,0,0,0-.06.06V3.07s0,.06.06.06h2.84a.09.09,0,0,1,.1.1v.33a.09.09,0,0,1-.1.1H14.34a.05.05,0,0,0-.06.06V6.2s0,.06.06.06h3.3a.09.09,0,0,1,.1.1v.33a.09.09,0,0,1-.1.1H13.82a.09.09,0,0,1-.1-.1Z"/><path class="cls-1" d="M30.76,6.78c-.06,0-.09,0-.12-.09l-1.4-2.9H27.41a.05.05,0,0,0-.06.06V6.69a.09.09,0,0,1-.1.1h-.36a.09.09,0,0,1-.1-.1V.2a.09.09,0,0,1,.1-.1h2.24a1.81,1.81,0,0,1,2,1.85A1.7,1.7,0,0,1,29.8,3.72l1.45,3c0,.06,0,.11,0,.11Zm-.15-4.84c0-.84-.53-1.32-1.48-1.32H27.41a.05.05,0,0,0-.06.06V3.21a.05.05,0,0,0,.06.06h1.71C30.08,3.27,30.61,2.79,30.61,1.95Z"/><path class="cls-1" d="M42.13,6.78c-.06,0-.09,0-.11-.1L39.81.24c0-.09,0-.14.07-.14h.34c.09,0,.12,0,.15.1l1.94,5.65h0L44.22.2c0-.08.06-.1.14-.1h.35c.07,0,.11.05.08.14l-2.2,6.45a.13.13,0,0,1-.12.1Z"/><path class="cls-1" d="M53.7.2a.09.09,0,0,1,.1-.1h.36a.09.09,0,0,1,.1.1V6.69a.09.09,0,0,1-.1.1H53.8a.09.09,0,0,1-.1-.1Z"/><path class="cls-1" d="M63.44,3.44a6.3,6.3,0,0,1,.18-1.95A2,2,0,0,1,65.73,0a2.1,2.1,0,0,1,2,1.24.1.1,0,0,1,0,.13l-.32.16a.09.09,0,0,1-.13,0,1.64,1.64,0,0,0-1.53-1,1.52,1.52,0,0,0-1.57,1.11A6.05,6.05,0,0,0,64,3.44a6.05,6.05,0,0,0,.15,1.8,1.52,1.52,0,0,0,1.57,1.11,1.64,1.64,0,0,0,1.53-1,.09.09,0,0,1,.13,0l.32.16a.09.09,0,0,1,0,.13,2.1,2.1,0,0,1-2,1.24,2,2,0,0,1-2.11-1.49A6.3,6.3,0,0,1,63.44,3.44Z"/><path class="cls-1" d="M76.8.2a.09.09,0,0,1,.1-.1h3.82a.09.09,0,0,1,.1.1V.53a.09.09,0,0,1-.1.1h-3.3a.05.05,0,0,0-.06.06V3.07s0,.06.06.06h2.84a.09.09,0,0,1,.1.1v.33a.09.09,0,0,1-.1.1H77.42a.05.05,0,0,0-.06.06V6.2s0,.06.06.06h3.3a.09.09,0,0,1,.1.1v.33a.09.09,0,0,1-.1.1H76.9a.09.09,0,0,1-.1-.1Z"/></g></g></svg>