<svg viewBox="0 0 80.82 6.88" xmlns="http://www.w3.org/2000/svg"><g fill="#fff"><path d="m0 6.1a.1.1 0 0 1 0-.1l.24-.3a.09.09 0 0 1 .14 0 3.21 3.21 0 0 0 1.92.69c1.09-.04 1.7-.58 1.7-1.39 0-.66-.37-1.14-1.6-1.3h-.3c-1.27-.22-1.89-.85-1.89-1.82a1.86 1.86 0 0 1 2.11-1.88 3.35 3.35 0 0 1 1.9.56.09.09 0 0 1 0 .14l-.22.3a.1.1 0 0 1 -.14 0 3 3 0 0 0 -1.57-.47c-1 0-1.52.53-1.52 1.31s.43 1.16 1.57 1.27h.3c1.36.18 2 .81 2 1.8s-.84 1.97-2.39 1.97a3.62 3.62 0 0 1 -2.25-.78z"/><path d="m13.73.2a.09.09 0 0 1 .1-.1h3.82a.09.09 0 0 1 .1.1v.33a.09.09 0 0 1 -.1.1h-3.3a.05.05 0 0 0 -.06.06v2.38s0 .06.06.06h2.84a.09.09 0 0 1 .1.1v.33a.09.09 0 0 1 -.1.1h-2.85a.05.05 0 0 0 -.06.06v2.48s0 .06.06.06h3.3a.09.09 0 0 1 .1.1v.33a.09.09 0 0 1 -.1.1h-3.82a.09.09 0 0 1 -.1-.1z"/><path d="m30.76 6.78c-.06 0-.09 0-.12-.09l-1.4-2.9h-1.83a.05.05 0 0 0 -.06.06v2.84a.09.09 0 0 1 -.1.1h-.36a.09.09 0 0 1 -.1-.1v-6.49a.09.09 0 0 1 .1-.1h2.24a1.81 1.81 0 0 1 2 1.85 1.7 1.7 0 0 1 -1.33 1.77l1.45 3v.11zm-.15-4.84c0-.84-.53-1.32-1.48-1.32h-1.72a.05.05 0 0 0 -.06.06v2.53a.05.05 0 0 0 .06.06h1.71c.96 0 1.49-.48 1.49-1.32z"/><path d="m42.13 6.78c-.06 0-.09 0-.11-.1l-2.21-6.44c0-.09 0-.14.07-.14h.34c.09 0 .12 0 .15.1l1.94 5.65 1.91-5.65c0-.08.06-.1.14-.1h.35c.07 0 .11.05.08.14l-2.2 6.45a.13.13 0 0 1 -.12.1z"/><path d="m53.7.2a.09.09 0 0 1 .1-.1h.36a.09.09 0 0 1 .1.1v6.49a.09.09 0 0 1 -.1.1h-.36a.09.09 0 0 1 -.1-.1z"/><path d="m63.44 3.44a6.3 6.3 0 0 1 .18-1.95 2 2 0 0 1 2.11-1.49 2.1 2.1 0 0 1 2 1.24.1.1 0 0 1 0 .13l-.32.16a.09.09 0 0 1 -.13 0 1.64 1.64 0 0 0 -1.53-1 1.52 1.52 0 0 0 -1.57 1.11 6.05 6.05 0 0 0 -.18 1.8 6.05 6.05 0 0 0 .15 1.8 1.52 1.52 0 0 0 1.57 1.11 1.64 1.64 0 0 0 1.53-1 .09.09 0 0 1 .13 0l.32.16a.09.09 0 0 1 0 .13 2.1 2.1 0 0 1 -2 1.24 2 2 0 0 1 -2.11-1.49 6.3 6.3 0 0 1 -.15-1.95z"/><path d="m76.8.2a.09.09 0 0 1 .1-.1h3.82a.09.09 0 0 1 .1.1v.33a.09.09 0 0 1 -.1.1h-3.3a.05.05 0 0 0 -.06.06v2.38s0 .06.06.06h2.84a.09.09 0 0 1 .1.1v.33a.09.09 0 0 1 -.1.1h-2.84a.05.05 0 0 0 -.06.06v2.48s0 .06.06.06h3.3a.09.09 0 0 1 .1.1v.33a.09.09 0 0 1 -.1.1h-3.82a.09.09 0 0 1 -.1-.1z"/></g></svg>