<svg xmlns="http://www.w3.org/2000/svg" viewBox="0 0 82 58.95"><defs><style>.cls-1{fill:#fff;}</style></defs><title>site-logo-white</title><g id="Layer_2" data-name="Layer 2"><g id="Layer_1-2" data-name="Layer 1"><g id="Page-1"><g id="logo-rk-machinery"><g id="Group"><path id="Shape" class="cls-1" d="M.08,44.15V0h12.6A57.32,57.32,0,0,1,23,.65a14.3,14.3,0,0,1,5,2.28,11.36,11.36,0,0,1,3.66,4.64A14,14,0,0,1,33,13.74,12.78,12.78,0,0,1,30.49,22a12.26,12.26,0,0,1-7.32,4.23l12,17.81H21.55L11.38,26.83V44.07H.08Zm11.3-23.34h2.2c2.6,0,4.47-.41,5.69-1.3a4.78,4.78,0,0,0,1.79-4.15c0-2.2-.57-3.82-1.71-4.72s-3-1.38-5.61-1.38H11.3V20.82Z"/><polygon id="Shape-2" data-name="Shape" class="cls-1" points="38.3 44.15 38.3 0 50.17 0 50.17 20.09 64.16 0 78.14 0 61.88 21.55 79.61 44.15 64.65 44.15 50.25 24.31 50.25 44.15 38.3 44.15"/></g><g id="Group-2" data-name="Group"><path id="Shape-3" data-name="Shape" class="cls-1" d="M.08,49.52a.17.17,0,0,1,.16-.16H1.87c.08,0,.16,0,.24.16l2.36,5.29h.08l2.28-5.29c0-.08.08-.16.24-.16H8.7a.17.17,0,0,1,.16.16v9a.17.17,0,0,1-.16.16H7.16A.17.17,0,0,1,7,58.55v-5.2H6.91l-1.79,3.9c-.08.16-.16.16-.24.16h-1c-.16,0-.24-.08-.24-.16L2,53.34H1.87v5.2a.17.17,0,0,1-.16.16H.16A.17.17,0,0,1,0,58.55v-9Z"/><path id="Shape-4" data-name="Shape" class="cls-1" d="M14.31,49.52a.17.17,0,0,1,.16-.16h1.71a.17.17,0,0,1,.16.16l3.17,9c0,.08,0,.16-.08.16H17.65a.17.17,0,0,1-.16-.16l-.57-1.63H13.66l-.49,1.63a.17.17,0,0,1-.16.16H11.22c-.08,0-.16-.08-.08-.16Zm2.11,5.69L15.37,52h-.08l-1.06,3.25Z"/><path id="Shape-5" data-name="Shape" class="cls-1" d="M21.39,54.08a8.09,8.09,0,0,1,.24-2.52A3.19,3.19,0,0,1,25,49.28a3.33,3.33,0,0,1,3.25,2c0,.08,0,.16-.08.16l-1.54.73c-.08,0-.16,0-.16-.08A1.59,1.59,0,0,0,25,51.07a1.33,1.33,0,0,0-1.38,1.06,7.18,7.18,0,0,0-.16,2,5.12,5.12,0,0,0,.16,2A1.39,1.39,0,0,0,25,57.25a1.51,1.51,0,0,0,1.46-1.06c0-.08.08-.08.16-.08l1.46.65c.08,0,.08.08.08.16a3.19,3.19,0,0,1-3.25,2,3.19,3.19,0,0,1-3.33-2.28A10.47,10.47,0,0,1,21.39,54.08Z"/><path id="Shape-6" data-name="Shape" class="cls-1" d="M30.82,49.52a.17.17,0,0,1,.16-.16h1.71a.17.17,0,0,1,.16.16V53c0,.08,0,.08.08.08h3c.08,0,.08,0,.08-.08v-3.5a.17.17,0,0,1,.16-.16h1.71a.17.17,0,0,1,.16.16v9a.17.17,0,0,1-.16.16H36.19a.17.17,0,0,1-.16-.16V55c0-.08,0-.08-.08-.08h-3c-.08,0-.08,0-.08.08v3.58a.17.17,0,0,1-.16.16H31a.17.17,0,0,1-.16-.16v-9Z"/><path id="Shape-7" data-name="Shape" class="cls-1" d="M41.15,49.52a.17.17,0,0,1,.16-.16H43a.17.17,0,0,1,.16.16v9a.17.17,0,0,1-.16.16H41.31a.17.17,0,0,1-.16-.16Z"/><path id="Shape-8" data-name="Shape" class="cls-1" d="M46.35,49.52a.17.17,0,0,1,.16-.16h1.63c.08,0,.16,0,.24.16l3.25,5.85h.08V49.52a.17.17,0,0,1,.16-.16h1.55a.17.17,0,0,1,.16.16v9a.17.17,0,0,1-.16.16H51.8c-.08,0-.16-.08-.24-.16L48.3,52.69h-.08v5.85a.17.17,0,0,1-.16.16H46.51a.17.17,0,0,1-.16-.16Z"/><path id="Shape-9" data-name="Shape" class="cls-1" d="M56.6,49.52a.17.17,0,0,1,.16-.16h5.94a.17.17,0,0,1,.16.16V51a.17.17,0,0,1-.16.16h-4c-.08,0-.08,0-.08.08V53.1c0,.08,0,.08.08.08H62a.17.17,0,0,1,.16.16v1.46A.17.17,0,0,1,62,55H58.71c-.08,0-.08,0-.08.08v2c0,.08,0,.08.08.08h4a.17.17,0,0,1,.16.16v1.46a.17.17,0,0,1-.16.16H56.76a.17.17,0,0,1-.16-.16V49.52Z"/><path id="Shape-10" data-name="Shape" class="cls-1" d="M70.83,58.71c-.16,0-.16-.08-.24-.16L69,55.13H67.74c-.08,0-.08,0-.08.08v3.33a.17.17,0,0,1-.16.16H65.78a.17.17,0,0,1-.16-.16v-9a.17.17,0,0,1,.16-.16h3.74A2.92,2.92,0,0,1,72.7,52.2a2.81,2.81,0,0,1-1.63,2.6l1.87,3.66c0,.08,0,.16-.08.16h-2Zm-.16-6.42a1.09,1.09,0,0,0-1.22-1.14H67.82c-.08,0-.08,0-.08.08v2.11c0,.08,0,.08.08.08h1.63A1.09,1.09,0,0,0,70.66,52.29Z"/><path id="Shape-11" data-name="Shape" class="cls-1" d="M77.33,58.71a.17.17,0,0,1-.16-.16V55L74.4,49.52c0-.08,0-.16.08-.16h1.79c.08,0,.16,0,.24.16l1.71,3.42h0l1.71-3.42c.08-.08.08-.16.24-.16h1.71c.08,0,.16.08.08.16L79.2,55v3.58a.17.17,0,0,1-.16.16Z"/></g></g></g></g></g></svg>