<svg viewBox="0 0 82 58.95" xmlns="http://www.w3.org/2000/svg"><g fill="#fff"><path d="m.08 44.15v-44.15h12.6a57.32 57.32 0 0 1 10.32.65 14.3 14.3 0 0 1 5 2.28 11.36 11.36 0 0 1 3.66 4.64 14 14 0 0 1 1.34 6.17 12.78 12.78 0 0 1 -2.51 8.26 12.26 12.26 0 0 1 -7.32 4.23l12 17.81h-13.62l-10.17-17.21v17.24h-11.3zm11.3-23.34h2.2c2.6 0 4.47-.41 5.69-1.3a4.78 4.78 0 0 0 1.79-4.15c0-2.2-.57-3.82-1.71-4.72s-3-1.38-5.61-1.38h-2.44v11.56z"/><path d="m38.3 44.15v-44.15h11.87v20.09l13.99-20.09h13.98l-16.26 21.55 17.73 22.6h-14.96l-14.4-19.84v19.84z"/><path d="m.08 49.52a.17.17 0 0 1 .16-.16h1.63c.08 0 .16 0 .24.16l2.36 5.29h.08l2.28-5.29c0-.08.08-.16.24-.16h1.63a.17.17 0 0 1 .16.16v9a.17.17 0 0 1 -.16.16h-1.54a.17.17 0 0 1 -.16-.13v-5.2h-.09l-1.79 3.9c-.08.16-.16.16-.24.16h-1c-.16 0-.24-.08-.24-.16l-1.64-3.91h-.13v5.2a.17.17 0 0 1 -.16.16h-1.55a.17.17 0 0 1 -.16-.15v-9z"/><path d="m14.31 49.52a.17.17 0 0 1 .16-.16h1.71a.17.17 0 0 1 .16.16l3.17 9c0 .08 0 .16-.08.16h-1.78a.17.17 0 0 1 -.16-.16l-.57-1.63h-3.26l-.49 1.63a.17.17 0 0 1 -.16.16h-1.79c-.08 0-.16-.08-.08-.16zm2.11 5.69-1.05-3.21h-.08l-1.06 3.25z"/><path d="m21.39 54.08a8.09 8.09 0 0 1 .24-2.52 3.19 3.19 0 0 1 3.37-2.28 3.33 3.33 0 0 1 3.25 2c0 .08 0 .16-.08.16l-1.54.73c-.08 0-.16 0-.16-.08a1.59 1.59 0 0 0 -1.47-1.02 1.33 1.33 0 0 0 -1.38 1.06 7.18 7.18 0 0 0 -.16 2 5.12 5.12 0 0 0 .16 2 1.39 1.39 0 0 0 1.38 1.12 1.51 1.51 0 0 0 1.46-1.06c0-.08.08-.08.16-.08l1.46.65c.08 0 .08.08.08.16a3.19 3.19 0 0 1 -3.25 2 3.19 3.19 0 0 1 -3.33-2.28 10.47 10.47 0 0 1 -.19-2.56z"/><path d="m30.82 49.52a.17.17 0 0 1 .16-.16h1.71a.17.17 0 0 1 .16.16v3.48c0 .08 0 .08.08.08h3c.08 0 .08 0 .08-.08v-3.5a.17.17 0 0 1 .16-.16h1.71a.17.17 0 0 1 .16.16v9a.17.17 0 0 1 -.16.16h-1.69a.17.17 0 0 1 -.16-.16v-3.5c0-.08 0-.08-.08-.08h-3c-.08 0-.08 0-.08.08v3.58a.17.17 0 0 1 -.16.16h-1.71a.17.17 0 0 1 -.16-.16v-9z"/><path d="m41.15 49.52a.17.17 0 0 1 .16-.16h1.69a.17.17 0 0 1 .16.16v9a.17.17 0 0 1 -.16.16h-1.69a.17.17 0 0 1 -.16-.16z"/><path d="m46.35 49.52a.17.17 0 0 1 .16-.16h1.63c.08 0 .16 0 .24.16l3.25 5.85h.08v-5.85a.17.17 0 0 1 .16-.16h1.55a.17.17 0 0 1 .16.16v9a.17.17 0 0 1 -.16.16h-1.62c-.08 0-.16-.08-.24-.16l-3.26-5.83h-.08v5.85a.17.17 0 0 1 -.16.16h-1.55a.17.17 0 0 1 -.16-.16z"/><path d="m56.6 49.52a.17.17 0 0 1 .16-.16h5.94a.17.17 0 0 1 .16.16v1.48a.17.17 0 0 1 -.16.16h-4c-.08 0-.08 0-.08.08v1.86c0 .08 0 .08.08.08h3.3a.17.17 0 0 1 .16.16v1.46a.17.17 0 0 1 -.16.2h-3.29c-.08 0-.08 0-.08.08v2c0 .08 0 .08.08.08h4a.17.17 0 0 1 .16.16v1.46a.17.17 0 0 1 -.16.16h-5.95a.17.17 0 0 1 -.16-.16z"/><path d="m70.83 58.71c-.16 0-.16-.08-.24-.16l-1.59-3.42h-1.26c-.08 0-.08 0-.08.08v3.33a.17.17 0 0 1 -.16.16h-1.72a.17.17 0 0 1 -.16-.16v-9a.17.17 0 0 1 .16-.16h3.74a2.92 2.92 0 0 1 3.18 2.82 2.81 2.81 0 0 1 -1.63 2.6l1.87 3.66c0 .08 0 .16-.08.16h-2zm-.16-6.42a1.09 1.09 0 0 0 -1.22-1.14h-1.63c-.08 0-.08 0-.08.08v2.11c0 .08 0 .08.08.08h1.63a1.09 1.09 0 0 0 1.21-1.13z"/><path d="m77.33 58.71a.17.17 0 0 1 -.16-.16v-3.55l-2.77-5.48c0-.08 0-.16.08-.16h1.79c.08 0 .16 0 .24.16l1.71 3.42 1.71-3.42c.08-.08.08-.16.24-.16h1.71c.08 0 .16.08.08.16l-2.76 5.48v3.58a.17.17 0 0 1 -.16.16z"/></g></svg>