<svg xmlns="http://www.w3.org/2000/svg" viewBox="0 0 104.71 34.86"><defs><style>.cls-1{fill:#fff;}</style></defs><title>UPB Nams group</title><g id="Layer_2" data-name="Layer 2"><g id="Layer_1-2" data-name="Layer 1"><path class="cls-1" d="M.45,6.47V.3A.13.13,0,0,1,.6.16h1A.13.13,0,0,1,1.72.3V6.46A2.08,2.08,0,0,0,3.89,8.83,2.08,2.08,0,0,0,6,6.46V.3A.13.13,0,0,1,6.19.16h1A.13.13,0,0,1,7.31.3V6.47A3.17,3.17,0,0,1,3.89,10,3.18,3.18,0,0,1,.45,6.47Z"/><path class="cls-1" d="M9.79,9.85a.13.13,0,0,1-.14-.14V.3A.13.13,0,0,1,9.79.16h3.45a2.8,2.8,0,0,1,3.08,2.89,2.81,2.81,0,0,1-3.08,2.89H11a.08.08,0,0,0-.09.09V9.71a.13.13,0,0,1-.14.14Zm5.28-6.8a1.67,1.67,0,0,0-1.9-1.71H11a.08.08,0,0,0-.09.09V4.68a.08.08,0,0,0,.09.08h2.17A1.67,1.67,0,0,0,15.07,3.05Z"/><path class="cls-1" d="M18.1.3a.13.13,0,0,1,.14-.14h3.44c2,0,2.92,1,2.92,2.55a2.09,2.09,0,0,1-1.3,2.11v0a2.24,2.24,0,0,1,1.47,2.24c0,1.81-1.14,2.77-3.17,2.77H18.24a.13.13,0,0,1-.14-.14Zm3.55,4a1.5,1.5,0,0,0,1.7-1.51,1.5,1.5,0,0,0-1.7-1.53h-2.2a.08.08,0,0,0-.09.09V4.27a.08.08,0,0,0,.09.08ZM19.45,8.7h2.27c1.16,0,1.78-.63,1.78-1.6a1.56,1.56,0,0,0-1.78-1.6H19.45a.08.08,0,0,0-.09.09v3A.08.08,0,0,0,19.45,8.7Z"/><path class="cls-1" d="M30.14.3a.13.13,0,0,1,.14-.14h.91a.23.23,0,0,1,.24.14l4.39,7.27h.06V.3A.13.13,0,0,1,36,.16h.9a.13.13,0,0,1,.14.14V9.71a.13.13,0,0,1-.14.14H36a.24.24,0,0,1-.24-.14L31.37,2.47h0V9.71a.14.14,0,0,1-.14.14h-.9a.13.13,0,0,1-.14-.14Z"/><path class="cls-1" d="M42,.3c0-.09.07-.14.17-.14h.93a.18.18,0,0,1,.18.14L46.6,9.71a.1.1,0,0,1-.1.14h-1a.17.17,0,0,1-.18-.14L44.57,7.6H40.65l-.74,2.11a.19.19,0,0,1-.18.14h-1a.1.1,0,0,1-.1-.14Zm2.17,6.13L42.63,2h0L41.06,6.43Z"/><path class="cls-1" d="M48.14.3a.13.13,0,0,1,.14-.14h.93a.22.22,0,0,1,.23.14l2.89,6.53h0L55.22.3a.22.22,0,0,1,.23-.14h.93a.13.13,0,0,1,.14.14V9.71a.13.13,0,0,1-.14.14h-.9a.14.14,0,0,1-.14-.14V3h0L52.88,8.3a.24.24,0,0,1-.26.17h-.57a.25.25,0,0,1-.27-.17L49.37,3h0V9.71a.14.14,0,0,1-.14.14h-.9a.13.13,0,0,1-.14-.14Z"/><path class="cls-1" d="M58.45,8.8a.15.15,0,0,1,0-.21l.63-.74a.13.13,0,0,1,.2,0,4.47,4.47,0,0,0,2.71,1c1.34,0,2.14-.67,2.14-1.65,0-.83-.47-1.38-2-1.58l-.48-.07c-1.88-.26-2.85-1.16-2.85-2.68C58.75,1.11,60,0,61.92,0a5.16,5.16,0,0,1,3,.9.13.13,0,0,1,0,.2l-.49.79a.14.14,0,0,1-.2,0,4.29,4.29,0,0,0-2.34-.73c-1.18,0-1.84.64-1.84,1.57s.54,1.35,2,1.55l.47.07c1.9.26,2.85,1.13,2.85,2.71S64.2,10,61.86,10A5.33,5.33,0,0,1,58.45,8.8Z"/><path class="cls-1" d="M70.61,11.57a.13.13,0,0,1,0-.2l.59-.58a.13.13,0,0,1,.21,0,2.28,2.28,0,0,0,1.61.68c1.13,0,1.72-.59,1.72-1.84v-.8h0a2,2,0,0,1-1.89.94,2.24,2.24,0,0,1-2.3-1.65,5.31,5.31,0,0,1-.23-1.8,5.31,5.31,0,0,1,.23-1.8,2.24,2.24,0,0,1,2.3-1.65,2,2,0,0,1,1.89.94h0V3.17A.14.14,0,0,1,74.91,3h.91a.13.13,0,0,1,.14.14V9.55a2.71,2.71,0,0,1-3,3A3.08,3.08,0,0,1,70.61,11.57Zm4-3.92a4.14,4.14,0,0,0,.16-1.33A4.19,4.19,0,0,0,74.61,5a1.54,1.54,0,0,0-2.89,0,4.24,4.24,0,0,0-.17,1.33,4.19,4.19,0,0,0,.17,1.33,1.39,1.39,0,0,0,1.44,1A1.41,1.41,0,0,0,74.61,7.64Z"/><path class="cls-1" d="M78.45,9.85a.13.13,0,0,1-.14-.14V3.17A.13.13,0,0,1,78.45,3h.91a.14.14,0,0,1,.14.14v.7h0a1.9,1.9,0,0,1,1.81-1,2.11,2.11,0,0,1,1.4.51c.07.07.08.13,0,.2l-.53.7a.13.13,0,0,1-.2,0A1.93,1.93,0,0,0,81,4c-1,0-1.47.81-1.47,2V9.71a.14.14,0,0,1-.14.14Z"/><path class="cls-1" d="M83.72,8.17a5.09,5.09,0,0,1-.23-1.74,5,5,0,0,1,.23-1.72,2.89,2.89,0,0,1,5.39,0,5.1,5.1,0,0,1,.23,1.72,5.14,5.14,0,0,1-.23,1.74,2.89,2.89,0,0,1-5.39,0ZM88,7.83a4.44,4.44,0,0,0,.16-1.4A4.34,4.34,0,0,0,88,5a1.64,1.64,0,0,0-3.08,0,4.33,4.33,0,0,0-.16,1.38,4.43,4.43,0,0,0,.16,1.4,1.64,1.64,0,0,0,3.08,0Z"/><path class="cls-1" d="M95.56,9.85a.13.13,0,0,1-.14-.14V9.07h0a2.08,2.08,0,0,1-1.87.94,2.3,2.3,0,0,1-2.37-2.58V3.17A.14.14,0,0,1,91.31,3h.91a.13.13,0,0,1,.14.14v4c0,1.11.5,1.75,1.51,1.75a1.52,1.52,0,0,0,1.54-1.68V3.17A.13.13,0,0,1,95.56,3h.91a.13.13,0,0,1,.14.14V9.71a.13.13,0,0,1-.14.14Z"/><path class="cls-1" d="M99.1,12.42a.14.14,0,0,1-.14-.14V3.17A.13.13,0,0,1,99.1,3H100a.14.14,0,0,1,.14.14v.64h0a2.07,2.07,0,0,1,1.94-.94,2.26,2.26,0,0,1,2.35,1.64,5.67,5.67,0,0,1,.24,1.93,5.71,5.71,0,0,1-.24,1.94A2.26,2.26,0,0,1,102.11,10a2.07,2.07,0,0,1-1.94-1h0v3.22a.14.14,0,0,1-.14.14Zm4.22-4.56a4.79,4.79,0,0,0,.16-1.43A4.92,4.92,0,0,0,103.33,5a1.62,1.62,0,0,0-3,0,4.43,4.43,0,0,0-.16,1.43,4.37,4.37,0,0,0,.16,1.43,1.61,1.61,0,0,0,3,0Z"/><path class="cls-1" d="M.25,22.65a.11.11,0,0,1,0-.16l.29-.25a.1.1,0,0,1,.16,0,1.73,1.73,0,0,0,1.35.58c1,0,1.55-.48,1.55-1.65v-.79h0A1.59,1.59,0,0,1,2,21.3,1.78,1.78,0,0,1,.18,20,4.74,4.74,0,0,1,0,18.51,4.72,4.72,0,0,1,.18,17,1.79,1.79,0,0,1,2,15.72a1.59,1.59,0,0,1,1.61.89h0v-.66a.11.11,0,0,1,.11-.12h.39a.11.11,0,0,1,.12.12v5.22a2,2,0,0,1-2.18,2.27A2.22,2.22,0,0,1,.25,22.65Zm3.23-2.9a3.9,3.9,0,0,0,.14-1.24,3.9,3.9,0,0,0-.14-1.24,1.31,1.31,0,0,0-1.36-1,1.3,1.3,0,0,0-1.34.95,3.74,3.74,0,0,0-.16,1.25,3.67,3.67,0,0,0,.16,1.24,1.29,1.29,0,0,0,1.34,1A1.33,1.33,0,0,0,3.48,19.76Z"/><path class="cls-1" d="M6.13,19.95A4.58,4.58,0,0,1,6,18.55a4.72,4.72,0,0,1,.16-1.41,2,2,0,0,1,2-1.41,2,2,0,0,1,2,1.41,4.35,4.35,0,0,1,.16,1.45.11.11,0,0,1-.12.11H6.67s-.07,0-.07.08a3,3,0,0,0,.12,1,1.5,1.5,0,0,0,1.54,1.06,1.86,1.86,0,0,0,1.52-.69.1.1,0,0,1,.16,0l.26.24a.1.1,0,0,1,0,.16,2.4,2.4,0,0,1-2,.91A2,2,0,0,1,6.13,19.95Zm3.52-1.78a.06.06,0,0,0,.07-.07,2.5,2.5,0,0,0-.1-.79,1.42,1.42,0,0,0-1.46-1,1.42,1.42,0,0,0-1.45,1,2.57,2.57,0,0,0-.1.79.06.06,0,0,0,.07.07Z"/><path class="cls-1" d="M15.71,21.27a.11.11,0,0,1-.11-.12V17.94c0-1.08-.48-1.63-1.43-1.63a1.43,1.43,0,0,0-1.48,1.52v3.33a.11.11,0,0,1-.12.12h-.39a.11.11,0,0,1-.11-.12V15.95a.11.11,0,0,1,.11-.12h.39a.11.11,0,0,1,.12.12v.65h0a1.71,1.71,0,0,1,1.61-.88,1.81,1.81,0,0,1,1.9,2.08v3.36a.11.11,0,0,1-.11.12Z"/><path class="cls-1" d="M18,19.95a4.57,4.57,0,0,1-.16-1.4A4.71,4.71,0,0,1,18,17.13a2,2,0,0,1,2-1.41,2,2,0,0,1,2,1.41,4.35,4.35,0,0,1,.16,1.45.11.11,0,0,1-.12.11H18.58s-.07,0-.07.08a3,3,0,0,0,.12,1,1.5,1.5,0,0,0,1.54,1.06,1.86,1.86,0,0,0,1.52-.69.1.1,0,0,1,.16,0l.26.24a.1.1,0,0,1,0,.16,2.4,2.4,0,0,1-2,.91A2,2,0,0,1,18,19.95Zm3.52-1.78a.06.06,0,0,0,.07-.07,2.5,2.5,0,0,0-.1-.79,1.54,1.54,0,0,0-2.91,0,2.56,2.56,0,0,0-.1.79.06.06,0,0,0,.07.07Z"/><path class="cls-1" d="M24.1,21.27a.11.11,0,0,1-.11-.12V15.95a.11.11,0,0,1,.11-.12h.39a.11.11,0,0,1,.12.12v.7h0a1.46,1.46,0,0,1,1.46-.92,1.68,1.68,0,0,1,1.1.38.09.09,0,0,1,0,.15l-.23.32a.12.12,0,0,1-.17,0,1.56,1.56,0,0,0-.87-.27c-1,0-1.32.83-1.32,1.83v3a.11.11,0,0,1-.12.12Z"/><path class="cls-1" d="M28.66,16.7a.12.12,0,0,1-.17,0l-.19-.28a.11.11,0,0,1,0-.16,2.63,2.63,0,0,1,1.73-.52c1.41,0,2,.47,2,1.8v3.64a.11.11,0,0,1-.11.12h-.37a.11.11,0,0,1-.12-.12v-.57h0a1.75,1.75,0,0,1-1.69.8c-1.1,0-1.83-.55-1.83-1.61s.74-1.61,2.06-1.61h1.38a.06.06,0,0,0,.07-.07v-.56c0-.89-.31-1.26-1.41-1.26A2,2,0,0,0,28.66,16.7Zm2.78,2.9v-.83s0-.07-.07-.07h-1.3c-1.08,0-1.54.36-1.54,1.07s.48,1,1.35,1S31.44,20.34,31.44,19.6Z"/><path class="cls-1" d="M35.21,21.31c-.82,0-1.13-.37-1.13-1.28v-6.4a.11.11,0,0,1,.12-.12h.39a.11.11,0,0,1,.12.12V20c0,.54.17.71.58.71h.19a.11.11,0,0,1,.11.12v.37a.11.11,0,0,1-.11.11Z"/><path class="cls-1" d="M39.69,17.13a2.16,2.16,0,0,1,3.87-.39.1.1,0,0,1,0,.15l-.32.21a.1.1,0,0,1-.15,0,1.42,1.42,0,0,0-1.33-.74,1.39,1.39,0,0,0-1.43,1,3.71,3.71,0,0,0-.15,1.22,3.61,3.61,0,0,0,.15,1.21,1.39,1.39,0,0,0,1.43,1,1.41,1.41,0,0,0,1.33-.74.1.1,0,0,1,.15,0l.32.2a.1.1,0,0,1,0,.15A2.16,2.16,0,0,1,39.69,20a4.75,4.75,0,0,1-.17-1.41A4.85,4.85,0,0,1,39.69,17.13Z"/><path class="cls-1" d="M45.07,20a4.53,4.53,0,0,1-.18-1.42,4.5,4.5,0,0,1,.18-1.41,2.17,2.17,0,0,1,4.07,0,4.5,4.5,0,0,1,.18,1.41A4.53,4.53,0,0,1,49.15,20a2.17,2.17,0,0,1-4.07,0Zm3.48-.19a3.74,3.74,0,0,0,.15-1.23,3.73,3.73,0,0,0-.15-1.22,1.53,1.53,0,0,0-2.89,0,3.66,3.66,0,0,0-.15,1.22,3.68,3.68,0,0,0,.15,1.23,1.53,1.53,0,0,0,2.89,0Z"/><path class="cls-1" d="M54.71,21.27a.11.11,0,0,1-.11-.12V17.94c0-1.08-.48-1.63-1.43-1.63a1.43,1.43,0,0,0-1.48,1.52v3.33a.11.11,0,0,1-.12.12h-.39a.11.11,0,0,1-.11-.12V15.95a.11.11,0,0,1,.11-.12h.39a.11.11,0,0,1,.12.12v.65h0a1.71,1.71,0,0,1,1.61-.88,1.81,1.81,0,0,1,1.9,2.08v3.36a.11.11,0,0,1-.11.12Z"/><path class="cls-1" d="M56.82,20.62a.11.11,0,0,1,0-.16l.25-.29a.12.12,0,0,1,.16,0,2.82,2.82,0,0,0,1.77.64c.95,0,1.41-.42,1.41-1s-.24-.84-1.24-1l-.55-.06c-1-.1-1.59-.59-1.59-1.45s.72-1.58,1.92-1.58a3.35,3.35,0,0,1,1.82.52.11.11,0,0,1,0,.16l-.2.27a.11.11,0,0,1-.16,0,3.19,3.19,0,0,0-1.51-.42c-.83,0-1.27.36-1.27,1s.33.82,1.26.91l.55.06c1.06.1,1.57.61,1.57,1.46,0,1-.73,1.7-2.09,1.7A3.29,3.29,0,0,1,56.82,20.62Z"/><path class="cls-1" d="M64.3,21.31c-1,0-1.41-.4-1.41-1.47V16.45a.06.06,0,0,0-.07-.07h-.57a.11.11,0,0,1-.12-.11v-.32a.11.11,0,0,1,.12-.12h.57a.06.06,0,0,0,.07-.07V14.2a.11.11,0,0,1,.11-.11h.39a.11.11,0,0,1,.11.11v1.56a.06.06,0,0,0,.07.07h1a.11.11,0,0,1,.12.12v.32a.11.11,0,0,1-.12.11h-1a.06.06,0,0,0-.07.07V19.8c0,.73.25.91.88.91h.22a.11.11,0,0,1,.12.12v.37a.11.11,0,0,1-.12.11Z"/><path class="cls-1" d="M66.41,21.27a.11.11,0,0,1-.12-.12V15.95a.11.11,0,0,1,.12-.12h.39a.11.11,0,0,1,.11.12v.7h0a1.46,1.46,0,0,1,1.46-.92,1.68,1.68,0,0,1,1.1.38.09.09,0,0,1,0,.15l-.23.32a.13.13,0,0,1-.17,0,1.55,1.55,0,0,0-.86-.27c-1,0-1.33.83-1.33,1.83v3a.11.11,0,0,1-.11.12Z"/><path class="cls-1" d="M74.31,21.27a.11.11,0,0,1-.11-.12v-.64h0a1.69,1.69,0,0,1-1.58.87c-1.21,0-1.88-.75-1.88-2.07V15.95a.11.11,0,0,1,.11-.12h.39a.11.11,0,0,1,.12.12v3.22c0,1.1.46,1.63,1.4,1.63a1.42,1.42,0,0,0,1.46-1.52V15.95a.11.11,0,0,1,.11-.12h.39a.11.11,0,0,1,.11.12v5.21a.11.11,0,0,1-.11.12Z"/><path class="cls-1" d="M76.73,17.13a2.16,2.16,0,0,1,3.87-.39.1.1,0,0,1,0,.15l-.32.21a.1.1,0,0,1-.15,0,1.42,1.42,0,0,0-1.33-.74,1.39,1.39,0,0,0-1.43,1,3.71,3.71,0,0,0-.15,1.22,3.61,3.61,0,0,0,.15,1.21,1.39,1.39,0,0,0,1.43,1,1.41,1.41,0,0,0,1.33-.74.1.1,0,0,1,.15,0l.32.2a.1.1,0,0,1,0,.15A2.16,2.16,0,0,1,76.73,20a4.75,4.75,0,0,1-.17-1.41A4.85,4.85,0,0,1,76.73,17.13Z"/><path class="cls-1" d="M83.85,21.31c-1,0-1.41-.4-1.41-1.47V16.45a.06.06,0,0,0-.07-.07H81.8a.11.11,0,0,1-.12-.11v-.32a.11.11,0,0,1,.12-.12h.57s.07,0,.07-.07V14.2a.11.11,0,0,1,.11-.11h.39a.11.11,0,0,1,.11.11v1.56s0,.07.07.07h1a.11.11,0,0,1,.12.12v.32a.11.11,0,0,1-.12.11h-1a.06.06,0,0,0-.07.07V19.8c0,.73.25.91.88.91h.22a.11.11,0,0,1,.12.12v.37a.11.11,0,0,1-.12.11Z"/><path class="cls-1" d="M85.9,14.38a.11.11,0,0,1-.12-.11v-.64a.11.11,0,0,1,.12-.12h.5a.11.11,0,0,1,.11.12v.64a.11.11,0,0,1-.11.11ZM86,21.27a.11.11,0,0,1-.12-.12V15.95a.11.11,0,0,1,.12-.12h.39a.11.11,0,0,1,.11.12v5.21a.11.11,0,0,1-.11.12Z"/><path class="cls-1" d="M88.38,20a4.46,4.46,0,0,1-.18-1.42,4.43,4.43,0,0,1,.18-1.41,2.17,2.17,0,0,1,4.07,0,4.5,4.5,0,0,1,.18,1.41A4.53,4.53,0,0,1,92.45,20a2.17,2.17,0,0,1-4.07,0Zm3.48-.19A3.69,3.69,0,0,0,92,18.55a3.67,3.67,0,0,0-.15-1.22,1.53,1.53,0,0,0-2.89,0,3.66,3.66,0,0,0-.15,1.22A3.68,3.68,0,0,0,89,19.78a1.53,1.53,0,0,0,2.89,0Z"/><path class="cls-1" d="M98,21.27a.11.11,0,0,1-.11-.12V17.94c0-1.08-.48-1.63-1.43-1.63A1.43,1.43,0,0,0,95,17.83v3.33a.11.11,0,0,1-.11.12h-.39a.11.11,0,0,1-.12-.12V15.95a.11.11,0,0,1,.12-.12h.39a.11.11,0,0,1,.11.12v.65h0a1.71,1.71,0,0,1,1.61-.88,1.81,1.81,0,0,1,1.9,2.08v3.36a.11.11,0,0,1-.11.12Z"/><path class="cls-1" d="M.17,31.37A4.57,4.57,0,0,1,0,30a4.7,4.7,0,0,1,.16-1.41,2,2,0,0,1,2-1.41,2,2,0,0,1,2,1.41A4.34,4.34,0,0,1,4.38,30a.11.11,0,0,1-.12.12H.71a.07.07,0,0,0-.07.08,3,3,0,0,0,.12,1,1.5,1.5,0,0,0,1.54,1.06,1.86,1.86,0,0,0,1.52-.7.1.1,0,0,1,.16,0l.26.24a.1.1,0,0,1,0,.16,2.39,2.39,0,0,1-2,.91A2,2,0,0,1,.17,31.37Zm3.52-1.78a.06.06,0,0,0,.07-.07,2.49,2.49,0,0,0-.1-.79,1.42,1.42,0,0,0-1.46-1,1.42,1.42,0,0,0-1.45,1,2.56,2.56,0,0,0-.1.79.06.06,0,0,0,.07.07Z"/><path class="cls-1" d="M9.75,32.69a.11.11,0,0,1-.11-.11V29.36c0-1.08-.48-1.63-1.43-1.63a1.43,1.43,0,0,0-1.48,1.52v3.33a.11.11,0,0,1-.12.11H6.22a.11.11,0,0,1-.11-.11V27.37a.11.11,0,0,1,.11-.12h.39a.11.11,0,0,1,.12.12V28h0a1.71,1.71,0,0,1,1.61-.88,1.81,1.81,0,0,1,1.9,2.07v3.37a.11.11,0,0,1-.11.11Z"/><path class="cls-1" d="M12.16,34.07a.11.11,0,0,1,0-.16l.29-.25a.1.1,0,0,1,.16,0,1.72,1.72,0,0,0,1.34.58c1,0,1.55-.48,1.55-1.65v-.79h0a1.58,1.58,0,0,1-1.61.89,1.78,1.78,0,0,1-1.82-1.3,4.73,4.73,0,0,1-.18-1.48,4.74,4.74,0,0,1,.18-1.48,1.79,1.79,0,0,1,1.82-1.31,1.58,1.58,0,0,1,1.61.89h0v-.66a.11.11,0,0,1,.12-.12H16a.11.11,0,0,1,.11.12v5.22A2,2,0,0,1,14,34.86,2.23,2.23,0,0,1,12.16,34.07Zm3.23-2.9a3.9,3.9,0,0,0,.14-1.24,3.91,3.91,0,0,0-.14-1.24,1.31,1.31,0,0,0-1.36-1,1.3,1.3,0,0,0-1.34.95,3.71,3.71,0,0,0-.16,1.26,3.62,3.62,0,0,0,.16,1.24,1.3,1.3,0,0,0,1.34,1A1.32,1.32,0,0,0,15.39,31.18Z"/><path class="cls-1" d="M18.31,25.8a.11.11,0,0,1-.12-.12V25a.11.11,0,0,1,.12-.11h.5a.11.11,0,0,1,.11.11v.64a.11.11,0,0,1-.11.12Zm.06,6.89a.11.11,0,0,1-.12-.11V27.37a.11.11,0,0,1,.12-.12h.39a.11.11,0,0,1,.11.12v5.21a.11.11,0,0,1-.11.11Z"/><path class="cls-1" d="M24.6,32.69a.11.11,0,0,1-.11-.11V29.36c0-1.08-.48-1.63-1.43-1.63a1.43,1.43,0,0,0-1.48,1.52v3.33a.11.11,0,0,1-.12.11h-.39a.11.11,0,0,1-.11-.11V27.37a.11.11,0,0,1,.11-.12h.39a.11.11,0,0,1,.12.12V28h0a1.71,1.71,0,0,1,1.61-.88,1.81,1.81,0,0,1,1.9,2.07v3.37a.11.11,0,0,1-.11.11Z"/><path class="cls-1" d="M26.94,31.37a4.56,4.56,0,0,1-.16-1.4,4.69,4.69,0,0,1,.16-1.41,2.16,2.16,0,0,1,4.05,0A4.34,4.34,0,0,1,31.15,30a.11.11,0,0,1-.12.12H27.48a.07.07,0,0,0-.07.08,3,3,0,0,0,.12,1,1.5,1.5,0,0,0,1.54,1.06,1.86,1.86,0,0,0,1.52-.7.1.1,0,0,1,.16,0l.26.24a.1.1,0,0,1,0,.16,2.39,2.39,0,0,1-2,.91A2,2,0,0,1,26.94,31.37Zm3.52-1.78a.06.06,0,0,0,.07-.07,2.49,2.49,0,0,0-.1-.79,1.54,1.54,0,0,0-2.91,0,2.56,2.56,0,0,0-.1.79.06.06,0,0,0,.07.07Z"/><path class="cls-1" d="M32.67,31.37a4.48,4.48,0,0,1-.16-1.4,4.61,4.61,0,0,1,.16-1.41,2.16,2.16,0,0,1,4,0A4.34,4.34,0,0,1,36.88,30a.11.11,0,0,1-.12.12H33.21a.07.07,0,0,0-.07.08,2.9,2.9,0,0,0,.12,1,1.5,1.5,0,0,0,1.54,1.06,1.86,1.86,0,0,0,1.52-.7.1.1,0,0,1,.16,0l.26.24a.1.1,0,0,1,0,.16,2.39,2.39,0,0,1-2,.91A2,2,0,0,1,32.67,31.37Zm3.51-1.78s.07,0,.07-.07a2.48,2.48,0,0,0-.1-.79,1.54,1.54,0,0,0-2.91,0,2.49,2.49,0,0,0-.1.79.06.06,0,0,0,.07.07Z"/><path class="cls-1" d="M38.73,32.69a.11.11,0,0,1-.12-.11V27.37a.11.11,0,0,1,.12-.12h.39a.11.11,0,0,1,.11.12v.69h0a1.46,1.46,0,0,1,1.46-.92,1.7,1.7,0,0,1,1.1.37.09.09,0,0,1,0,.15l-.23.32a.13.13,0,0,1-.17,0,1.55,1.55,0,0,0-.86-.27c-1,0-1.33.83-1.33,1.84v3a.11.11,0,0,1-.11.11Z"/><path class="cls-1" d="M43.19,25.8a.11.11,0,0,1-.12-.12V25a.11.11,0,0,1,.12-.11h.5a.11.11,0,0,1,.11.11v.64a.11.11,0,0,1-.11.12Zm.06,6.89a.11.11,0,0,1-.11-.11V27.37a.11.11,0,0,1,.11-.12h.39a.11.11,0,0,1,.12.12v5.21a.11.11,0,0,1-.12.11Z"/><path class="cls-1" d="M49.49,32.69a.11.11,0,0,1-.11-.11V29.36c0-1.08-.48-1.63-1.43-1.63a1.43,1.43,0,0,0-1.48,1.52v3.33a.11.11,0,0,1-.11.11H46a.11.11,0,0,1-.12-.11V27.37a.11.11,0,0,1,.12-.12h.39a.11.11,0,0,1,.11.12V28h0a1.71,1.71,0,0,1,1.61-.88A1.81,1.81,0,0,1,50,29.21v3.37a.11.11,0,0,1-.11.11Z"/><path class="cls-1" d="M51.9,34.07a.11.11,0,0,1,0-.16l.29-.25a.1.1,0,0,1,.16,0,1.72,1.72,0,0,0,1.34.58c1,0,1.55-.48,1.55-1.65v-.79h0a1.58,1.58,0,0,1-1.61.89,1.78,1.78,0,0,1-1.82-1.3,4.72,4.72,0,0,1-.18-1.48,4.74,4.74,0,0,1,.18-1.48,1.79,1.79,0,0,1,1.82-1.31,1.58,1.58,0,0,1,1.61.89h0v-.66a.11.11,0,0,1,.12-.12h.39a.11.11,0,0,1,.11.12v5.22a2,2,0,0,1-2.18,2.27A2.23,2.23,0,0,1,51.9,34.07Zm3.23-2.9a3.9,3.9,0,0,0,.14-1.24,3.9,3.9,0,0,0-.14-1.24,1.43,1.43,0,0,0-2.69,0,3.71,3.71,0,0,0-.16,1.26,3.61,3.61,0,0,0,.16,1.24,1.3,1.3,0,0,0,1.34,1A1.32,1.32,0,0,0,55.13,31.18Z"/><path class="cls-1" d="M64.43,32.69a.11.11,0,0,1-.11-.11V29.36c0-1.08-.48-1.63-1.43-1.63a1.43,1.43,0,0,0-1.48,1.52v3.33a.11.11,0,0,1-.11.11h-.39a.11.11,0,0,1-.12-.11V27.37a.11.11,0,0,1,.12-.12h.39a.11.11,0,0,1,.11.12V28h0A1.71,1.71,0,0,1,63,27.14a1.81,1.81,0,0,1,1.9,2.07v3.37a.11.11,0,0,1-.11.11Z"/><path class="cls-1" d="M66.77,31.37a4.48,4.48,0,0,1-.16-1.4,4.61,4.61,0,0,1,.16-1.41,2.16,2.16,0,0,1,4,0A4.34,4.34,0,0,1,71,30a.11.11,0,0,1-.12.12H67.31s-.07,0-.07.08a2.9,2.9,0,0,0,.12,1,1.5,1.5,0,0,0,1.54,1.06,1.86,1.86,0,0,0,1.52-.7.1.1,0,0,1,.16,0l.26.24a.1.1,0,0,1,0,.16,2.39,2.39,0,0,1-2,.91A2,2,0,0,1,66.77,31.37Zm3.51-1.78s.07,0,.07-.07a2.49,2.49,0,0,0-.1-.79,1.54,1.54,0,0,0-2.91,0,2.48,2.48,0,0,0-.1.79.06.06,0,0,0,.07.07Z"/><path class="cls-1" d="M74.27,32.73c-1,0-1.41-.4-1.41-1.47V27.87a.06.06,0,0,0-.07-.07h-.57a.11.11,0,0,1-.12-.11v-.32a.11.11,0,0,1,.12-.12h.57s.07,0,.07-.07V25.62A.11.11,0,0,1,73,25.5h.39a.11.11,0,0,1,.11.12v1.56a.06.06,0,0,0,.07.07h1a.11.11,0,0,1,.12.12v.32a.11.11,0,0,1-.12.11h-1a.06.06,0,0,0-.07.07v3.35c0,.73.25.91.88.91h.22a.11.11,0,0,1,.12.12v.36a.11.11,0,0,1-.12.11Z"/><path class="cls-1" d="M81,32.69a.13.13,0,0,1-.14-.11l-1.41-4.35h0L78,32.58c0,.08-.06.11-.14.11h-.34c-.08,0-.12,0-.14-.11l-1.7-5.21c0-.07,0-.12.08-.12h.41c.08,0,.11,0,.15.12l1.39,4.34h0l1.41-4.34c0-.07.06-.12.14-.12h.33a.14.14,0,0,1,.14.12l1.44,4.34h0l1.36-4.34c0-.08.07-.12.15-.12h.41c.08,0,.1,0,.08.12l-1.7,5.21a.13.13,0,0,1-.14.11Z"/><path class="cls-1" d="M84.48,31.39A4.47,4.47,0,0,1,84.3,30a4.43,4.43,0,0,1,.18-1.41,2.17,2.17,0,0,1,4.07,0,5.61,5.61,0,0,1,0,2.84,2.17,2.17,0,0,1-4.07,0ZM88,31.2A3.7,3.7,0,0,0,88.11,30,3.66,3.66,0,0,0,88,28.75a1.53,1.53,0,0,0-2.89,0A3.64,3.64,0,0,0,84.93,30a3.69,3.69,0,0,0,.15,1.23,1.53,1.53,0,0,0,2.89,0Z"/><path class="cls-1" d="M90.59,32.69a.11.11,0,0,1-.11-.11V27.37a.11.11,0,0,1,.11-.12H91a.11.11,0,0,1,.12.12v.69h0a1.46,1.46,0,0,1,1.46-.92,1.7,1.7,0,0,1,1.1.37.09.09,0,0,1,0,.15l-.23.32a.12.12,0,0,1-.17,0,1.56,1.56,0,0,0-.87-.27c-1,0-1.32.83-1.32,1.84v3a.11.11,0,0,1-.12.11Z"/><path class="cls-1" d="M98.68,32.69c-.08,0-.11,0-.17-.11l-1.73-2.82-1.16,1.37v1.45a.11.11,0,0,1-.11.11h-.39a.11.11,0,0,1-.12-.11V25a.11.11,0,0,1,.12-.11h.39a.11.11,0,0,1,.11.11v5.23l2.46-2.91c.07-.08.1-.12.19-.12h.47a.07.07,0,0,1,.06.12l-1.61,1.9,2,3.31a.07.07,0,0,1-.07.11Z"/><path class="cls-1" d="M100.15,32a.11.11,0,0,1,0-.16l.25-.29a.12.12,0,0,1,.16,0,2.8,2.8,0,0,0,1.77.64c.95,0,1.41-.42,1.41-1s-.24-.85-1.24-1l-.55-.06c-1-.1-1.59-.59-1.59-1.45s.72-1.58,1.92-1.58a3.37,3.37,0,0,1,1.82.52.11.11,0,0,1,0,.16l-.2.27a.12.12,0,0,1-.16,0,3.22,3.22,0,0,0-1.51-.42c-.83,0-1.27.36-1.27,1s.33.82,1.26.91l.55.06c1.06.1,1.57.61,1.57,1.46,0,1-.73,1.7-2.09,1.7A3.28,3.28,0,0,1,100.15,32Z"/></g></g></svg>