<svg xmlns="http://www.w3.org/2000/svg" viewBox="0 0 117.61 34.83"><defs><style>.cls-1{fill:#fff;}</style></defs><title>UPB Energy group</title><g id="Layer_2" data-name="Layer 2"><g id="Layer_1-2" data-name="Layer 1"><path class="cls-1" d="M.45,6.47V.3A.13.13,0,0,1,.59.16h1A.13.13,0,0,1,1.72.3V6.46A2.08,2.08,0,0,0,3.89,8.83,2.07,2.07,0,0,0,6,6.46V.3A.13.13,0,0,1,6.18.16h1A.13.13,0,0,1,7.31.3V6.47A3.17,3.17,0,0,1,3.89,10,3.18,3.18,0,0,1,.45,6.47Z"/><path class="cls-1" d="M9.79,9.85a.13.13,0,0,1-.14-.14V.3A.13.13,0,0,1,9.79.16h3.45a2.8,2.8,0,0,1,3.08,2.89,2.81,2.81,0,0,1-3.08,2.89H11a.08.08,0,0,0-.09.09V9.71a.13.13,0,0,1-.14.14Zm5.28-6.8a1.67,1.67,0,0,0-1.9-1.71H11a.08.08,0,0,0-.09.09V4.68a.08.08,0,0,0,.09.08h2.17A1.67,1.67,0,0,0,15.06,3.05Z"/><path class="cls-1" d="M18.1.3a.13.13,0,0,1,.14-.14h3.44c2,0,2.92,1,2.92,2.55a2.09,2.09,0,0,1-1.3,2.11v0a2.24,2.24,0,0,1,1.47,2.24c0,1.81-1.14,2.77-3.17,2.77H18.24a.13.13,0,0,1-.14-.14Zm3.55,4a1.5,1.5,0,0,0,1.7-1.51,1.5,1.5,0,0,0-1.7-1.53h-2.2a.08.08,0,0,0-.09.09V4.27a.08.08,0,0,0,.09.08ZM19.45,8.7h2.27c1.16,0,1.78-.63,1.78-1.6a1.56,1.56,0,0,0-1.78-1.6H19.45a.08.08,0,0,0-.09.09v3A.08.08,0,0,0,19.45,8.7Z"/><path class="cls-1" d="M30.14.3a.13.13,0,0,1,.14-.14h5.83a.13.13,0,0,1,.14.14v.9a.13.13,0,0,1-.14.14H31.5a.08.08,0,0,0-.09.09V4.28a.08.08,0,0,0,.09.09h3.92a.14.14,0,0,1,.14.14v.9a.14.14,0,0,1-.14.14H31.5a.08.08,0,0,0-.09.09v3a.08.08,0,0,0,.09.08h4.62a.14.14,0,0,1,.14.14v.9a.13.13,0,0,1-.14.14H30.28a.13.13,0,0,1-.14-.14Z"/><path class="cls-1" d="M38.18.3a.13.13,0,0,1,.14-.14h.91a.23.23,0,0,1,.24.14l4.39,7.27h.06V.3a.13.13,0,0,1,.14-.14H45a.13.13,0,0,1,.14.14V9.71a.13.13,0,0,1-.14.14h-.91a.24.24,0,0,1-.24-.14L39.4,2.47h0V9.71a.14.14,0,0,1-.14.14h-.9a.13.13,0,0,1-.14-.14Z"/><path class="cls-1" d="M47.52.3a.13.13,0,0,1,.14-.14h5.83a.13.13,0,0,1,.14.14v.9a.13.13,0,0,1-.14.14H48.87a.08.08,0,0,0-.09.09V4.28a.08.08,0,0,0,.09.09h3.92a.13.13,0,0,1,.14.14v.9a.14.14,0,0,1-.14.14H48.87a.08.08,0,0,0-.09.09v3a.08.08,0,0,0,.09.08h4.62a.14.14,0,0,1,.14.14v.9a.13.13,0,0,1-.14.14H47.66a.13.13,0,0,1-.14-.14Z"/><path class="cls-1" d="M61.17,9.85c-.1,0-.14,0-.18-.14L59,5.75H56.91a.08.08,0,0,0-.09.09V9.71a.13.13,0,0,1-.14.14h-1a.13.13,0,0,1-.14-.14V.3a.13.13,0,0,1,.14-.14H59.2a2.76,2.76,0,0,1,3,2.79,2.64,2.64,0,0,1-1.91,2.64L62.4,9.68a.1.1,0,0,1-.09.17ZM61,3c0-1-.67-1.61-1.8-1.61H56.91a.08.08,0,0,0-.09.09V4.48a.08.08,0,0,0,.09.08h2.27C60.3,4.56,61,4,61,3Z"/><path class="cls-1" d="M64,5a8.76,8.76,0,0,1,.26-2.74A3.21,3.21,0,0,1,67.57,0a3.31,3.31,0,0,1,3.22,1.93.14.14,0,0,1,0,.2l-.86.41a.14.14,0,0,1-.2-.07,2.18,2.18,0,0,0-2.12-1.28,2,2,0,0,0-2.1,1.44A7.53,7.53,0,0,0,65.27,5a7.55,7.55,0,0,0,.2,2.38,2,2,0,0,0,2.1,1.44,2.05,2.05,0,0,0,2.08-1.4,5.16,5.16,0,0,0,.19-1.53.08.08,0,0,0-.09-.08H67.86a.14.14,0,0,1-.14-.14V4.85a.13.13,0,0,1,.14-.14H71a.13.13,0,0,1,.14.14v.73a8.2,8.2,0,0,1-.24,2.14,3.54,3.54,0,0,1-6.62,0A8.75,8.75,0,0,1,64,5Z"/><path class="cls-1" d="M75.08,9.85a.14.14,0,0,1-.14-.14V5.89L72.07.31a.11.11,0,0,1,.11-.16h1a.22.22,0,0,1,.21.14l2.17,4.15h0L77.76.3A.19.19,0,0,1,78,.16h1c.11,0,.14.07.11.16L76.19,5.89V9.71a.14.14,0,0,1-.14.14Z"/><path class="cls-1" d="M83.51,11.57a.13.13,0,0,1,0-.2l.59-.58a.13.13,0,0,1,.21,0,2.28,2.28,0,0,0,1.61.68c1.13,0,1.72-.59,1.72-1.84v-.8h0a2,2,0,0,1-1.89.94,2.24,2.24,0,0,1-2.3-1.65,5.38,5.38,0,0,1-.23-1.8,5.37,5.37,0,0,1,.23-1.8,2.24,2.24,0,0,1,2.3-1.65,2,2,0,0,1,1.89.94h0V3.17A.14.14,0,0,1,87.81,3h.91a.13.13,0,0,1,.14.14V9.55a2.71,2.71,0,0,1-3,3A3.09,3.09,0,0,1,83.51,11.57Zm4-3.92a4.2,4.2,0,0,0,.16-1.33A4.26,4.26,0,0,0,87.51,5a1.54,1.54,0,0,0-2.89,0,4.24,4.24,0,0,0-.17,1.33,4.19,4.19,0,0,0,.17,1.33,1.39,1.39,0,0,0,1.44,1A1.41,1.41,0,0,0,87.51,7.64Z"/><path class="cls-1" d="M91.35,9.85a.13.13,0,0,1-.14-.14V3.17A.13.13,0,0,1,91.35,3h.91a.14.14,0,0,1,.14.14v.7h0a1.9,1.9,0,0,1,1.81-1,2.1,2.1,0,0,1,1.4.51c.07.07.09.13,0,.2l-.53.7a.13.13,0,0,1-.2,0A1.93,1.93,0,0,0,93.87,4c-1,0-1.47.81-1.47,2V9.71a.14.14,0,0,1-.14.14Z"/><path class="cls-1" d="M96.62,8.17a5.08,5.08,0,0,1-.23-1.74,5,5,0,0,1,.23-1.72,2.89,2.89,0,0,1,5.39,0,5.1,5.1,0,0,1,.23,1.72A5.14,5.14,0,0,1,102,8.17a2.89,2.89,0,0,1-5.39,0Zm4.23-.34a4.44,4.44,0,0,0,.16-1.4A4.34,4.34,0,0,0,100.85,5a1.64,1.64,0,0,0-3.08,0,4.34,4.34,0,0,0-.16,1.38,4.44,4.44,0,0,0,.16,1.4,1.64,1.64,0,0,0,3.08,0Z"/><path class="cls-1" d="M108.46,9.85a.13.13,0,0,1-.14-.14V9.07h0a2.08,2.08,0,0,1-1.87.94,2.3,2.3,0,0,1-2.37-2.58V3.17a.14.14,0,0,1,.14-.14h.91a.13.13,0,0,1,.14.14v4c0,1.11.5,1.75,1.51,1.75a1.52,1.52,0,0,0,1.54-1.68V3.17a.13.13,0,0,1,.14-.14h.91a.13.13,0,0,1,.14.14V9.71a.13.13,0,0,1-.14.14Z"/><path class="cls-1" d="M112,12.42a.14.14,0,0,1-.14-.14V3.17A.13.13,0,0,1,112,3h.91a.14.14,0,0,1,.14.14v.64h0A2.07,2.07,0,0,1,115,2.87a2.26,2.26,0,0,1,2.35,1.64,5.67,5.67,0,0,1,.24,1.93,5.71,5.71,0,0,1-.24,1.94A2.26,2.26,0,0,1,115,10a2.07,2.07,0,0,1-1.94-1h0v3.22a.14.14,0,0,1-.14.14Zm4.22-4.56a4.79,4.79,0,0,0,.16-1.43A4.92,4.92,0,0,0,116.23,5a1.62,1.62,0,0,0-3,0,4.42,4.42,0,0,0-.16,1.43,4.37,4.37,0,0,0,.16,1.43,1.61,1.61,0,0,0,3,0Z"/><path class="cls-1" d="M.17,17.19a2,2,0,0,1,2-1.4A2,2,0,0,1,4,16.8.1.1,0,0,1,4,17l-.32.2a.1.1,0,0,1-.15,0,1.4,1.4,0,0,0-1.32-.73,1.37,1.37,0,0,0-1.41,1,3.68,3.68,0,0,0-.15,1.2,3.6,3.6,0,0,0,.15,1.19,1.37,1.37,0,0,0,1.41,1,1.4,1.4,0,0,0,1.32-.73.1.1,0,0,1,.15,0l.32.2a.1.1,0,0,1,0,.15,2,2,0,0,1-1.81,1,2,2,0,0,1-2-1.4A4.65,4.65,0,0,1,0,18.59,4.74,4.74,0,0,1,.17,17.19Z"/><path class="cls-1" d="M5.47,20a4.43,4.43,0,0,1-.18-1.41,4.41,4.41,0,0,1,.18-1.4,2,2,0,0,1,2-1.4,2,2,0,0,1,2,1.4,4.41,4.41,0,0,1,.18,1.4A4.43,4.43,0,0,1,9.49,20a2,2,0,0,1-2,1.4A2,2,0,0,1,5.47,20ZM8.9,19.8A3.67,3.67,0,0,0,9,18.58a3.64,3.64,0,0,0-.15-1.21,1.42,1.42,0,0,0-1.43-1,1.41,1.41,0,0,0-1.42,1,3.63,3.63,0,0,0-.15,1.21,3.66,3.66,0,0,0,.15,1.22,1.41,1.41,0,0,0,1.42,1A1.42,1.42,0,0,0,8.9,19.8Z"/><path class="cls-1" d="M11.25,22.63a.11.11,0,0,1,0-.16l.28-.25a.1.1,0,0,1,.16,0,1.7,1.7,0,0,0,1.33.57c1,0,1.53-.47,1.53-1.63v-.78h0a1.56,1.56,0,0,1-1.59.88A1.75,1.75,0,0,1,11.18,20,4.61,4.61,0,0,1,11,18.55a4.63,4.63,0,0,1,.18-1.46A1.76,1.76,0,0,1,13,15.79a1.56,1.56,0,0,1,1.59.88h0V16a.11.11,0,0,1,.11-.11h.38a.11.11,0,0,1,.11.11v5.16A2,2,0,0,1,13,23.41,2.2,2.2,0,0,1,11.25,22.63Zm3.18-2.86a3.89,3.89,0,0,0,.14-1.23,3.87,3.87,0,0,0-.14-1.23,1.29,1.29,0,0,0-1.34-.95,1.28,1.28,0,0,0-1.32.93,3.67,3.67,0,0,0-.16,1.24,3.6,3.6,0,0,0,.16,1.23,1.28,1.28,0,0,0,1.32.94A1.31,1.31,0,0,0,14.43,19.78Z"/><path class="cls-1" d="M17,20a4.44,4.44,0,0,1-.16-1.38,4.59,4.59,0,0,1,.16-1.4,2,2,0,0,1,2-1.4,2,2,0,0,1,2,1.4,4.26,4.26,0,0,1,.16,1.43.11.11,0,0,1-.12.11h-3.5s-.07,0-.07.08a2.9,2.9,0,0,0,.11.95,1.48,1.48,0,0,0,1.52,1,1.83,1.83,0,0,0,1.5-.69.1.1,0,0,1,.16,0l.26.24a.1.1,0,0,1,0,.16,2.37,2.37,0,0,1-2,.9A2,2,0,0,1,17,20Zm3.47-1.76a.06.06,0,0,0,.07-.07,2.51,2.51,0,0,0-.1-.78,1.53,1.53,0,0,0-2.87,0,2.51,2.51,0,0,0-.1.78.06.06,0,0,0,.07.07Z"/><path class="cls-1" d="M26.47,21.27a.11.11,0,0,1-.11-.11V18c0-1.07-.47-1.61-1.41-1.61a1.41,1.41,0,0,0-1.46,1.5v3.29a.11.11,0,0,1-.11.11H23a.11.11,0,0,1-.11-.11V16A.11.11,0,0,1,23,15.9h.38a.11.11,0,0,1,.11.11v.64h0a1.69,1.69,0,0,1,1.59-.87,1.79,1.79,0,0,1,1.88,2v3.32a.11.11,0,0,1-.11.11Z"/><path class="cls-1" d="M28.76,20a4.45,4.45,0,0,1-.16-1.38,4.6,4.6,0,0,1,.16-1.4,2.13,2.13,0,0,1,4,0,4.26,4.26,0,0,1,.16,1.43.11.11,0,0,1-.12.11h-3.5s-.07,0-.07.08a2.9,2.9,0,0,0,.11.95,1.48,1.48,0,0,0,1.52,1,1.83,1.83,0,0,0,1.5-.69.1.1,0,0,1,.16,0l.26.24a.1.1,0,0,1,0,.16,2.37,2.37,0,0,1-2,.9A2,2,0,0,1,28.76,20Zm3.47-1.76a.06.06,0,0,0,.07-.07,2.52,2.52,0,0,0-.1-.78,1.53,1.53,0,0,0-2.87,0,2.52,2.52,0,0,0-.1.78.06.06,0,0,0,.07.07Z"/><path class="cls-1" d="M34.72,21.27a.11.11,0,0,1-.11-.11V16a.11.11,0,0,1,.11-.11h.38a.11.11,0,0,1,.11.11v.69h0a1.44,1.44,0,0,1,1.44-.91,1.67,1.67,0,0,1,1.08.37.09.09,0,0,1,0,.15l-.22.31c0,.06-.1.06-.17,0a1.55,1.55,0,0,0-.85-.27c-.95,0-1.31.82-1.31,1.81v3a.11.11,0,0,1-.11.11Z"/><path class="cls-1" d="M39.22,16.76a.11.11,0,0,1-.17,0l-.19-.28a.11.11,0,0,1,0-.16,2.59,2.59,0,0,1,1.71-.52c1.4,0,2,.46,2,1.78v3.59a.11.11,0,0,1-.11.11h-.36a.11.11,0,0,1-.11-.11V20.6h0a1.73,1.73,0,0,1-1.67.79c-1.08,0-1.8-.54-1.8-1.59s.73-1.59,2-1.59H41.9a.06.06,0,0,0,.07-.07v-.55c0-.88-.3-1.24-1.4-1.24A2,2,0,0,0,39.22,16.76ZM42,19.62V18.8a.06.06,0,0,0-.07-.07H40.62c-1.07,0-1.52.35-1.52,1.06s.47,1,1.33,1S42,20.35,42,19.62Z"/><path class="cls-1" d="M46.1,21.31c-1,0-1.4-.39-1.4-1.45V16.51a.06.06,0,0,0-.07-.07h-.56a.11.11,0,0,1-.11-.11V16a.11.11,0,0,1,.11-.11h.56a.06.06,0,0,0,.07-.07V14.29a.11.11,0,0,1,.11-.11h.38a.11.11,0,0,1,.11.11v1.54a.06.06,0,0,0,.07.07h1a.11.11,0,0,1,.11.11v.31a.11.11,0,0,1-.11.11h-1a.06.06,0,0,0-.07.07v3.31c0,.72.25.9.87.9h.21a.11.11,0,0,1,.11.11v.36a.11.11,0,0,1-.11.11Z"/><path class="cls-1" d="M48.12,14.47a.11.11,0,0,1-.11-.11v-.63a.11.11,0,0,1,.11-.11h.49a.11.11,0,0,1,.11.11v.63a.11.11,0,0,1-.11.11Zm.06,6.8a.11.11,0,0,1-.11-.11V16a.11.11,0,0,1,.11-.11h.38a.11.11,0,0,1,.11.11v5.14a.11.11,0,0,1-.11.11Z"/><path class="cls-1" d="M50.56,20a4.43,4.43,0,0,1-.18-1.41,4.41,4.41,0,0,1,.18-1.4,2.15,2.15,0,0,1,4,0,4.41,4.41,0,0,1,.18,1.4A4.43,4.43,0,0,1,54.58,20a2.15,2.15,0,0,1-4,0ZM54,19.8a3.67,3.67,0,0,0,.15-1.22A3.64,3.64,0,0,0,54,17.38a1.51,1.51,0,0,0-2.85,0A3.64,3.64,0,0,0,51,18.58a3.67,3.67,0,0,0,.15,1.22,1.51,1.51,0,0,0,2.85,0Z"/><path class="cls-1" d="M60.05,21.27a.11.11,0,0,1-.11-.11V18c0-1.07-.47-1.61-1.41-1.61a1.41,1.41,0,0,0-1.46,1.5v3.29a.11.11,0,0,1-.11.11h-.38a.11.11,0,0,1-.11-.11V16a.11.11,0,0,1,.11-.11H57a.11.11,0,0,1,.11.11v.64h0a1.69,1.69,0,0,1,1.59-.87,1.79,1.79,0,0,1,1.88,2v3.32a.11.11,0,0,1-.11.11Z"/><path class="cls-1" d="M64.89,20.63a.11.11,0,0,1,0-.16l.25-.28a.12.12,0,0,1,.16,0,2.75,2.75,0,0,0,1.74.63c.93,0,1.4-.42,1.4-1s-.24-.83-1.23-.94l-.54-.06c-1-.1-1.56-.59-1.56-1.43s.71-1.57,1.89-1.57a3.31,3.31,0,0,1,1.79.52.11.11,0,0,1,0,.16l-.2.27a.11.11,0,0,1-.16,0A3.18,3.18,0,0,0,67,16.35c-.82,0-1.25.36-1.25,1s.33.81,1.24.9l.54.06c1,.1,1.55.61,1.55,1.44,0,1-.72,1.68-2.06,1.68A3.25,3.25,0,0,1,64.89,20.63Z"/><path class="cls-1" d="M72.26,21.31c-1,0-1.4-.39-1.4-1.45V16.51a.06.06,0,0,0-.07-.07h-.56a.11.11,0,0,1-.11-.11V16a.11.11,0,0,1,.11-.11h.56a.06.06,0,0,0,.07-.07V14.29a.11.11,0,0,1,.11-.11h.38a.11.11,0,0,1,.11.11v1.54a.06.06,0,0,0,.07.07h1a.11.11,0,0,1,.11.11v.31a.11.11,0,0,1-.11.11h-1a.06.06,0,0,0-.07.07v3.31c0,.72.25.9.87.9h.21a.11.11,0,0,1,.11.11v.36a.11.11,0,0,1-.11.11Z"/><path class="cls-1" d="M74.64,16.76a.11.11,0,0,1-.17,0l-.19-.28a.11.11,0,0,1,0-.16A2.59,2.59,0,0,1,76,15.79c1.4,0,2,.46,2,1.78v3.59a.11.11,0,0,1-.11.11h-.36a.11.11,0,0,1-.11-.11V20.6h0a1.73,1.73,0,0,1-1.67.79c-1.08,0-1.8-.54-1.8-1.59s.73-1.59,2-1.59h1.36a.06.06,0,0,0,.07-.07v-.55c0-.88-.3-1.24-1.4-1.24A2,2,0,0,0,74.64,16.76Zm2.75,2.86V18.8a.06.06,0,0,0-.07-.07H76c-1.07,0-1.52.35-1.52,1.06s.47,1,1.33,1S77.39,20.35,77.39,19.62Z"/><path class="cls-1" d="M81.52,21.31c-1,0-1.4-.39-1.4-1.45V16.51a.06.06,0,0,0-.07-.07H79.5a.11.11,0,0,1-.11-.11V16a.11.11,0,0,1,.11-.11h.56a.06.06,0,0,0,.07-.07V14.29a.11.11,0,0,1,.11-.11h.38a.11.11,0,0,1,.11.11v1.54a.06.06,0,0,0,.07.07h1a.11.11,0,0,1,.11.11v.31a.11.11,0,0,1-.11.11h-1a.06.06,0,0,0-.07.07v3.31c0,.72.25.9.87.9h.21a.11.11,0,0,1,.11.11v.36a.11.11,0,0,1-.11.11Z"/><path class="cls-1" d="M83.54,14.47a.11.11,0,0,1-.11-.11v-.63a.11.11,0,0,1,.11-.11H84a.11.11,0,0,1,.11.11v.63a.11.11,0,0,1-.11.11Zm.06,6.8a.11.11,0,0,1-.11-.11V16a.11.11,0,0,1,.11-.11H84a.11.11,0,0,1,.11.11v5.14a.11.11,0,0,1-.11.11Z"/><path class="cls-1" d="M86,20a4.43,4.43,0,0,1-.18-1.41,4.4,4.4,0,0,1,.18-1.4,2.15,2.15,0,0,1,4,0,4.41,4.41,0,0,1,.18,1.4A4.43,4.43,0,0,1,90,20a2.15,2.15,0,0,1-4,0Zm3.43-.19a3.67,3.67,0,0,0,.15-1.22,3.64,3.64,0,0,0-.15-1.21,1.51,1.51,0,0,0-2.85,0,3.64,3.64,0,0,0-.15,1.21,3.66,3.66,0,0,0,.15,1.22,1.51,1.51,0,0,0,2.85,0Z"/><path class="cls-1" d="M95.47,21.27a.11.11,0,0,1-.11-.11V18c0-1.07-.47-1.61-1.41-1.61a1.41,1.41,0,0,0-1.46,1.5v3.29a.11.11,0,0,1-.11.11H92a.11.11,0,0,1-.11-.11V16A.11.11,0,0,1,92,15.9h.38a.11.11,0,0,1,.11.11v.64h0a1.69,1.69,0,0,1,1.59-.87,1.79,1.79,0,0,1,1.88,2v3.32a.11.11,0,0,1-.11.11Z"/><path class="cls-1" d="M97.55,20.63a.11.11,0,0,1,0-.16l.25-.28a.12.12,0,0,1,.16,0,2.75,2.75,0,0,0,1.74.63c.93,0,1.4-.42,1.4-1s-.24-.83-1.23-.94l-.54-.06c-1-.1-1.56-.59-1.56-1.43s.71-1.57,1.89-1.57a3.31,3.31,0,0,1,1.79.52.11.11,0,0,1,0,.16l-.2.27a.11.11,0,0,1-.16,0,3.18,3.18,0,0,0-1.49-.42c-.82,0-1.25.36-1.25,1s.33.81,1.24.9l.54.06c1,.1,1.55.61,1.55,1.44,0,1-.72,1.68-2.06,1.68A3.25,3.25,0,0,1,97.55,20.63Z"/><path class="cls-1" d="M.16,31.39A4.45,4.45,0,0,1,0,30a4.6,4.6,0,0,1,.16-1.4,2,2,0,0,1,2-1.4,2,2,0,0,1,2,1.4A4.26,4.26,0,0,1,4.31,30a.11.11,0,0,1-.12.11H.69s-.07,0-.07.08a2.89,2.89,0,0,0,.11.95,1.48,1.48,0,0,0,1.52,1,1.83,1.83,0,0,0,1.5-.69.1.1,0,0,1,.16,0l.26.24a.1.1,0,0,1,0,.16,2.37,2.37,0,0,1-2,.9A2,2,0,0,1,.16,31.39Zm3.47-1.76a.06.06,0,0,0,.07-.07,2.53,2.53,0,0,0-.1-.78,1.41,1.41,0,0,0-1.44-1,1.4,1.4,0,0,0-1.43,1,2.52,2.52,0,0,0-.1.78.06.06,0,0,0,.07.07Z"/><path class="cls-1" d="M9.6,32.69a.11.11,0,0,1-.11-.11V29.4c0-1.07-.47-1.61-1.41-1.61a1.41,1.41,0,0,0-1.46,1.5v3.29a.11.11,0,0,1-.11.11H6.12A.11.11,0,0,1,6,32.58V27.44a.11.11,0,0,1,.11-.11H6.5a.11.11,0,0,1,.11.11v.64h0a1.69,1.69,0,0,1,1.59-.87,1.79,1.79,0,0,1,1.88,2v3.32a.11.11,0,0,1-.11.11Z"/><path class="cls-1" d="M11.89,31.39A4.45,4.45,0,0,1,11.73,30a4.6,4.6,0,0,1,.16-1.4,2,2,0,0,1,2-1.4,2,2,0,0,1,2,1.4A4.26,4.26,0,0,1,16,30a.11.11,0,0,1-.12.11h-3.5s-.07,0-.07.08a2.9,2.9,0,0,0,.11.95,1.48,1.48,0,0,0,1.52,1,1.83,1.83,0,0,0,1.5-.69.1.1,0,0,1,.16,0l.26.24a.1.1,0,0,1,0,.16,2.37,2.37,0,0,1-2,.9A2,2,0,0,1,11.89,31.39Zm3.47-1.76a.06.06,0,0,0,.07-.07,2.52,2.52,0,0,0-.1-.78,1.4,1.4,0,0,0-1.44-1,1.4,1.4,0,0,0-1.43,1,2.53,2.53,0,0,0-.1.78.06.06,0,0,0,.07.07Z"/><path class="cls-1" d="M17.85,32.69a.11.11,0,0,1-.11-.11V27.44a.11.11,0,0,1,.11-.11h.38a.11.11,0,0,1,.11.11v.69h0a1.44,1.44,0,0,1,1.44-.91,1.67,1.67,0,0,1,1.08.37.09.09,0,0,1,0,.15l-.22.31c0,.06-.1.06-.17,0a1.55,1.55,0,0,0-.85-.27c-.95,0-1.31.82-1.31,1.81v3a.11.11,0,0,1-.11.11Z"/><path class="cls-1" d="M21.86,34.05a.11.11,0,0,1,0-.16l.28-.25a.1.1,0,0,1,.16,0,1.7,1.7,0,0,0,1.33.57c1,0,1.53-.47,1.53-1.63v-.78h0a1.56,1.56,0,0,1-1.59.88,1.75,1.75,0,0,1-1.79-1.28A4.61,4.61,0,0,1,21.61,30a4.63,4.63,0,0,1,.18-1.46,1.76,1.76,0,0,1,1.79-1.29,1.57,1.57,0,0,1,1.59.88h0v-.65a.11.11,0,0,1,.11-.11h.38a.11.11,0,0,1,.11.11v5.16a2,2,0,0,1-2.15,2.24A2.2,2.2,0,0,1,21.86,34.05ZM25,31.2A3.89,3.89,0,0,0,25.18,30,3.87,3.87,0,0,0,25,28.74a1.41,1.41,0,0,0-2.66,0A3.67,3.67,0,0,0,22.23,30a3.6,3.6,0,0,0,.16,1.23,1.28,1.28,0,0,0,1.32.94A1.31,1.31,0,0,0,25,31.2Z"/><path class="cls-1" d="M27.74,34.72a.11.11,0,0,1-.11-.11v-.36a.11.11,0,0,1,.11-.11h.2c.46,0,.71-.19,1-1l.21-.55-2-5.14c0-.07,0-.11.08-.11h.43c.08,0,.11,0,.15.11l1.63,4.31h0l1.59-4.31a.13.13,0,0,1,.13-.11h.43a.08.08,0,0,1,.08.11l-2.2,5.78c-.46,1.24-.85,1.51-1.54,1.51Z"/><path class="cls-1" d="M37.41,32.73c-1,0-1.4-.39-1.4-1.45V27.93a.06.06,0,0,0-.07-.07h-.56a.11.11,0,0,1-.11-.11v-.31a.11.11,0,0,1,.11-.11h.56a.06.06,0,0,0,.07-.07V25.71a.11.11,0,0,1,.11-.11h.38a.11.11,0,0,1,.11.11v1.54a.06.06,0,0,0,.07.07h1a.11.11,0,0,1,.11.11v.31a.11.11,0,0,1-.11.11h-1a.06.06,0,0,0-.07.07v3.31c0,.72.25.9.87.9h.21a.11.11,0,0,1,.11.11v.36a.11.11,0,0,1-.11.11Z"/><path class="cls-1" d="M42.82,32.69a.11.11,0,0,1-.11-.11V32h0a1.67,1.67,0,0,1-1.57.86c-1.19,0-1.86-.74-1.86-2V27.44a.11.11,0,0,1,.11-.11h.38a.11.11,0,0,1,.11.11v3.17c0,1.08.45,1.61,1.38,1.61a1.4,1.4,0,0,0,1.44-1.5V27.44a.11.11,0,0,1,.11-.11h.38a.11.11,0,0,1,.11.11v5.14a.11.11,0,0,1-.11.11Z"/><path class="cls-1" d="M45.5,32.69a.11.11,0,0,1-.11-.11V27.44a.11.11,0,0,1,.11-.11h.38a.11.11,0,0,1,.11.11v.69h0a1.44,1.44,0,0,1,1.44-.91,1.67,1.67,0,0,1,1.08.37.09.09,0,0,1,0,.15l-.22.31a.12.12,0,0,1-.17,0,1.55,1.55,0,0,0-.86-.27c-.95,0-1.31.82-1.31,1.81v3a.11.11,0,0,1-.11.11Z"/><path class="cls-1" d="M53.43,32.69a.11.11,0,0,1-.11-.11V29.4c0-1.07-.47-1.61-1.41-1.61a1.41,1.41,0,0,0-1.46,1.5v3.29a.11.11,0,0,1-.11.11h-.38a.11.11,0,0,1-.11-.11V27.44a.11.11,0,0,1,.11-.11h.38a.11.11,0,0,1,.11.11v.64h0A1.69,1.69,0,0,1,52,27.21a1.79,1.79,0,0,1,1.88,2v3.32a.11.11,0,0,1-.11.11Z"/><path class="cls-1" d="M59.55,32.69c-.08,0-.11,0-.17-.11L57.68,29.8l-1.15,1.35v1.43a.11.11,0,0,1-.11.11H56a.11.11,0,0,1-.11-.11V25.15A.11.11,0,0,1,56,25h.38a.1.1,0,0,1,.11.11v5.16L59,27.44c.07-.08.1-.11.19-.11h.46a.07.07,0,0,1,.06.11l-1.59,1.88,2,3.26a.07.07,0,0,1-.07.11Z"/><path class="cls-1" d="M61.24,31.39A4.45,4.45,0,0,1,61.08,30a4.6,4.6,0,0,1,.16-1.4,2.13,2.13,0,0,1,4,0A4.26,4.26,0,0,1,65.39,30a.11.11,0,0,1-.12.11h-3.5s-.07,0-.07.08a2.9,2.9,0,0,0,.11.95,1.48,1.48,0,0,0,1.52,1,1.83,1.83,0,0,0,1.5-.69.1.1,0,0,1,.16,0l.26.24a.1.1,0,0,1,0,.16,2.37,2.37,0,0,1-2,.9A2,2,0,0,1,61.24,31.39Zm3.47-1.76a.06.06,0,0,0,.07-.07,2.53,2.53,0,0,0-.1-.78,1.53,1.53,0,0,0-2.87,0,2.53,2.53,0,0,0-.1.78.06.06,0,0,0,.07.07Z"/><path class="cls-1" d="M66.95,34.72a.11.11,0,0,1-.11-.11v-.36a.11.11,0,0,1,.11-.11h.2c.46,0,.71-.19,1-1l.21-.55-2-5.14c0-.07,0-.11.08-.11h.43c.08,0,.11,0,.15.11l1.63,4.31h0l1.59-4.31a.13.13,0,0,1,.13-.11h.43a.08.08,0,0,1,.08.11l-2.2,5.78c-.46,1.24-.85,1.51-1.54,1.51Z"/><path class="cls-1" d="M74.67,32.05a.11.11,0,0,1,0-.16l.25-.28a.12.12,0,0,1,.16,0,2.75,2.75,0,0,0,1.74.63c.93,0,1.4-.42,1.4-1S78,30.37,77,30.26l-.54-.06c-1-.1-1.56-.59-1.56-1.43s.71-1.57,1.89-1.57a3.31,3.31,0,0,1,1.79.52.11.11,0,0,1,0,.16l-.2.27a.11.11,0,0,1-.16,0,3.18,3.18,0,0,0-1.49-.42c-.82,0-1.25.36-1.25,1s.33.81,1.24.9l.54.06c1,.1,1.55.61,1.55,1.44,0,1-.72,1.68-2.06,1.68A3.25,3.25,0,0,1,74.67,32.05Z"/><path class="cls-1" d="M80.31,31.41a5.55,5.55,0,0,1,0-2.81,2.15,2.15,0,0,1,4,0,5.55,5.55,0,0,1,0,2.81,2.15,2.15,0,0,1-4,0Zm3.43-.19A3.67,3.67,0,0,0,83.89,30a3.64,3.64,0,0,0-.15-1.21,1.51,1.51,0,0,0-2.85,0A3.64,3.64,0,0,0,80.75,30a3.67,3.67,0,0,0,.15,1.22,1.51,1.51,0,0,0,2.85,0Z"/><path class="cls-1" d="M87.32,32.73c-.81,0-1.11-.37-1.11-1.26V25.15a.1.1,0,0,1,.11-.11h.38a.11.11,0,0,1,.11.11v6.29c0,.53.17.7.57.7h.19a.11.11,0,0,1,.11.11v.36a.11.11,0,0,1-.11.11Z"/><path class="cls-1" d="M92.61,32.69a.11.11,0,0,1-.11-.11V32h0a1.67,1.67,0,0,1-1.57.86c-1.19,0-1.86-.74-1.86-2V27.44a.11.11,0,0,1,.11-.11h.38a.11.11,0,0,1,.11.11v3.17c0,1.08.45,1.61,1.38,1.61a1.4,1.4,0,0,0,1.44-1.5V27.44a.11.11,0,0,1,.11-.11H93a.11.11,0,0,1,.11.11v5.14a.11.11,0,0,1-.11.11Z"/><path class="cls-1" d="M96.71,32.73c-1,0-1.4-.39-1.4-1.45V27.93a.06.06,0,0,0-.07-.07h-.56a.11.11,0,0,1-.11-.11v-.31a.11.11,0,0,1,.11-.11h.56a.06.06,0,0,0,.07-.07V25.71a.11.11,0,0,1,.11-.11h.38a.11.11,0,0,1,.11.11v1.54a.06.06,0,0,0,.07.07h1a.11.11,0,0,1,.11.11v.31a.11.11,0,0,1-.11.11H96a.06.06,0,0,0-.07.07v3.31c0,.72.25.9.87.9H97a.11.11,0,0,1,.11.11v.36a.11.11,0,0,1-.11.11Z"/><path class="cls-1" d="M98.73,25.89a.11.11,0,0,1-.11-.11v-.63a.11.11,0,0,1,.11-.11h.49a.11.11,0,0,1,.11.11v.63a.11.11,0,0,1-.11.11Zm.06,6.8a.11.11,0,0,1-.11-.11V27.44a.11.11,0,0,1,.11-.11h.38a.11.11,0,0,1,.11.11v5.14a.11.11,0,0,1-.11.11Z"/><path class="cls-1" d="M101.17,31.41a5.55,5.55,0,0,1,0-2.81,2.15,2.15,0,0,1,4,0,5.55,5.55,0,0,1,0,2.81,2.15,2.15,0,0,1-4,0Zm3.43-.19a3.67,3.67,0,0,0,.15-1.22,3.64,3.64,0,0,0-.15-1.21,1.51,1.51,0,0,0-2.85,0,3.64,3.64,0,0,0-.15,1.21,3.67,3.67,0,0,0,.15,1.22,1.51,1.51,0,0,0,2.85,0Z"/><path class="cls-1" d="M110.66,32.69a.11.11,0,0,1-.11-.11V29.4c0-1.07-.47-1.61-1.41-1.61a1.41,1.41,0,0,0-1.46,1.5v3.29a.11.11,0,0,1-.11.11h-.38a.11.11,0,0,1-.11-.11V27.44a.11.11,0,0,1,.11-.11h.38a.11.11,0,0,1,.11.11v.64h0a1.69,1.69,0,0,1,1.59-.87,1.79,1.79,0,0,1,1.88,2v3.32a.11.11,0,0,1-.11.11Z"/><path class="cls-1" d="M112.74,32.05a.11.11,0,0,1,0-.16l.25-.28a.12.12,0,0,1,.16,0,2.76,2.76,0,0,0,1.74.63c.93,0,1.4-.42,1.4-1s-.24-.83-1.23-.95l-.54-.06c-1-.1-1.56-.59-1.56-1.43s.71-1.57,1.89-1.57a3.31,3.31,0,0,1,1.79.52.11.11,0,0,1,0,.16l-.2.27a.11.11,0,0,1-.16,0,3.18,3.18,0,0,0-1.49-.42c-.82,0-1.25.36-1.25,1s.33.81,1.24.9l.54.06c1,.1,1.55.61,1.55,1.44,0,1-.72,1.68-2.06,1.68A3.25,3.25,0,0,1,112.74,32.05Z"/></g></g></svg>