<svg viewBox="0 0 104.71 34.86" xmlns="http://www.w3.org/2000/svg"><g fill="#fff"><path d="m.45 6.47v-6.17a.13.13 0 0 1 .15-.14h1a.13.13 0 0 1 .12.14v6.16a2.08 2.08 0 0 0 2.17 2.37 2.08 2.08 0 0 0 2.11-2.37v-6.16a.13.13 0 0 1 .19-.14h1a.13.13 0 0 1 .12.14v6.17a3.17 3.17 0 0 1 -3.42 3.53 3.18 3.18 0 0 1 -3.44-3.53z"/><path d="m9.79 9.85a.13.13 0 0 1 -.14-.14v-9.41a.13.13 0 0 1 .14-.14h3.45a2.8 2.8 0 0 1 3.08 2.89 2.81 2.81 0 0 1 -3.08 2.89h-2.24a.08.08 0 0 0 -.09.09v3.68a.13.13 0 0 1 -.14.14zm5.28-6.8a1.67 1.67 0 0 0 -1.9-1.71h-2.17a.08.08 0 0 0 -.09.09v3.25a.08.08 0 0 0 .09.08h2.17a1.67 1.67 0 0 0 1.9-1.71z"/><path d="m18.1.3a.13.13 0 0 1 .14-.14h3.44c2 0 2.92 1 2.92 2.55a2.09 2.09 0 0 1 -1.3 2.11 2.24 2.24 0 0 1 1.47 2.24c0 1.81-1.14 2.77-3.17 2.77h-3.36a.13.13 0 0 1 -.14-.14zm3.55 4a1.5 1.5 0 0 0 1.7-1.51 1.5 1.5 0 0 0 -1.7-1.53h-2.2a.08.08 0 0 0 -.09.09v2.92a.08.08 0 0 0 .09.08zm-2.2 4.4h2.27c1.16 0 1.78-.63 1.78-1.6a1.56 1.56 0 0 0 -1.78-1.6h-2.27a.08.08 0 0 0 -.09.09v3a.08.08 0 0 0 .09.11z"/><path d="m30.14.3a.13.13 0 0 1 .14-.14h.91a.23.23 0 0 1 .24.14l4.39 7.27h.06v-7.27a.13.13 0 0 1 .12-.14h.9a.13.13 0 0 1 .14.14v9.41a.13.13 0 0 1 -.14.14h-.9a.24.24 0 0 1 -.24-.14l-4.39-7.24v7.24a.14.14 0 0 1 -.14.14h-.9a.13.13 0 0 1 -.14-.14z"/><path d="m42 .3c0-.09.07-.14.17-.14h.93a.18.18 0 0 1 .18.14l3.32 9.41a.1.1 0 0 1 -.1.14h-1a.17.17 0 0 1 -.18-.14l-.75-2.11h-3.92l-.74 2.11a.19.19 0 0 1 -.18.14h-1a.1.1 0 0 1 -.1-.14zm2.17 6.13-1.54-4.43-1.57 4.43z"/><path d="m48.14.3a.13.13 0 0 1 .14-.14h.93a.22.22 0 0 1 .23.14l2.89 6.53 2.89-6.53a.22.22 0 0 1 .23-.14h.93a.13.13 0 0 1 .14.14v9.41a.13.13 0 0 1 -.14.14h-.9a.14.14 0 0 1 -.14-.14v-6.71l-2.46 5.3a.24.24 0 0 1 -.26.17h-.57a.25.25 0 0 1 -.27-.17l-2.41-5.3v6.71a.14.14 0 0 1 -.14.14h-.9a.13.13 0 0 1 -.14-.14z"/><path d="m58.45 8.8a.15.15 0 0 1 0-.21l.63-.74a.13.13 0 0 1 .2 0 4.47 4.47 0 0 0 2.71 1c1.34 0 2.14-.67 2.14-1.65 0-.83-.47-1.38-2-1.58l-.48-.07c-1.88-.26-2.85-1.16-2.85-2.68-.05-1.76 1.2-2.87 3.12-2.87a5.16 5.16 0 0 1 3 .9.13.13 0 0 1 0 .2l-.49.79a.14.14 0 0 1 -.2 0 4.29 4.29 0 0 0 -2.34-.73c-1.18 0-1.84.64-1.84 1.57s.54 1.35 2 1.55l.47.07c1.9.26 2.85 1.13 2.85 2.71s-1.17 2.94-3.51 2.94a5.33 5.33 0 0 1 -3.41-1.2z"/><path d="m70.61 11.57a.13.13 0 0 1 0-.2l.59-.58a.13.13 0 0 1 .21 0 2.28 2.28 0 0 0 1.61.68c1.13 0 1.72-.59 1.72-1.84v-.8a2 2 0 0 1 -1.89.94 2.24 2.24 0 0 1 -2.3-1.65 5.31 5.31 0 0 1 -.23-1.8 5.31 5.31 0 0 1 .23-1.8 2.24 2.24 0 0 1 2.3-1.65 2 2 0 0 1 1.89.94v-.64a.14.14 0 0 1 .17-.17h.91a.13.13 0 0 1 .14.14v6.41a2.71 2.71 0 0 1 -3 3 3.08 3.08 0 0 1 -2.35-.98zm4-3.92a4.14 4.14 0 0 0 .16-1.33 4.19 4.19 0 0 0 -.16-1.32 1.54 1.54 0 0 0 -2.89 0 4.24 4.24 0 0 0 -.17 1.33 4.19 4.19 0 0 0 .17 1.33 1.39 1.39 0 0 0 1.44 1 1.41 1.41 0 0 0 1.45-1.02z"/><path d="m78.45 9.85a.13.13 0 0 1 -.14-.14v-6.54a.13.13 0 0 1 .14-.17h.91a.14.14 0 0 1 .14.14v.7a1.9 1.9 0 0 1 1.81-1 2.11 2.11 0 0 1 1.4.51c.07.07.08.13 0 .2l-.53.7a.13.13 0 0 1 -.2 0 1.93 1.93 0 0 0 -.98-.25c-1 0-1.47.81-1.47 2v3.71a.14.14 0 0 1 -.14.14z"/><path d="m83.72 8.17a5.09 5.09 0 0 1 -.23-1.74 5 5 0 0 1 .23-1.72 2.89 2.89 0 0 1 5.39 0 5.1 5.1 0 0 1 .23 1.72 5.14 5.14 0 0 1 -.23 1.74 2.89 2.89 0 0 1 -5.39 0zm4.28-.34a4.44 4.44 0 0 0 .16-1.4 4.34 4.34 0 0 0 -.16-1.43 1.64 1.64 0 0 0 -3.08 0 4.33 4.33 0 0 0 -.16 1.38 4.43 4.43 0 0 0 .16 1.4 1.64 1.64 0 0 0 3.08 0z"/><path d="m95.56 9.85a.13.13 0 0 1 -.14-.14v-.64a2.08 2.08 0 0 1 -1.87.94 2.3 2.3 0 0 1 -2.37-2.58v-4.26a.14.14 0 0 1 .13-.17h.91a.13.13 0 0 1 .14.14v4c0 1.11.5 1.75 1.51 1.75a1.52 1.52 0 0 0 1.54-1.68v-4.04a.13.13 0 0 1 .15-.17h.91a.13.13 0 0 1 .14.14v6.57a.13.13 0 0 1 -.14.14z"/><path d="m99.1 12.42a.14.14 0 0 1 -.14-.14v-9.11a.13.13 0 0 1 .14-.17h.9a.14.14 0 0 1 .14.14v.64a2.07 2.07 0 0 1 1.94-.94 2.26 2.26 0 0 1 2.35 1.64 5.67 5.67 0 0 1 .24 1.93 5.71 5.71 0 0 1 -.24 1.94 2.26 2.26 0 0 1 -2.32 1.65 2.07 2.07 0 0 1 -1.94-1v3.22a.14.14 0 0 1 -.14.14zm4.22-4.56a4.79 4.79 0 0 0 .16-1.43 4.92 4.92 0 0 0 -.15-1.43 1.62 1.62 0 0 0 -3 0 4.43 4.43 0 0 0 -.16 1.43 4.37 4.37 0 0 0 .16 1.43 1.61 1.61 0 0 0 3 0z"/><path d="m.25 22.65a.11.11 0 0 1 0-.16l.29-.25a.1.1 0 0 1 .16 0 1.73 1.73 0 0 0 1.35.58c1 0 1.55-.48 1.55-1.65v-.79a1.59 1.59 0 0 1 -1.6.92 1.78 1.78 0 0 1 -1.82-1.3 4.74 4.74 0 0 1 -.18-1.49 4.72 4.72 0 0 1 .18-1.51 1.79 1.79 0 0 1 1.82-1.28 1.59 1.59 0 0 1 1.61.89v-.66a.11.11 0 0 1 .11-.12h.39a.11.11 0 0 1 .12.12v5.22a2 2 0 0 1 -2.18 2.27 2.22 2.22 0 0 1 -1.8-.79zm3.23-2.9a3.9 3.9 0 0 0 .14-1.24 3.9 3.9 0 0 0 -.14-1.24 1.31 1.31 0 0 0 -1.36-1 1.3 1.3 0 0 0 -1.34.95 3.74 3.74 0 0 0 -.16 1.25 3.67 3.67 0 0 0 .16 1.24 1.29 1.29 0 0 0 1.34 1 1.33 1.33 0 0 0 1.36-.95z"/><path d="m6.13 19.95a4.58 4.58 0 0 1 -.13-1.4 4.72 4.72 0 0 1 .16-1.41 2 2 0 0 1 2-1.41 2 2 0 0 1 2 1.41 4.35 4.35 0 0 1 .16 1.45.11.11 0 0 1 -.12.11h-3.53s-.07 0-.07.08a3 3 0 0 0 .12 1 1.5 1.5 0 0 0 1.54 1.06 1.86 1.86 0 0 0 1.52-.69.1.1 0 0 1 .16 0l.26.24a.1.1 0 0 1 0 .16 2.4 2.4 0 0 1 -2 .91 2 2 0 0 1 -2.07-1.51zm3.52-1.78a.06.06 0 0 0 .07-.07 2.5 2.5 0 0 0 -.1-.79 1.42 1.42 0 0 0 -1.46-1 1.42 1.42 0 0 0 -1.45 1 2.57 2.57 0 0 0 -.1.79.06.06 0 0 0 .07.07z"/><path d="m15.71 21.27a.11.11 0 0 1 -.11-.12v-3.21c0-1.08-.48-1.63-1.43-1.63a1.43 1.43 0 0 0 -1.48 1.52v3.33a.11.11 0 0 1 -.12.12h-.39a.11.11 0 0 1 -.11-.12v-5.21a.11.11 0 0 1 .11-.12h.39a.11.11 0 0 1 .12.12v.65a1.71 1.71 0 0 1 1.61-.88 1.81 1.81 0 0 1 1.9 2.08v3.36a.11.11 0 0 1 -.11.12z"/><path d="m18 19.95a4.57 4.57 0 0 1 -.16-1.4 4.71 4.71 0 0 1 .16-1.42 2 2 0 0 1 2-1.41 2 2 0 0 1 2 1.41 4.35 4.35 0 0 1 .16 1.45.11.11 0 0 1 -.12.11h-3.46s-.07 0-.07.08a3 3 0 0 0 .12 1 1.5 1.5 0 0 0 1.54 1.06 1.86 1.86 0 0 0 1.52-.69.1.1 0 0 1 .16 0l.26.24a.1.1 0 0 1 0 .16 2.4 2.4 0 0 1 -2 .91 2 2 0 0 1 -2.11-1.5zm3.52-1.78a.06.06 0 0 0 .07-.07 2.5 2.5 0 0 0 -.1-.79 1.54 1.54 0 0 0 -2.91 0 2.56 2.56 0 0 0 -.1.79.06.06 0 0 0 .07.07z"/><path d="m24.1 21.27a.11.11 0 0 1 -.11-.12v-5.2a.11.11 0 0 1 .11-.12h.39a.11.11 0 0 1 .12.12v.7a1.46 1.46 0 0 1 1.46-.92 1.68 1.68 0 0 1 1.1.38.09.09 0 0 1 0 .15l-.23.32a.12.12 0 0 1 -.17 0 1.56 1.56 0 0 0 -.87-.27c-1 0-1.32.83-1.32 1.83v3a.11.11 0 0 1 -.12.12z"/><path d="m28.66 16.7a.12.12 0 0 1 -.17 0l-.19-.28a.11.11 0 0 1 0-.16 2.63 2.63 0 0 1 1.73-.52c1.41 0 2 .47 2 1.8v3.64a.11.11 0 0 1 -.11.12h-.37a.11.11 0 0 1 -.12-.12v-.57a1.75 1.75 0 0 1 -1.69.8c-1.1 0-1.83-.55-1.83-1.61s.74-1.61 2.06-1.61h1.38a.06.06 0 0 0 .07-.07v-.56c0-.89-.31-1.26-1.41-1.26a2 2 0 0 0 -1.35.4zm2.78 2.9v-.83s0-.07-.07-.07h-1.3c-1.08 0-1.54.36-1.54 1.07s.48 1 1.35 1 1.56-.43 1.56-1.17z"/><path d="m35.21 21.31c-.82 0-1.13-.37-1.13-1.28v-6.4a.11.11 0 0 1 .12-.12h.39a.11.11 0 0 1 .12.12v6.37c0 .54.17.71.58.71h.19a.11.11 0 0 1 .11.12v.37a.11.11 0 0 1 -.11.11z"/><path d="m39.69 17.13a2.16 2.16 0 0 1 3.87-.39.1.1 0 0 1 0 .15l-.32.21a.1.1 0 0 1 -.15 0 1.42 1.42 0 0 0 -1.33-.74 1.39 1.39 0 0 0 -1.43 1 3.71 3.71 0 0 0 -.15 1.22 3.61 3.61 0 0 0 .15 1.21 1.39 1.39 0 0 0 1.43 1 1.41 1.41 0 0 0 1.33-.74.1.1 0 0 1 .15 0l.32.2a.1.1 0 0 1 0 .15 2.16 2.16 0 0 1 -3.87-.4 4.75 4.75 0 0 1 -.17-1.41 4.85 4.85 0 0 1 .17-1.46z"/><path d="m45.07 20a4.53 4.53 0 0 1 -.18-1.42 4.5 4.5 0 0 1 .18-1.41 2.17 2.17 0 0 1 4.07 0 4.5 4.5 0 0 1 .18 1.41 4.53 4.53 0 0 1 -.17 1.42 2.17 2.17 0 0 1 -4.07 0zm3.48-.19a3.74 3.74 0 0 0 .15-1.23 3.73 3.73 0 0 0 -.15-1.22 1.53 1.53 0 0 0 -2.89 0 3.66 3.66 0 0 0 -.15 1.22 3.68 3.68 0 0 0 .15 1.23 1.53 1.53 0 0 0 2.89 0z"/><path d="m54.71 21.27a.11.11 0 0 1 -.11-.12v-3.21c0-1.08-.48-1.63-1.43-1.63a1.43 1.43 0 0 0 -1.48 1.52v3.33a.11.11 0 0 1 -.12.12h-.39a.11.11 0 0 1 -.11-.12v-5.21a.11.11 0 0 1 .11-.12h.39a.11.11 0 0 1 .12.12v.65a1.71 1.71 0 0 1 1.61-.88 1.81 1.81 0 0 1 1.9 2.08v3.36a.11.11 0 0 1 -.11.12z"/><path d="m56.82 20.62a.11.11 0 0 1 0-.16l.25-.29a.12.12 0 0 1 .16 0 2.82 2.82 0 0 0 1.77.64c.95 0 1.41-.42 1.41-1s-.24-.84-1.24-1l-.55-.06c-1-.1-1.59-.59-1.59-1.45s.72-1.58 1.92-1.58a3.35 3.35 0 0 1 1.82.52.11.11 0 0 1 0 .16l-.2.27a.11.11 0 0 1 -.16 0 3.19 3.19 0 0 0 -1.51-.42c-.83 0-1.27.36-1.27 1s.33.82 1.26.91l.55.06c1.06.1 1.57.61 1.57 1.46 0 1-.73 1.7-2.09 1.7a3.29 3.29 0 0 1 -2.1-.76z"/><path d="m64.3 21.31c-1 0-1.41-.4-1.41-1.47v-3.39a.06.06 0 0 0 -.07-.07h-.57a.11.11 0 0 1 -.12-.11v-.32a.11.11 0 0 1 .12-.12h.57a.06.06 0 0 0 .07-.07v-1.56a.11.11 0 0 1 .11-.11h.39a.11.11 0 0 1 .11.11v1.56a.06.06 0 0 0 .07.07h1a.11.11 0 0 1 .12.12v.32a.11.11 0 0 1 -.12.11h-1a.06.06 0 0 0 -.07.07v3.35c0 .73.25.91.88.91h.22a.11.11 0 0 1 .12.12v.37a.11.11 0 0 1 -.12.11z"/><path d="m66.41 21.27a.11.11 0 0 1 -.12-.12v-5.2a.11.11 0 0 1 .12-.12h.39a.11.11 0 0 1 .11.12v.7a1.46 1.46 0 0 1 1.46-.92 1.68 1.68 0 0 1 1.1.38.09.09 0 0 1 0 .15l-.23.32a.13.13 0 0 1 -.17 0 1.55 1.55 0 0 0 -.86-.27c-1 0-1.33.83-1.33 1.83v3a.11.11 0 0 1 -.11.12z"/><path d="m74.31 21.27a.11.11 0 0 1 -.11-.12v-.64a1.69 1.69 0 0 1 -1.58.87c-1.21 0-1.88-.75-1.88-2.07v-3.36a.11.11 0 0 1 .11-.12h.39a.11.11 0 0 1 .12.12v3.22c0 1.1.46 1.63 1.4 1.63a1.42 1.42 0 0 0 1.46-1.52v-3.33a.11.11 0 0 1 .11-.12h.39a.11.11 0 0 1 .11.12v5.21a.11.11 0 0 1 -.11.12z"/><path d="m76.73 17.13a2.16 2.16 0 0 1 3.87-.39.1.1 0 0 1 0 .15l-.32.21a.1.1 0 0 1 -.15 0 1.42 1.42 0 0 0 -1.33-.74 1.39 1.39 0 0 0 -1.43 1 3.71 3.71 0 0 0 -.15 1.22 3.61 3.61 0 0 0 .15 1.21 1.39 1.39 0 0 0 1.43 1 1.41 1.41 0 0 0 1.33-.74.1.1 0 0 1 .15 0l.32.2a.1.1 0 0 1 0 .15 2.16 2.16 0 0 1 -3.87-.4 4.75 4.75 0 0 1 -.17-1.41 4.85 4.85 0 0 1 .17-1.46z"/><path d="m83.85 21.31c-1 0-1.41-.4-1.41-1.47v-3.39a.06.06 0 0 0 -.07-.07h-.57a.11.11 0 0 1 -.12-.11v-.32a.11.11 0 0 1 .12-.12h.57s.07 0 .07-.07v-1.56a.11.11 0 0 1 .11-.11h.39a.11.11 0 0 1 .11.11v1.56s0 .07.07.07h1a.11.11 0 0 1 .12.12v.32a.11.11 0 0 1 -.12.11h-1a.06.06 0 0 0 -.07.07v3.35c0 .73.25.91.88.91h.22a.11.11 0 0 1 .12.12v.37a.11.11 0 0 1 -.12.11z"/><path d="m85.9 14.38a.11.11 0 0 1 -.12-.11v-.64a.11.11 0 0 1 .12-.12h.5a.11.11 0 0 1 .11.12v.64a.11.11 0 0 1 -.11.11zm.1 6.89a.11.11 0 0 1 -.12-.12v-5.2a.11.11 0 0 1 .12-.12h.39a.11.11 0 0 1 .11.12v5.21a.11.11 0 0 1 -.11.12z"/><path d="m88.38 20a4.46 4.46 0 0 1 -.18-1.42 4.43 4.43 0 0 1 .18-1.41 2.17 2.17 0 0 1 4.07 0 4.5 4.5 0 0 1 .18 1.41 4.53 4.53 0 0 1 -.18 1.42 2.17 2.17 0 0 1 -4.07 0zm3.48-.19a3.69 3.69 0 0 0 .14-1.26 3.67 3.67 0 0 0 -.15-1.22 1.53 1.53 0 0 0 -2.89 0 3.66 3.66 0 0 0 -.15 1.22 3.68 3.68 0 0 0 .19 1.23 1.53 1.53 0 0 0 2.89 0z"/><path d="m98 21.27a.11.11 0 0 1 -.11-.12v-3.21c0-1.08-.48-1.63-1.43-1.63a1.43 1.43 0 0 0 -1.46 1.52v3.33a.11.11 0 0 1 -.11.12h-.39a.11.11 0 0 1 -.12-.12v-5.21a.11.11 0 0 1 .12-.12h.39a.11.11 0 0 1 .11.12v.65a1.71 1.71 0 0 1 1.61-.88 1.81 1.81 0 0 1 1.9 2.08v3.36a.11.11 0 0 1 -.11.12z"/><path d="m.17 31.37a4.57 4.57 0 0 1 -.17-1.37 4.7 4.7 0 0 1 .16-1.41 2 2 0 0 1 2-1.41 2 2 0 0 1 2 1.41 4.34 4.34 0 0 1 .22 1.41.11.11 0 0 1 -.12.12h-3.55a.07.07 0 0 0 -.07.08 3 3 0 0 0 .12 1 1.5 1.5 0 0 0 1.54 1.06 1.86 1.86 0 0 0 1.52-.7.1.1 0 0 1 .16 0l.26.24a.1.1 0 0 1 0 .16 2.39 2.39 0 0 1 -2 .91 2 2 0 0 1 -2.07-1.5zm3.52-1.78a.06.06 0 0 0 .07-.07 2.49 2.49 0 0 0 -.1-.79 1.42 1.42 0 0 0 -1.46-1 1.42 1.42 0 0 0 -1.45 1 2.56 2.56 0 0 0 -.1.79.06.06 0 0 0 .07.07z"/><path d="m9.75 32.69a.11.11 0 0 1 -.11-.11v-3.22c0-1.08-.48-1.63-1.43-1.63a1.43 1.43 0 0 0 -1.48 1.52v3.33a.11.11 0 0 1 -.12.11h-.39a.11.11 0 0 1 -.11-.11v-5.21a.11.11 0 0 1 .11-.12h.39a.11.11 0 0 1 .12.12v.63a1.71 1.71 0 0 1 1.61-.88 1.81 1.81 0 0 1 1.9 2.07v3.37a.11.11 0 0 1 -.11.11z"/><path d="m12.16 34.07a.11.11 0 0 1 0-.16l.29-.25a.1.1 0 0 1 .16 0 1.72 1.72 0 0 0 1.34.58c1 0 1.55-.48 1.55-1.65v-.79a1.58 1.58 0 0 1 -1.61.89 1.78 1.78 0 0 1 -1.82-1.3 4.73 4.73 0 0 1 -.18-1.48 4.74 4.74 0 0 1 .18-1.48 1.79 1.79 0 0 1 1.82-1.31 1.58 1.58 0 0 1 1.61.89v-.66a.11.11 0 0 1 .12-.12h.38a.11.11 0 0 1 .11.12v5.22a2 2 0 0 1 -2.11 2.29 2.23 2.23 0 0 1 -1.84-.79zm3.23-2.9a3.9 3.9 0 0 0 .14-1.24 3.91 3.91 0 0 0 -.14-1.24 1.31 1.31 0 0 0 -1.36-1 1.3 1.3 0 0 0 -1.34.95 3.71 3.71 0 0 0 -.16 1.26 3.62 3.62 0 0 0 .16 1.24 1.3 1.3 0 0 0 1.34 1 1.32 1.32 0 0 0 1.36-.96z"/><path d="m18.31 25.8a.11.11 0 0 1 -.12-.12v-.68a.11.11 0 0 1 .12-.11h.5a.11.11 0 0 1 .11.11v.64a.11.11 0 0 1 -.11.12zm.06 6.89a.11.11 0 0 1 -.12-.11v-5.21a.11.11 0 0 1 .12-.12h.39a.11.11 0 0 1 .11.12v5.21a.11.11 0 0 1 -.11.11z"/><path d="m24.6 32.69a.11.11 0 0 1 -.11-.11v-3.22c0-1.08-.48-1.63-1.43-1.63a1.43 1.43 0 0 0 -1.48 1.52v3.33a.11.11 0 0 1 -.12.11h-.39a.11.11 0 0 1 -.11-.11v-5.21a.11.11 0 0 1 .11-.12h.39a.11.11 0 0 1 .12.12v.63a1.71 1.71 0 0 1 1.61-.88 1.81 1.81 0 0 1 1.9 2.07v3.37a.11.11 0 0 1 -.11.11z"/><path d="m26.94 31.37a4.56 4.56 0 0 1 -.16-1.4 4.69 4.69 0 0 1 .16-1.41 2.16 2.16 0 0 1 4.05 0 4.34 4.34 0 0 1 .16 1.44.11.11 0 0 1 -.12.12h-3.55a.07.07 0 0 0 -.07.08 3 3 0 0 0 .12 1 1.5 1.5 0 0 0 1.54 1.06 1.86 1.86 0 0 0 1.52-.7.1.1 0 0 1 .16 0l.26.24a.1.1 0 0 1 0 .16 2.39 2.39 0 0 1 -2 .91 2 2 0 0 1 -2.07-1.5zm3.52-1.78a.06.06 0 0 0 .07-.07 2.49 2.49 0 0 0 -.1-.79 1.54 1.54 0 0 0 -2.91 0 2.56 2.56 0 0 0 -.1.79.06.06 0 0 0 .07.07z"/><path d="m32.67 31.37a4.48 4.48 0 0 1 -.16-1.4 4.61 4.61 0 0 1 .16-1.41 2.16 2.16 0 0 1 4 0 4.34 4.34 0 0 1 .21 1.44.11.11 0 0 1 -.12.12h-3.55a.07.07 0 0 0 -.07.08 2.9 2.9 0 0 0 .12 1 1.5 1.5 0 0 0 1.54 1.06 1.86 1.86 0 0 0 1.52-.7.1.1 0 0 1 .16 0l.26.24a.1.1 0 0 1 0 .16 2.39 2.39 0 0 1 -2 .91 2 2 0 0 1 -2.07-1.5zm3.51-1.78s.07 0 .07-.07a2.48 2.48 0 0 0 -.1-.79 1.54 1.54 0 0 0 -2.91 0 2.49 2.49 0 0 0 -.1.79.06.06 0 0 0 .07.07z"/><path d="m38.73 32.69a.11.11 0 0 1 -.12-.11v-5.21a.11.11 0 0 1 .12-.12h.39a.11.11 0 0 1 .11.12v.69a1.46 1.46 0 0 1 1.46-.92 1.7 1.7 0 0 1 1.1.37.09.09 0 0 1 0 .15l-.23.32a.13.13 0 0 1 -.17 0 1.55 1.55 0 0 0 -.86-.27c-1 0-1.33.83-1.33 1.84v3a.11.11 0 0 1 -.11.11z"/><path d="m43.19 25.8a.11.11 0 0 1 -.12-.12v-.68a.11.11 0 0 1 .12-.11h.5a.11.11 0 0 1 .11.11v.64a.11.11 0 0 1 -.11.12zm.06 6.89a.11.11 0 0 1 -.11-.11v-5.21a.11.11 0 0 1 .11-.12h.39a.11.11 0 0 1 .12.12v5.21a.11.11 0 0 1 -.12.11z"/><path d="m49.49 32.69a.11.11 0 0 1 -.11-.11v-3.22c0-1.08-.48-1.63-1.43-1.63a1.43 1.43 0 0 0 -1.48 1.52v3.33a.11.11 0 0 1 -.11.11h-.36a.11.11 0 0 1 -.12-.11v-5.21a.11.11 0 0 1 .12-.12h.39a.11.11 0 0 1 .11.12v.63a1.71 1.71 0 0 1 1.61-.88 1.81 1.81 0 0 1 1.89 2.09v3.37a.11.11 0 0 1 -.11.11z"/><path d="m51.9 34.07a.11.11 0 0 1 0-.16l.29-.25a.1.1 0 0 1 .16 0 1.72 1.72 0 0 0 1.34.58c1 0 1.55-.48 1.55-1.65v-.79a1.58 1.58 0 0 1 -1.61.89 1.78 1.78 0 0 1 -1.82-1.3 4.72 4.72 0 0 1 -.18-1.48 4.74 4.74 0 0 1 .18-1.48 1.79 1.79 0 0 1 1.82-1.31 1.58 1.58 0 0 1 1.61.89v-.66a.11.11 0 0 1 .12-.12h.39a.11.11 0 0 1 .11.12v5.22a2 2 0 0 1 -2.18 2.27 2.23 2.23 0 0 1 -1.78-.77zm3.23-2.9a3.9 3.9 0 0 0 .14-1.24 3.9 3.9 0 0 0 -.14-1.24 1.43 1.43 0 0 0 -2.69 0 3.71 3.71 0 0 0 -.16 1.26 3.61 3.61 0 0 0 .16 1.24 1.3 1.3 0 0 0 1.34 1 1.32 1.32 0 0 0 1.35-1.01z"/><path d="m64.43 32.69a.11.11 0 0 1 -.11-.11v-3.22c0-1.08-.48-1.63-1.43-1.63a1.43 1.43 0 0 0 -1.48 1.52v3.33a.11.11 0 0 1 -.11.11h-.39a.11.11 0 0 1 -.12-.11v-5.21a.11.11 0 0 1 .12-.12h.39a.11.11 0 0 1 .11.12v.63a1.71 1.71 0 0 1 1.59-.86 1.81 1.81 0 0 1 1.9 2.07v3.37a.11.11 0 0 1 -.11.11z"/><path d="m66.77 31.37a4.48 4.48 0 0 1 -.16-1.4 4.61 4.61 0 0 1 .16-1.41 2.16 2.16 0 0 1 4 0 4.34 4.34 0 0 1 .23 1.44.11.11 0 0 1 -.12.12h-3.57s-.07 0-.07.08a2.9 2.9 0 0 0 .12 1 1.5 1.5 0 0 0 1.54 1.06 1.86 1.86 0 0 0 1.52-.7.1.1 0 0 1 .16 0l.26.24a.1.1 0 0 1 0 .16 2.39 2.39 0 0 1 -2 .91 2 2 0 0 1 -2.07-1.5zm3.51-1.78s.07 0 .07-.07a2.49 2.49 0 0 0 -.1-.79 1.54 1.54 0 0 0 -2.91 0 2.48 2.48 0 0 0 -.1.79.06.06 0 0 0 .07.07z"/><path d="m74.27 32.73c-1 0-1.41-.4-1.41-1.47v-3.39a.06.06 0 0 0 -.07-.07h-.57a.11.11 0 0 1 -.12-.11v-.32a.11.11 0 0 1 .12-.12h.57s.07 0 .07-.07v-1.56a.11.11 0 0 1 .14-.12h.39a.11.11 0 0 1 .11.12v1.56a.06.06 0 0 0 .07.07h1a.11.11 0 0 1 .12.12v.32a.11.11 0 0 1 -.12.11h-1a.06.06 0 0 0 -.07.07v3.35c0 .73.25.91.88.91h.22a.11.11 0 0 1 .12.12v.36a.11.11 0 0 1 -.12.11z"/><path d="m81 32.69a.13.13 0 0 1 -.14-.11l-1.41-4.35-1.45 4.35c0 .08-.06.11-.14.11h-.34c-.08 0-.12 0-.14-.11l-1.7-5.21c0-.07 0-.12.08-.12h.41c.08 0 .11 0 .15.12l1.39 4.34 1.41-4.34c0-.07.06-.12.14-.12h.33a.14.14 0 0 1 .14.12l1.44 4.34 1.36-4.34c0-.08.07-.12.15-.12h.41c.08 0 .1 0 .08.12l-1.7 5.21a.13.13 0 0 1 -.14.11z"/><path d="m84.48 31.39a4.47 4.47 0 0 1 -.18-1.39 4.43 4.43 0 0 1 .18-1.41 2.17 2.17 0 0 1 4.07 0 5.61 5.61 0 0 1 0 2.84 2.17 2.17 0 0 1 -4.07 0zm3.52-.19a3.7 3.7 0 0 0 .11-1.2 3.66 3.66 0 0 0 -.11-1.25 1.53 1.53 0 0 0 -2.89 0 3.64 3.64 0 0 0 -.18 1.25 3.69 3.69 0 0 0 .15 1.23 1.53 1.53 0 0 0 2.89 0z"/><path d="m90.59 32.69a.11.11 0 0 1 -.11-.11v-5.21a.11.11 0 0 1 .11-.12h.41a.11.11 0 0 1 .12.12v.69a1.46 1.46 0 0 1 1.46-.92 1.7 1.7 0 0 1 1.1.37.09.09 0 0 1 0 .15l-.23.32a.12.12 0 0 1 -.17 0 1.56 1.56 0 0 0 -.87-.27c-1 0-1.32.83-1.32 1.84v3a.11.11 0 0 1 -.12.11z"/><path d="m98.68 32.69c-.08 0-.11 0-.17-.11l-1.73-2.82-1.16 1.37v1.45a.11.11 0 0 1 -.11.11h-.39a.11.11 0 0 1 -.12-.11v-7.58a.11.11 0 0 1 .12-.11h.39a.11.11 0 0 1 .11.11v5.23l2.46-2.91c.07-.08.1-.12.19-.12h.47a.07.07 0 0 1 .06.12l-1.61 1.9 2 3.31a.07.07 0 0 1 -.07.11z"/><path d="m100.15 32a.11.11 0 0 1 0-.16l.25-.29a.12.12 0 0 1 .16 0 2.8 2.8 0 0 0 1.77.64c.95 0 1.41-.42 1.41-1s-.24-.85-1.24-1l-.55-.06c-1-.1-1.59-.59-1.59-1.45s.72-1.58 1.92-1.58a3.37 3.37 0 0 1 1.82.52.11.11 0 0 1 0 .16l-.2.27a.12.12 0 0 1 -.16 0 3.22 3.22 0 0 0 -1.51-.42c-.83 0-1.27.36-1.27 1s.33.82 1.26.91l.55.06c1.06.1 1.57.61 1.57 1.46 0 1-.73 1.7-2.09 1.7a3.28 3.28 0 0 1 -2.1-.76z"/></g></svg>