<svg viewBox="0 0 134.87 45.04" xmlns="http://www.w3.org/2000/svg"><g fill="#fff"><path d="m119 8.07a34.55 34.55 0 0 0 -7.12.73c-5.5 1.14-9.06 3.3-10.05 4.22h-.18l5.17-13h-7.44l-13.54 34.39h7.45l1.71-4.11h.07c1.93 3.3 6.44 4.7 13.41 4.7 1.18 0 2.28 0 3.38-.11 11.52-.92 19.22-6.38 22-13.35 3.05-7.82-.55-13.47-14.86-13.47zm7 13.79c-1.73 4.11-5.76 8.77-14.09 9.94a30.26 30.26 0 0 1 -4.22.29c-7.93 0-10.64-3.3-10.71-6.82l2.6-6.6c2.31-3 6.31-5.87 12.33-6.79a27.59 27.59 0 0 1 4-.3c11.2.01 11.94 5.52 10.03 10.29zm-79-12.98-7.71 19.66c-.7 2-1.59 4-2.19 6.06h-7.46l1.83-4.6h-.18c-2.93 2.31-6.64 5.21-16.8 5.21-15.3.01-15.74-4.21-13.49-9.9l6.41-16.43h7.67l-6.08 15.63c-2 4.84-1.74 7.49 6.59 7.49 11 0 17-4.62 18.63-8.91l5.62-14.21zm40.65 3.38c-2.31-2.35-6.86-3.71-14.2-3.71a35.68 35.68 0 0 0 -6.68.55 23.11 23.11 0 0 0 -10.27 4.29h-.22l2.24-4.7h-7.52l-14.28 36.31h7.55l5.58-14.27h.15c2.31 3.27 5.5 4.27 13.1 4.27 1.28 0 2.53 0 3.71-.14 10.34-.88 17.57-5.5 20.87-11.52a15.5 15.5 0 0 0 .81-1.79c1.51-3.83 1.39-7.02-.81-9.29zm-7.12 9.61c-1.62 4.18-5.58 8.91-13.73 10.13a28.59 28.59 0 0 1 -4.11.29c-10.2 0-11.52-5.87-9.68-10.42 1.5-3.93 6-8.84 13.79-10.13a27 27 0 0 1 4-.29c10.93 0 11.63 5.55 9.76 10.42z" fill-rule="evenodd"/><path d="m104.32 42.52c.08-.39-.24-.59-.63-.59s-.75.09-.79.44.39.45.81.63.85.43.77 1a1.43 1.43 0 0 1 -1.55 1c-.79 0-1.36-.29-1.23-1.17h.57c-.1.51.31.67.78.67s.81-.13.86-.53-.39-.47-.82-.65-.85-.41-.78-.93a1.35 1.35 0 0 1 1.42-1c.64 0 1.26.29 1.14 1.09z"/><path d="m106.15 41.51h.57l-1.22 3.49h-.56zm.79-.62h-.57l.25-.69h.58z"/><path d="m107.78 41.51h.54l-.18.52a1.77 1.77 0 0 1 1.31-.6c.65 0 .92.28.83.89a4.21 4.21 0 0 1 -.2.67l-.7 2h-.57l.73-2a5.2 5.2 0 0 0 .16-.53c0-.33-.2-.48-.53-.48a1.44 1.44 0 0 0 -.91.4 1.69 1.69 0 0 0 -.48.71l-.67 1.9h-.57z"/><path d="m113.52 42.61c.06-.42-.19-.67-.63-.67a1.78 1.78 0 0 0 -1.57 1.62c-.08.53.08 1 .71 1a1.25 1.25 0 0 0 1.11-.71h.57a1.83 1.83 0 0 1 -1.71 1.15c-.94 0-1.34-.56-1.21-1.49a2.32 2.32 0 0 1 2.21-2.08c.78 0 1.21.37 1.12 1.17z"/><path d="m115 43.4a2.73 2.73 0 0 0 -.06.3.71.71 0 0 0 .77.84 1.16 1.16 0 0 0 1.09-.66h.57a1.79 1.79 0 0 1 -1.7 1.12 1.13 1.13 0 0 1 -1.26-1.39 2.38 2.38 0 0 1 2.09-2.22c1 0 1.38.55 1.24 1.52a2.44 2.44 0 0 1 -.12.45zm2.15-.5c.11-.49 0-1-.67-1a1.45 1.45 0 0 0 -1.33 1z"/><path d="m121.46 45h-.6l1.28-3.59a5.08 5.08 0 0 1 -1.24.13l.16-.45a2 2 0 0 0 1.64-.81h.44z"/><path d="m123.88 43.83c-.06.44.12.71.59.71.9 0 1.34-.93 1.66-1.63a1.45 1.45 0 0 1 -1.11.47 1.13 1.13 0 0 1 -1.14-1.38 2 2 0 0 1 1.9-1.74c1 0 1.36.64 1.22 1.58a5.69 5.69 0 0 1 -.67 1.91 2.12 2.12 0 0 1 -1.93 1.25c-.79 0-1.25-.39-1.12-1.21zm2.53-2.13c.09-.59-.16-1-.77-1a1.32 1.32 0 0 0 -1.16 1.3c-.07.54.17.91.74.91a1.25 1.25 0 0 0 1.2-1.21z"/><path d="m127.74 43.83c-.06.44.12.71.58.71.9 0 1.34-.93 1.66-1.63a1.45 1.45 0 0 1 -1.11.47 1.13 1.13 0 0 1 -1.13-1.38 2 2 0 0 1 1.89-1.74c1 0 1.36.64 1.23 1.58a5.73 5.73 0 0 1 -.67 1.91 2.12 2.12 0 0 1 -1.93 1.3c-.79 0-1.25-.39-1.12-1.21zm2.53-2.13c.08-.59-.16-1-.78-1a1.32 1.32 0 0 0 -1.15 1.3c-.08.54.17.91.74.91a1.25 1.25 0 0 0 1.2-1.21z"/><path d="m132.39 45h-.6l1.28-3.59a5.07 5.07 0 0 1 -1.24.13l.17-.54a2 2 0 0 0 1.64-.81h.44z"/></g></svg>