<svg xmlns="http://www.w3.org/2000/svg" viewBox="0 0 134.87 45.04"><defs><style>.cls-1,.cls-2{fill:#fff;}.cls-1{fill-rule:evenodd;}</style></defs><title>upb-logo</title><g id="Layer_2" data-name="Layer 2"><g id="Layer_1-2" data-name="Layer 1"><path class="cls-1" d="M119,8.07a34.55,34.55,0,0,0-7.12.73c-5.5,1.14-9.06,3.3-10.05,4.22h-.18l5.17-13H99.38L85.84,34.41h7.45L95,30.3h.07C97,33.6,101.51,35,108.48,35c1.18,0,2.28,0,3.38-.11,11.52-.92,19.22-6.38,22-13.35C136.91,13.72,133.31,8.07,119,8.07Zm7,13.79c-1.73,4.11-5.76,8.77-14.09,9.94a30.26,30.26,0,0,1-4.22.29c-7.93,0-10.64-3.3-10.71-6.82l2.6-6.6c2.31-3,6.31-5.87,12.33-6.79a27.59,27.59,0,0,1,4-.3C127.11,11.59,127.85,17.1,125.94,21.87ZM47,8.88,39.29,28.54c-.7,2-1.59,4-2.19,6.06H29.64L31.47,30h-.18c-2.93,2.31-6.64,5.21-16.8,5.21C-.81,35.22-1.25,31,1,25.31L7.41,8.88h7.67L9,24.51C7,29.35,7.26,32,15.59,32c11,0,17-4.62,18.63-8.91L39.84,8.88Zm40.65,3.38c-2.31-2.35-6.86-3.71-14.2-3.71a35.68,35.68,0,0,0-6.68.55,23.11,23.11,0,0,0-10.27,4.29h-.22l2.24-4.7H51L36.72,45h7.55l5.58-14.27H50C52.31,34,55.5,35,63.1,35c1.28,0,2.53,0,3.71-.14,10.34-.88,17.57-5.5,20.87-11.52a15.5,15.5,0,0,0,.81-1.79C90,17.72,89.88,14.53,87.68,12.26Zm-7.12,9.61C78.91,26.05,74.95,30.78,66.8,32a28.59,28.59,0,0,1-4.11.29c-10.2,0-11.52-5.87-9.68-10.42,1.5-3.93,6-8.84,13.79-10.13a27,27,0,0,1,4-.29C81.73,11.45,82.43,17,80.56,21.87Z"/><path class="cls-2" d="M104.32,42.52c.08-.39-.24-.59-.63-.59s-.75.09-.79.44.39.45.81.63.85.43.77,1A1.43,1.43,0,0,1,102.93,45c-.79,0-1.36-.29-1.23-1.17h.57c-.1.51.31.67.78.67s.81-.13.86-.53-.39-.47-.82-.65-.85-.41-.78-.93a1.35,1.35,0,0,1,1.42-1c.64,0,1.26.29,1.14,1.09Z"/><path class="cls-2" d="M106.15,41.51h.57L105.5,45h-.56Zm.79-.62h-.57l.25-.69h.58Z"/><path class="cls-2" d="M107.78,41.51h.54l-.18.52h0a1.77,1.77,0,0,1,1.31-.6c.65,0,.92.28.83.89a4.21,4.21,0,0,1-.2.67l-.7,2h-.57l.73-2a5.2,5.2,0,0,0,.16-.53c0-.33-.2-.48-.53-.48a1.44,1.44,0,0,0-.91.4,1.69,1.69,0,0,0-.48.71l-.67,1.9h-.57Z"/><path class="cls-2" d="M113.52,42.61c.06-.42-.19-.67-.63-.67a1.78,1.78,0,0,0-1.57,1.62c-.08.53.08,1,.71,1a1.25,1.25,0,0,0,1.11-.71h.57A1.83,1.83,0,0,1,112,45c-.94,0-1.34-.56-1.21-1.49A2.32,2.32,0,0,1,113,41.43c.78,0,1.21.37,1.12,1.17Z"/><path class="cls-2" d="M115,43.4a2.73,2.73,0,0,0-.06.3.71.71,0,0,0,.77.84,1.16,1.16,0,0,0,1.09-.66h.57A1.79,1.79,0,0,1,115.67,45a1.13,1.13,0,0,1-1.26-1.39,2.38,2.38,0,0,1,2.09-2.22c1,0,1.38.55,1.24,1.52a2.44,2.44,0,0,1-.12.45Zm2.15-.5c.11-.49,0-1-.67-1a1.45,1.45,0,0,0-1.33,1Z"/><path class="cls-2" d="M121.46,45h-.6l1.28-3.59a5.08,5.08,0,0,1-1.24.13l.16-.45a2,2,0,0,0,1.64-.81h.44Z"/><path class="cls-2" d="M123.88,43.83c-.06.44.12.71.59.71.9,0,1.34-.93,1.66-1.63h0a1.45,1.45,0,0,1-1.11.47A1.13,1.13,0,0,1,123.88,42a2,2,0,0,1,1.9-1.74c1,0,1.36.64,1.22,1.58a5.69,5.69,0,0,1-.67,1.91A2.12,2.12,0,0,1,124.4,45c-.79,0-1.25-.39-1.12-1.21Zm2.53-2.13c.09-.59-.16-1-.77-1A1.32,1.32,0,0,0,124.48,42c-.07.54.17.91.74.91A1.25,1.25,0,0,0,126.42,41.7Z"/><path class="cls-2" d="M127.74,43.83c-.06.44.12.71.58.71.9,0,1.34-.93,1.66-1.63h0a1.45,1.45,0,0,1-1.11.47A1.13,1.13,0,0,1,127.74,42a2,2,0,0,1,1.89-1.74c1,0,1.36.64,1.23,1.58a5.73,5.73,0,0,1-.67,1.91,2.12,2.12,0,0,1-1.93,1.3c-.79,0-1.25-.39-1.12-1.21Zm2.53-2.13c.08-.59-.16-1-.78-1A1.32,1.32,0,0,0,128.34,42c-.08.54.17.91.74.91A1.25,1.25,0,0,0,130.28,41.7Z"/><path class="cls-2" d="M132.39,45h-.6l1.28-3.59a5.07,5.07,0,0,1-1.24.13L132,41a2,2,0,0,0,1.64-.81h.44Z"/></g></g></svg>